<?xml version="1.0" encoding="utf-8"?>
<svg id="master-artboard" viewBox="0 0 1299.5455322265625 330.90911865234375" version="1.1" xmlns="http://www.w3.org/2000/svg" x="0px" y="0px" style="enable-background:new 0 0 1400 980;" width="1299.5455322265625px" height="330.90911865234375px"><rect id="ee-background" x="0" y="0" width="1299.5455322265625" height="330.90911865234375" style="fill: white; fill-opacity: 0; pointer-events: none;"/>


<path class="st1" d="M79.3,716c-6.1-22.3-22-34.8-30.2-55c9.5-18.3,24-31.6,32.9-50.6c86.8-2.2,182.1-8.1,275.2-4.4&#10;&#9;&#9;c1.9,0.1,27.8-1.1,38.2,0c6.7,0.7,16.1,1,18.6,0.9c60.5-1.7,121.5,0.9,183.8,0c2.5-2.5,7.2,0.1,10.7-0.9c4.4,0.1,9.9-0.1,15.1,0&#10;&#9;&#9;c4.5,0.1,22.1,1.8,28.4,0.9c15.7,12.8,28.1,36.4,41.7,54.2c-7.3,9.6-12.3,18.2-18.6,27.5c-4.7,6.9-13.1,21.1-22.2,24&#10;&#9;&#9;c-5.9,1.9-15.7,2.2-23.1,2.7c-30.1,2-69.1,0.7-95.9,0.9c-4,0-10,1.5-16,1.8c-6.9,0.3-220.1,1.8-322.3,1.8&#10;&#9;&#9;C156.3,719.5,113.9,719.4,79.3,716z" style="fill-rule: evenodd; clip-rule: evenodd;" transform="matrix(1.8920444250106812, 0, 0, 1.8920444250106812, -53.590097427368164, -1085.0342102050781)"/><path class="st2" d="M78.3,725.9c36,3.6,81.1,3.6,117.3,3.6c104.3,0,315.7-1.5,322.7-1.8c3.6-0.2,7-0.7,10-1.1&#10;&#9;&#9;c2.2-0.3,4.4-0.7,5.6-0.7c7.8,0,16.6,0,26.1,0.1c8.3,0.1,16.8,0.1,25.5,0.1c18.8,0,33.1-0.4,45-1.2c1.2-0.1,2.4-0.2,3.7-0.2&#10;&#9;&#9;c7.3-0.4,15.7-0.9,21.8-2.9c11.3-3.6,19.9-16.5,25.6-25.1c0.7-1,1.3-1.9,1.9-2.8c2.3-3.4,4.5-6.8,6.6-10&#10;&#9;&#9;c3.7-5.8,7.3-11.2,11.7-17.1c2.7-3.6,2.7-8.6,0-12.2c-4.3-5.6-8.5-11.8-12.9-18.4c-9.2-13.7-18.8-27.9-30.4-37.5&#10;&#9;&#9;c-2.2-1.8-5-2.6-7.7-2.2c-0.3,0-1.4,0.2-3.7,0.2c-4.6,0-11.2-0.4-16-0.7c-3.2-0.2-5.6-0.4-7.2-0.4c-2.8,0-5.7,0-8.5,0&#10;&#9;&#9;c-2.3,0-4.6,0-6.6,0c-0.8,0-1.5,0.1-2.2,0.2c-0.3,0-0.9-0.1-1.4-0.2c-1.1-0.1-2.5-0.3-3.9-0.3c-2.4,0-4.4,0.5-6,1.2&#10;&#9;&#9;c-8.2,0.1-16.7,0.2-25.9,0.2c-18.2,0-36.6-0.2-54.4-0.4c-17.6-0.2-35.8-0.4-53.6-0.4c-17.6,0-33.1,0.2-47.5,0.6c-0.3,0-0.6,0-1,0&#10;&#9;&#9;c-3.4,0-10.9-0.3-16.2-0.8c-3.4-0.4-8.2-0.6-14.7-0.6c-7.4,0-15.5,0.2-20.2,0.4c-1.8,0.1-3.5,0.1-4.1,0.1&#10;&#9;&#9;c-20.1-0.8-41.1-1.2-64-1.2c-47.9,0-95.7,1.7-141.9,3.3c-24.2,0.9-47.1,1.7-69.9,2.3c-3.8,0.1-7.2,2.3-8.8,5.8&#10;&#9;&#9;c-4.3,9.2-10.1,17-16.3,25.4c-5.7,7.7-11.6,15.6-16.4,24.9c-1.3,2.6-1.5,5.6-0.4,8.3c4,10,9.5,18,14.9,25.7&#10;&#9;&#9;c6.2,8.9,12,17.4,14.9,28.2C70.7,722.6,74.2,725.5,78.3,725.9z" style="fill: none; stroke: rgb(0, 0, 0); stroke-width: 8; stroke-linecap: round; stroke-linejoin: round; stroke-miterlimit: 10;" transform="matrix(1.8920444250106812, 0, 0, 1.8920444250106812, -53.590097427368164, -1085.0342102050781)"/>
</svg>