<?xml version="1.0" encoding="utf-8"?>
<svg id="master-artboard" viewBox="0 0 1077.185546875 725.2383422851562" version="1.1" xmlns="http://www.w3.org/2000/svg" x="0px" y="0px" style="enable-background:new 0 0 1400 980;" width="1077.185546875px" height="725.2383422851562px"><rect id="ee-background" x="0" y="0" width="1077.185546875" height="725.2383422851562" style="fill: white; fill-opacity: 0; pointer-events: none;"/>



<path class="st1" d="M1192.6,487.6v-9.4h2.8v-3.8h-116.1c3.4,0,3.5-5.1,3.5-5.1v-11.8c0-9.3-9.4-9.4-9.4-9.4H1038&#10;&#9;c-9.6,0-9.3,9.9-9.3,9.9v11.3c0,2.7,2.1,5.1,2.1,5.1H974l7.5-13.3c4.5-2.4,3.2-7,3.2-7h-10.4v-13.1h3.2v-3.8h-82.1v-63.3&#10;&#9;c18.2-21.7-23-43.2-23-43.2v-25.6c15.7-12.8-6.7-28.1-6.7-28.1c3.8-12.5-12.5-20.1-12.5-20.1c3.8-63.3-65.2-91.2-65.2-91.2V159&#10;&#9;l-10.2-5.8v-7.9l-5.8-5.1v-29.4l3-2.1c8.5-17.3-15.5-27.3-15.5-27.3l1.3-9.6l3.5-3.4v-3.6l-4.8-1.9l-0.9-11.3&#10;&#9;c14.7-13.4-3.9-27.7-3.9-27.7s-18.6,14.3-3.9,27.7l-0.9,11.3l-4.8,1.9v3.6l3.5,3.4l1.3,9.6c0,0-24.1,10-15.6,27.3l3,2.1v29.4&#10;&#9;l-5.8,5.1v7.9l-10.2,5.8v6.6c0,0-69,27.9-65.2,91.2c0,0-16.3,7.7-12.5,20.1c0,0-22.4,15.3-6.7,28.1v25.6c0,0-41.2,21.4-23,43.2v63.3&#10;&#9;h-82.1v3.8h3.2V454h-10.4c0,0-1.3,4.6,3.2,7l7.5,13.3h-56.9c0,0,2.1-2.4,2.1-5.1v-11.3c0,0,0.3-9.9-9.3-9.9h-35.3&#10;&#9;c0,0-9.4,0.2-9.4,9.4v11.8c0,0,0.2,5.1,3.5,5.1H313.8v3.8h2.8v9.4h-6.9v8.2c0,0,5.4-0.3,5.4,3.2v126.9h439.4H1194V498.9&#10;&#9;c0-3.5,5.4-3.2,5.4-3.2v-8.2H1192.6z M409.2,478.8h4.2v11.8h-4.2V478.8z M402.5,478.8h4.2v11.8h-4.2V478.8z M369.7,478.8h4.2v11.8&#10;&#9;h-4.2V478.8z M363.2,478.8h4.2v11.8h-4.2V478.8z M334.5,490.6h-4.2v-11.8h4.2V490.6z M341,490.6h-4.2v-11.8h4.2V490.6z M347.6,490.6&#10;&#9;h-4.2v-11.8h4.2V490.6z M354.2,490.6h-4.2v-11.8h4.2V490.6z M360.8,490.6h-4.2v-11.8h4.2V490.6z M376.5,596.9h-12.3v-27&#10;&#9;c0-3.4,2.7-6.1,6.1-6.1c3.4,0,6.1,2.7,6.1,6.1V596.9z M370.4,538.7c-4.6,0-8.3-3.7-8.3-8.3s3.7-8.3,8.3-8.3c4.6,0,8.3,3.7,8.3,8.3&#10;&#9;S375,538.7,370.4,538.7z M380.5,490.6h-4.2v-11.8h4.2V490.6z M387.1,490.6h-4.2v-11.8h4.2V490.6z M393.6,490.6h-4.2v-11.8h4.2V490.6&#10;&#9;z M396,478.8h4.2v11.8H396V478.8z M413.4,596.9h-12.3v-27c0-3.4,2.7-6.1,6.1-6.1c3.4,0,6.1,2.7,6.1,6.1V596.9z M407.2,538.7&#10;&#9;c-4.6,0-8.3-3.7-8.3-8.3s3.7-8.3,8.3-8.3c4.6,0,8.3,3.7,8.3,8.3S411.8,538.7,407.2,538.7z M419.9,490.6h-4.2v-11.8h4.2V490.6z&#10;&#9; M426.5,490.6h-4.2v-11.8h4.2V490.6z M515.7,478.8h4.2v11.8h-4.2V478.8z M482.9,478.8h4.2v11.8h-4.2V478.8z M443.1,456.4h7.9v11.8&#10;&#9;h-7.9V456.4z M430.7,456.4h7.9v11.8h-7.9V456.4z M450.2,596.9h-12.3v-27c0-3.4,2.7-6.1,6.1-6.1c3.4,0,6.1,2.7,6.1,6.1V596.9z&#10;&#9; M444.1,538.7c-4.6,0-8.3-3.7-8.3-8.3s3.7-8.3,8.3-8.3c4.6,0,8.3,3.7,8.3,8.3S448.7,538.7,444.1,538.7z M463.5,468.3h-7.9v-11.8h7.9&#10;&#9;V468.3z M468.3,456.4h7.9v11.8h-7.9V456.4z M487,596.9h-12.3v-27c0-3.4,2.7-6.1,6.1-6.1c3.4,0,6.1,2.7,6.1,6.1V596.9z M480.9,538.7&#10;&#9;c-4.6,0-8.3-3.7-8.3-8.3s3.7-8.3,8.3-8.3c4.6,0,8.3,3.7,8.3,8.3S485.5,538.7,480.9,538.7z M493.5,490.6h-4.2v-11.8h4.2V490.6z&#10;&#9; M500.1,490.6h-4.2v-11.8h4.2V490.6z M506.8,490.6h-4.2v-11.8h4.2V490.6z M509.2,478.8h4.2v11.8h-4.2V478.8z M523.9,596.9h-12.3v-27&#10;&#9;c0-3.4,2.7-6.1,6.1-6.1c3.4,0,6.1,2.7,6.1,6.1V596.9z M517.7,538.7c-4.6,0-8.3-3.7-8.3-8.3s3.7-8.3,8.3-8.3c4.6,0,8.3,3.7,8.3,8.3&#10;&#9;S522.3,538.7,517.7,538.7z M526.4,490.6h-4.2v-11.8h4.2V490.6z M533,490.6h-4.2v-11.8h4.2V490.6z M577.7,440.1h4.2V452h-4.2V440.1z&#10;&#9; M549.1,452h-4.2v-11.8h4.2V452z M555.6,452h-4.2v-11.8h4.2V452z M562.2,452H558v-11.8h4.2V452z M568.8,452h-4.2v-11.8h4.2V452z&#10;&#9; M571.2,440.1h4.2V452h-4.2V440.1z M586.4,563.8h-13.2v-30.9h13.2V563.8z M579.8,506c-4.6,0-8.3-3.7-8.3-8.3c0-4.6,3.7-8.3,8.3-8.3&#10;&#9;c4.6,0,8.3,3.7,8.3,8.3C588.1,502.3,584.4,506,579.8,506z M588.4,452h-4.2v-11.8h4.2V452z M595.1,452h-4.2v-11.8h4.2V452z&#10;&#9; M601.6,452h-4.2v-11.8h4.2V452z M608.2,452H604v-11.8h4.2V452z M643.3,416.1c0,2-1.7,3.7-3.7,3.7h-11.8c-2,0-3.7-1.7-3.7-3.7v-57.9&#10;&#9;c0-2,1.7-3.7,3.7-3.7h11.8c2,0,3.7,1.7,3.7,3.7V416.1z M739.5,110.7l2.2-0.8v26.5h-2.2V110.7z M744.5,201.2c1.9,0,3.4,1.5,3.4,3.4v9&#10;&#9;c0,1.9-1.5,3.4-3.4,3.4s-3.4-1.5-3.4-3.4v-9C741.1,202.7,742.6,201.2,744.5,201.2z M738.9,282.7c0-2.5,2-4.5,4.5-4.5&#10;&#9;c2.5,0,4.5,2,4.5,4.5v24.1c0,2.5-2,4.5-4.5,4.5c-2.5,0-4.5-2-4.5-4.5V282.7z M733.3,434.2V446h-4.2v-11.8H733.3z M739.5,497.7&#10;&#9;c0,4.6-3.7,8.3-8.3,8.3c-4.6,0-8.3-3.7-8.3-8.3c0-4.6,3.7-8.3,8.3-8.3C735.8,489.4,739.5,493.1,739.5,497.7z M724.2,207.2&#10;&#9;c0-1.9,1.5-3.4,3.4-3.4c1.9,0,3.4,1.5,3.4,3.4v9c0,1.9-1.5,3.4-3.4,3.4c-1.9,0-3.4-1.5-3.4-3.4V207.2z M716.9,282.7&#10;&#9;c0-2.5,2-4.5,4.5-4.5c2.5,0,4.5,2,4.5,4.5v24.1c0,2.5-2,4.5-4.5,4.5c-2.5,0-4.5-2-4.5-4.5V282.7z M707.4,209.7&#10;&#9;c0-1.9,1.5-3.4,3.4-3.4c1.9,0,3.4,1.5,3.4,3.4v9c0,1.9-1.5,3.4-3.4,3.4c-1.9,0-3.4-1.5-3.4-3.4V209.7z M690.6,212.3&#10;&#9;c0-1.9,1.5-3.4,3.4-3.4c1.9,0,3.4,1.5,3.4,3.4v9c0,1.9-1.5,3.4-3.4,3.4c-1.9,0-3.4-1.5-3.4-3.4V212.3z M673.7,214.8&#10;&#9;c0-1.9,1.5-3.4,3.4-3.4c1.9,0,3.4,1.5,3.4,3.4v9c0,1.9-1.5,3.4-3.4,3.4c-1.9,0-3.4-1.5-3.4-3.4V214.8z M673,287.9&#10;&#9;c0-2.5,2-4.5,4.5-4.5c2.5,0,4.5,2,4.5,4.5v24.1c0,2.5-2,4.5-4.5,4.5c-2.5,0-4.5-2-4.5-4.5V287.9z M684.3,497.7&#10;&#9;c0,4.6-3.7,8.3-8.3,8.3c-4.6,0-8.3-3.7-8.3-8.3c0-4.6,3.7-8.3,8.3-8.3C680.5,489.4,684.3,493.1,684.3,497.7z M651.1,290.4&#10;&#9;c0-2.5,2-4.5,4.5-4.5c2.5,0,4.5,2,4.5,4.5v24.1c0,2.5-2,4.5-4.5,4.5c-2.5,0-4.5-2-4.5-4.5V290.4z M654.7,417.3c-2,0-3.7-1.7-3.7-3.7&#10;&#9;v-57.9c0-2,1.7-3.7,3.7-3.7h11.8c2,0,3.7,1.7,3.7,3.7v57.9c0,2-1.7,3.7-3.7,3.7H654.7z M684.3,573.3h-16.6v-36.7&#10;&#9;c0-4.6,3.7-8.3,8.3-8.3c4.6,0,8.3,3.7,8.3,8.3V573.3z M693.9,446h-4.2v-11.8h4.2V446z M693.4,414.7h-11.8c-2,0-3.7-1.7-3.7-3.7&#10;&#9;v-57.9c0-2,1.7-3.7,3.7-3.7h11.8c2,0,3.7,1.7,3.7,3.7V411C697.1,413.1,695.4,414.7,693.4,414.7z M700.5,446h-4.2v-11.8h4.2V446z&#10;&#9; M699.5,313.9c-2.5,0-4.5-2-4.5-4.5v-24.1c0-2.5,2-4.5,4.5-4.5c2.5,0,4.5,2,4.5,4.5v24.1C704,311.9,702,313.9,699.5,313.9z M707,446&#10;&#9;h-4.2v-11.8h4.2V446z M713.7,446h-4.2v-11.8h4.2V446z M720.2,446h-4.2v-11.8h4.2V446z M708.5,412.2c-2,0-3.7-1.7-3.7-3.7v-57.9&#10;&#9;c0-2,1.7-3.7,3.7-3.7h11.8c2,0,3.7,1.7,3.7,3.7v57.9c0,2-1.7,3.7-3.7,3.7H708.5z M722.6,434.2h4.2V446h-4.2V434.2z M739.5,573.3&#10;&#9;h-16.6v-36.7c0-4.6,3.7-8.3,8.3-8.3c4.6,0,8.3,3.7,8.3,8.3V573.3z M739.9,446h-4.2v-11.8h4.2V446z M746.5,446h-4.2v-11.8h4.2V446z&#10;&#9; M750.9,405.9c0,2-1.7,3.7-3.7,3.7h-11.8c-2.1,0-3.7-1.7-3.7-3.7V348c0-2,1.7-3.7,3.7-3.7h11.8c2,0,3.7,1.7,3.7,3.7V405.9z&#10;&#9; M752.2,136.5h-8.6v-27.6l8.6-4.2V136.5z M849.1,290.4c0-2.5,2-4.5,4.5-4.5c2.5,0,4.5,2,4.5,4.5v24.1c0,2.5-2,4.5-4.5,4.5&#10;&#9;c-2.5,0-4.5-2-4.5-4.5V290.4z M828.6,214.8c0-1.9,1.5-3.4,3.4-3.4c1.9,0,3.4,1.5,3.4,3.4v9c0,1.9-1.5,3.4-3.4,3.4&#10;&#9;c-1.9,0-3.4-1.5-3.4-3.4V214.8z M827.1,287.9c0-2.5,2-4.5,4.5-4.5c2.5,0,4.5,2,4.5,4.5v24.1c0,2.5-2,4.5-4.5,4.5&#10;&#9;c-2.5,0-4.5-2-4.5-4.5V287.9z M841.5,497.7c0,4.6-3.7,8.3-8.3,8.3c-4.6,0-8.3-3.7-8.3-8.3c0-4.6,3.7-8.3,8.3-8.3&#10;&#9;C837.8,489.4,841.5,493.1,841.5,497.7z M811.8,212.3c0-1.9,1.5-3.4,3.4-3.4c1.9,0,3.4,1.5,3.4,3.4v9c0,1.9-1.5,3.4-3.4,3.4&#10;&#9;c-1.9,0-3.4-1.5-3.4-3.4V212.3z M795,209.7c0-1.9,1.5-3.4,3.4-3.4c1.9,0,3.4,1.5,3.4,3.4v9c0,1.9-1.5,3.4-3.4,3.4&#10;&#9;c-1.9,0-3.4-1.5-3.4-3.4V209.7z M792.3,282.7v24.1c0,2.5-2,4.5-4.5,4.5c-2.5,0-4.5-2-4.5-4.5v-24.1c0-2.5,2-4.5,4.5-4.5&#10;&#9;C790.2,278.2,792.3,280.3,792.3,282.7z M778.1,207.2c0-1.9,1.5-3.4,3.4-3.4c1.9,0,3.4,1.5,3.4,3.4v9c0,1.9-1.5,3.4-3.4,3.4&#10;&#9;c-1.9,0-3.4-1.5-3.4-3.4V207.2z M780,434.2V446h-4.2v-11.8H780z M786.3,497.7c0,4.6-3.7,8.3-8.3,8.3c-4.6,0-8.3-3.7-8.3-8.3&#10;&#9;c0-4.6,3.7-8.3,8.3-8.3C782.6,489.4,786.3,493.1,786.3,497.7z M767.5,109.9l2.2,0.8v25.7h-2.2V109.9z M770.3,282.7v24.1&#10;&#9;c0,2.5-2,4.5-4.5,4.5c-2.5,0-4.5-2-4.5-4.5v-24.1c0-2.5,2-4.5,4.5-4.5C768.3,278.2,770.3,280.3,770.3,282.7z M768.1,204.6v9&#10;&#9;c0,1.9-1.5,3.4-3.4,3.4s-3.4-1.5-3.4-3.4v-9c0-1.9,1.5-3.4,3.4-3.4S768.1,202.7,768.1,204.6z M756.9,104.7l8.6,4.2v27.6h-8.6V104.7z&#10;&#9; M758.3,405.9V348c0-2,1.7-3.7,3.7-3.7h11.8c2,0,3.7,1.7,3.7,3.7v57.9c0,2-1.7,3.7-3.7,3.7H762C760,409.6,758.3,407.9,758.3,405.9z&#10;&#9; M766.8,446h-4.2v-11.8h4.2V446z M769.2,434.2h4.2V446h-4.2V434.2z M786.3,573.3h-16.6v-36.7c0-4.6,3.7-8.3,8.3-8.3&#10;&#9;c4.6,0,8.3,3.7,8.3,8.3V573.3z M786.6,446h-4.2v-11.8h4.2V446z M793.1,446H789v-11.8h4.2V446z M799.7,446h-4.2v-11.8h4.2V446z&#10;&#9; M788.9,412.2c-2,0-3.7-1.7-3.7-3.7v-57.9c0-2,1.7-3.7,3.7-3.7h11.8c2,0,3.7,1.7,3.7,3.7v57.9c0,2-1.7,3.7-3.7,3.7H788.9z&#10;&#9; M806.3,446h-4.2v-11.8h4.2V446z M805.2,309.4v-24.1c0-2.5,2-4.5,4.5-4.5c2.5,0,4.5,2,4.5,4.5v24.1c0,2.5-2,4.5-4.5,4.5&#10;&#9;C807.2,313.9,805.2,311.9,805.2,309.4z M812.9,446h-4.2v-11.8h4.2V446z M812.1,411v-57.9c0-2,1.7-3.7,3.7-3.7h11.8&#10;&#9;c2,0,3.7,1.7,3.7,3.7V411c0,2-1.7,3.7-3.7,3.7h-11.8C813.7,414.7,812.1,413.1,812.1,411z M819.4,446h-4.2v-11.8h4.2V446z&#10;&#9; M841.5,573.3h-16.6v-36.7c0-4.6,3.7-8.3,8.3-8.3c4.6,0,8.3,3.7,8.3,8.3V573.3z M858.2,413.6c0,2-1.7,3.7-3.7,3.7h-11.8&#10;&#9;c-2,0-3.7-1.7-3.7-3.7v-57.9c0-2,1.7-3.7,3.7-3.7h11.8c2,0,3.7,1.7,3.7,3.7V413.6z M885,416.1c0,2-1.7,3.7-3.7,3.7h-11.8&#10;&#9;c-2,0-3.7-1.7-3.7-3.7v-57.9c0-2,1.7-3.7,3.7-3.7h11.8c2,0,3.7,1.7,3.7,3.7V416.1z M927.3,440.1h4.2V452h-4.2V440.1z M905.1,452H901&#10;&#9;v-11.8h4.2V452z M911.7,452h-4.2v-11.8h4.2V452z M918.2,452h-4.2v-11.8h4.2V452z M920.7,440.1h4.2V452h-4.2V440.1z M936,563.8h-13.2&#10;&#9;v-30.9H936V563.8z M929.4,506c-4.6,0-8.3-3.7-8.3-8.3c0-4.6,3.7-8.3,8.3-8.3c4.6,0,8.3,3.7,8.3,8.3C937.7,502.3,934,506,929.4,506z&#10;&#9; M938,452h-4.2v-11.8h4.2V452z M944.5,452h-4.2v-11.8h4.2V452z M951.2,452H947v-11.8h4.2V452z M957.7,452h-4.2v-11.8h4.2V452z&#10;&#9; M964.2,452h-4.2v-11.8h4.2V452z M1058.2,456.4h7.9v11.8h-7.9V456.4z M1022.1,478.8h4.2v11.8h-4.2V478.8z M989.4,478.8h4.2v11.8&#10;&#9;h-4.2V478.8z M980.3,490.6h-4.2v-11.8h4.2V490.6z M982.8,478.8h4.2v11.8h-4.2V478.8z M997.6,596.9h-12.3v-27c0-3.4,2.7-6.1,6.1-6.1&#10;&#9;c3.4,0,6.1,2.7,6.1,6.1V596.9z M991.4,538.7c-4.6,0-8.3-3.7-8.3-8.3s3.7-8.3,8.3-8.3c4.6,0,8.3,3.7,8.3,8.3S996,538.7,991.4,538.7z&#10;&#9; M1000,490.6h-4.2v-11.8h4.2V490.6z M1006.6,490.6h-4.2v-11.8h4.2V490.6z M1013.2,490.6h-4.2v-11.8h4.2V490.6z M1019.8,490.6h-4.2&#10;&#9;v-11.8h4.2V490.6z M1034.4,596.9h-12.3v-27c0-3.4,2.7-6.1,6.1-6.1s6.1,2.7,6.1,6.1V596.9z M1028.3,538.7c-4.6,0-8.3-3.7-8.3-8.3&#10;&#9;s3.7-8.3,8.3-8.3c4.6,0,8.3,3.7,8.3,8.3S1032.9,538.7,1028.3,538.7z M1040.9,468.3h-7.9v-11.8h7.9V468.3z M1053.6,468.3h-7.9v-11.8&#10;&#9;h7.9V468.3z M1071.2,596.9H1059v-27c0-3.4,2.7-6.1,6.1-6.1s6.1,2.7,6.1,6.1V596.9z M1065.1,538.7c-4.6,0-8.3-3.7-8.3-8.3&#10;&#9;s3.7-8.3,8.3-8.3c4.6,0,8.3,3.7,8.3,8.3S1069.7,538.7,1065.1,538.7z M1078.5,468.3h-7.9v-11.8h7.9V468.3z M1141.9,478.8h4.2v11.8&#10;&#9;h-4.2V478.8z M1135.3,478.8h4.2v11.8h-4.2V478.8z M1102.5,478.8h4.2v11.8h-4.2V478.8z M1095.8,478.8h4.2v11.8h-4.2V478.8z&#10;&#9; M1086.9,490.6h-4.2v-11.8h4.2V490.6z M1093.4,490.6h-4.2v-11.8h4.2V490.6z M1108.1,596.9h-12.3v-27c0-3.4,2.7-6.1,6.1-6.1&#10;&#9;c3.4,0,6.1,2.7,6.1,6.1V596.9z M1101.9,538.7c-4.6,0-8.3-3.7-8.3-8.3s3.7-8.3,8.3-8.3c4.6,0,8.3,3.7,8.3,8.3&#10;&#9;S1106.5,538.7,1101.9,538.7z M1113.2,490.6h-4.2v-11.8h4.2V490.6z M1119.7,490.6h-4.2v-11.8h4.2V490.6z M1126.2,490.6h-4.2v-11.8&#10;&#9;h4.2V490.6z M1128.6,478.8h4.2v11.8h-4.2V478.8z M1144.9,596.9h-12.3v-27c0-3.4,2.7-6.1,6.1-6.1c3.4,0,6.1,2.7,6.1,6.1V596.9z&#10;&#9; M1138.8,538.7c-4.6,0-8.3-3.7-8.3-8.3s3.7-8.3,8.3-8.3c4.6,0,8.3,3.7,8.3,8.3S1143.4,538.7,1138.8,538.7z M1152.5,490.6h-4.2v-11.8&#10;&#9;h4.2V490.6z M1159.1,490.6h-4.2v-11.8h4.2V490.6z M1165.7,490.6h-4.2v-11.8h4.2V490.6z M1172.3,490.6h-4.2v-11.8h4.2V490.6z&#10;&#9; M1178.8,490.6h-4.2v-11.8h4.2V490.6z" style="fill: rgb(23, 162, 184);" transform="matrix(1, 0, 0, 1, -219.86282348632824, 38.38877449624374)"/>





</svg>