<?xml version="1.0" encoding="utf-8"?>
<svg id="master-artboard" viewBox="0 0 219.44825744628906 305.7366638183594" version="1.1" xmlns="http://www.w3.org/2000/svg" x="0px" y="0px" style="enable-background:new 0 0 1096 780;" width="219.44825744628906px" height="305.7366638183594px"><rect id="ee-background" x="0" y="0" width="219.44825744628906" height="305.7366638183594" style="fill: white; fill-opacity: 0; pointer-events: none;"/>

<g transform="matrix(1, 0, 0, 1, -429.2790184020996, -420.2821464538574)">
		<path class="st0" d="M467.8,185c-2.7-6.3-10.6-21.5-26.6-27.8c-20.4-8-29.8,16.7-21.1,25.4c8.7,8.7,14.5,13.1,4.4,26.9&#10;&#9;&#9;&#9;c-10.2,13.8-12.4,31.3,0.7,36.3c12.1,4.7,33.4-5.5,40.1-22.5c-0.6-0.3-1.1-0.5-1.6-0.8C455.1,218.3,459.3,188.6,467.8,185z" style="fill: rgb(230, 231, 232);"/>
		<path class="st0" d="M483.3,232.2c-4.7,4.9-12.9,15-10.8,22.5c2.9,10.2,30.5,17.4,40.7,0.7C505.1,245.3,493.5,237.7,483.3,232.2z" style="fill: rgb(230, 231, 232);"/>
		<path class="st0" d="M511.5,159.3c0.2-0.2,0.4-0.3,0.6-0.5c0.5-0.4,1-0.8,1.5-1.2c0.2-0.2,0.4-0.3,0.6-0.5c0.7-0.5,1.4-1,2.1-1.6&#10;&#9;&#9;&#9;c0.1-0.1,0.2-0.1,0.3-0.2c0.6-0.5,1.3-0.9,1.9-1.4c0.3-0.2,0.5-0.4,0.8-0.5c0.5-0.3,1-0.7,1.6-1c0.3-0.2,0.6-0.4,0.8-0.5&#10;&#9;&#9;&#9;c0.8-0.5,1.5-1,2.3-1.4c0.3-0.2,0.5-0.3,0.8-0.5c0.6-0.3,1.1-0.7,1.7-1c0.4-0.2,0.7-0.4,1.1-0.6c0.5-0.3,1-0.5,1.5-0.8&#10;&#9;&#9;&#9;c0.4-0.2,0.8-0.4,1.2-0.6c0.7-0.4,1.3-0.7,2-1.1c0.5-0.3,1.1-0.6,1.6-0.8c0.4-0.2,0.9-0.4,1.3-0.7c0.5-0.2,1-0.5,1.5-0.7&#10;&#9;&#9;&#9;c0.4-0.2,0.8-0.4,1.2-0.6c0.5-0.2,1.1-0.5,1.6-0.7c0.3-0.1,0.5-0.2,0.8-0.3c1.1-0.5,2.2-0.9,3.4-1.4c0.3-0.1,0.7-0.3,1-0.4&#10;&#9;&#9;&#9;c0.6-0.2,1.2-0.5,1.8-0.7c0.3-0.1,0.6-0.2,0.9-0.3c2.1-0.8,4.3-1.5,6.5-2.2c0.3-0.1,0.5-0.2,0.8-0.2c0.7-0.2,1.4-0.4,2.1-0.6&#10;&#9;&#9;&#9;c0.2-0.1,0.5-0.1,0.7-0.2c2.3-0.6,4.6-1.2,7-1.6c0.2,0,0.5-0.1,0.7-0.1c0.8-0.1,1.5-0.3,2.3-0.4c0.2,0,0.4-0.1,0.6-0.1&#10;&#9;&#9;&#9;c1.1-0.2,2.2-0.3,3.2-0.5c-7.5-11.4-21.2-28.6-33.5-26.2c-18.2,3.6-20.4,22.5-21.8,26.2c-1.5,3.6-14.5-5.8-21.1,1.5&#10;&#9;&#9;&#9;c-6.5,7.3-2.2,19.6-0.7,21.8c1.5,2.2-10.9-5.1-12.4,5.8c-0.8,5.9-0.3,11.8,2.4,16.2c6.3-3.3,14.3-8.5,25.2-17.6&#10;&#9;&#9;&#9;C510.2,160.3,510.8,159.8,511.5,159.3z" style="fill: rgb(230, 231, 232);"/>
		<path class="st0" d="M852.3,562.8c-1.3-9.4-86.4-49.9-71.5-70.2c0,0-14.6,14.3,5,34.6c13.4,13.9,41.9,35,58.5,47&#10;&#9;&#9;&#9;C849.3,569.2,852.7,565.1,852.3,562.8z" style="fill: rgb(230, 231, 232);"/>
		<path class="st0" d="M999.4,662.6c-21.6,10.8-72.9-49.9-89-54c-16.2-4-81,39.1-98.5,20.2c-2.5-2.7-3.5-5.8-3.2-9.2&#10;&#9;&#9;&#9;c-1.5,3-5.8,13.7,4.1,21.7c11.6,9.5,78.2-11,91.6-16.7c5.1-2.2,31.3,23.3,51.6,40c20.1,16.5,55.2,16.7,49.6-12.8&#10;&#9;&#9;&#9;C1005.3,656.8,1003.5,660.6,999.4,662.6z" style="fill: rgb(230, 231, 232);"/>
		<path class="st0" d="M1062.8,538.9c0-0.1-0.3-0.2-0.8-0.4c0.6,1.2,0.9,2.6,0.8,4c-1.3,24.3-72.9,27-78.3,37.8&#10;&#9;&#9;&#9;c-1.2,2.4-0.1,7.3,2.2,13.6c17.7-5.7,61-19.9,67.3-24.5C1062.1,563.6,1063.5,541.8,1062.8,538.9z" style="fill: rgb(230, 231, 232);"/>
		<path class="st0" d="M544,611c-5.3-1.9-8.3-7.6-14.8-12.6c-3.1-2.4-4.9-2.8-6.5-2.3c0.9,13.8,1.3,34.7-2.3,54.5&#10;&#9;&#9;&#9;c0.1,20.2-1.4,38.6-6.5,45.9c-13.5,19.2,22.5,37.8,30.1-6.6c-0.2-0.9-0.3-1.8-0.4-2.8C540.1,662,541.7,632.9,544,611z" style="fill: rgb(230, 231, 232);"/>
		<path class="st0" d="M565.1,599.9c-2.7,3.1-4.7,8.8-11.9,11c-3.9,1.1-6.8,1.1-9.2,0.2c-2.3,21.9-3.9,50.9-0.4,76.1&#10;&#9;&#9;&#9;c0.1,1,0.3,1.9,0.4,2.8c7.6,44.4,43.6,25.9,30.1,6.6c-5.1-7.3-6.6-25.7-6.5-45.9C564.3,632.6,564.4,613.6,565.1,599.9z" style="fill: rgb(230, 231, 232);"/>
		<path class="st0" d="M522.7,596.2c-3.2,1.1-5.3,6.4-14.6,7.4c-10.6,1.1-8.4-2-10.4-6.9c-0.5,5.1-1.3,11.1-2.6,17.3&#10;&#9;&#9;&#9;c-0.9,17-4.3,36.3-13.9,49.9c-21.1,29.8,22.5,41.4,34.9,4.4c1.9-5.6,3.3-11.5,4.4-17.6C523.9,630.9,523.6,610,522.7,596.2z" style="fill: rgb(230, 231, 232);"/>
		<path class="st0" d="M574.2,599.9c-4.9-3-7.2-2.3-9.2-0.1c-0.7,13.7-0.7,32.7,2.5,50.8c1.1,6,2.5,11.9,4.4,17.6&#10;&#9;&#9;&#9;c12.4,37.1,56,25.4,34.9-4.4c-9.6-13.6-13-32.9-13.9-49.9c-0.5-2.5-1-5-1.3-7.3C586.9,606.9,581.4,604.4,574.2,599.9z" style="fill: rgb(230, 231, 232);"/>
		<path class="st0" d="M494.3,592c-7.7-7-5.9,8.4-19.7,3.4c-2.3,7.4-7.9,17.5-21.7,25.6c-24.7,14.5,0.7,50.9,23.3,32&#10;&#9;&#9;&#9;c10.4-8.7,16-24.5,19-39c1.3-6.2,2.1-12.2,2.6-17.3C497.1,595.3,496.1,593.6,494.3,592z" style="fill: rgb(230, 231, 232);"/>
		<path class="st0" d="M599.7,602.9c-2.5,2.5-5.2,3.7-8.1,3.9c0.4,2.4,0.8,4.8,1.3,7.3c3,14.5,8.6,30.3,19,39&#10;&#9;&#9;&#9;c22.5,18.9,48-17.4,23.3-32c-13-7.7-18.8-17.2-21.3-24.4c-0.1-0.1-0.2-0.2-0.3-0.3C609.1,592,606.2,596.3,599.7,602.9z" style="fill: rgb(230, 231, 232);"/>
		<path class="st0" d="M473.4,572.8c-4.6,6.1-11.1,17.4-0.2,22.1c0.5,0.2,0.9,0.4,1.4,0.5c13.8,5,12-10.5,19.7-3.4&#10;&#9;&#9;&#9;c1.9,1.7,2.9,3.3,3.5,4.8c2,4.8-0.2,8,10.4,6.9c9.3-1,11.4-6.3,14.6-7.4c1.6-0.5,3.4-0.1,6.5,2.3c6.5,5,9.5,10.7,14.8,12.6&#10;&#9;&#9;&#9;c2.4,0.9,5.3,1,9.2-0.2c7.2-2.1,9.2-7.9,11.9-11c2-2.2,4.3-3,9.2,0.1c7.1,4.5,12.6,7,17.3,6.8c3-0.1,5.6-1.3,8.1-3.9&#10;&#9;&#9;&#9;c6.5-6.5,9.5-10.9,13.8-6.5c0.1,0.1,0.2,0.2,0.3,0.3c4.5,3.7,13.5-2.7,13.5-11.9c0-3.7-1.8-8.4-4-12.8&#10;&#9;&#9;&#9;C589.5,585.8,513.5,588.8,473.4,572.8z" style="fill: rgb(230, 231, 232);"/>
		<path class="st0" d="M986.8,165.5c-3.9-1.5-7.5-3.6-10.7-6.1c-5.9,4.4-16.9,11.6-33.4,18.6c10.3,2.4,19.5,6,26.8,11.3&#10;&#9;&#9;&#9;C976.7,181.9,984,172.6,986.8,165.5z" style="fill: rgb(230, 231, 232);"/>
		<path class="st0" d="M153.2,208c5.7-14.7,47.9-28.3,72.5-32.3c26.7-4.4,66.4-15,81.9-26.2c5.1-3.7,7.2-7,7.6-9.8&#10;&#9;&#9;&#9;c-1.4,1.4-4.2,0.9-8.1-2.8c-8.2-7.8-14.5-7.8-20.8-2.9c-6.3,4.8-15.5-4.4-20.4-2.9c-4.8,1.5-3.9,7.3-11.1,8.2&#10;&#9;&#9;&#9;c-7.3,1-20.8-9.7-27.6-4.4c-6.8,5.3-3.9,15-16.5,17c-12.6,1.9-29.6-13.6-35.4-3.9c-5.8,9.7,1.5,12.1-7.3,16&#10;&#9;&#9;&#9;c-8.7,3.9-26.2-2.4-32-1c-5.8,1.5-2.9,10.2-12.1,15.5c-9.2,5.3-22.3-1-25.7,3.4c-3.4,4.4,0,10.7-7.3,14.1&#10;&#9;&#9;&#9;c-7.3,3.4-19.9-3.9-22.8,2.9c-2.7,6.3-2.1,14.2-9.3,15.4c7.3,5.3,23.9,1.8,34-0.8c6.1-1.6,9.4,0.9,11.2,3.4&#10;&#9;&#9;&#9;C114.7,209.8,136.7,204.5,153.2,208z" style="fill: rgb(230, 231, 232);"/>
		<path class="st0" d="M92.4,235.7c11.1,5.8,5.3,20.8,17.4,19.9c12.1-1,12.6-8.7,23.3-5.8c10.7,2.9,8.7,12.1,20.4,10.2&#10;&#9;&#9;&#9;c4.4-0.7,7-2.2,9.3-3.7c-4.9-7.1-7.8-15.6-7.8-24.9c0-7.7,2-15,5.5-21.3c-0.6-0.2-1.1-0.4-1.7-0.6c-1.8-0.7-3.7-1.2-5.6-1.6&#10;&#9;&#9;&#9;c-16.5-3.4-38.5,1.8-49.1,8.9c-1.9,1.2-3.4,2.5-4.4,3.8c-4.7,5.9-11.4,10.5-15.9,13.3C86.5,233.7,89.4,234.1,92.4,235.7z" style="fill: rgb(230, 231, 232);"/>
		<path class="st0" d="M236.5,252.9c4,1.9,7.9,3.1,13.4,1.3c11.6-3.9,8.2-16,19.4-16c11.1,0,16.5,11.1,26.7,2.9&#10;&#9;&#9;&#9;c10.2-8.2,7.8-15.5,16-18.4c3.9-1.4,8.4-1.2,12-0.2c-7.7-7.5-31.2-9.5-50.3-9c-7.5,0.2-20.4,0.6-35,0.8c2.2,5.3,3.5,11,3.5,17.1&#10;&#9;&#9;&#9;C242.2,239.2,240.1,246.5,236.5,252.9z" style="fill: rgb(230, 231, 232);"/>
		<path class="st0" d="M162.8,256.3c3.6-2.4,6.2-5,14-5c12.6,0,11.6,10.2,23.7,6.3c12.1-3.9,7.3-11.1,20.4-10.2&#10;&#9;&#9;&#9;c6.8,0.5,11.3,3.4,15.7,5.5c3.6-6.3,5.7-13.7,5.7-21.5c0-6.1-1.2-11.9-3.5-17.1c-6.7-15.6-22.1-26.5-40.1-26.5&#10;&#9;&#9;&#9;c-16.4,0-30.6,9-38.1,22.4c-3.5,6.3-5.5,13.5-5.5,21.3C155,240.6,157.9,249.2,162.8,256.3z M202.9,232.3c-2.9,0-5.3-2.4-5.3-5.3&#10;&#9;&#9;&#9;c0-2.9,2.4-5.3,5.3-5.3c2.9,0,5.3,2.4,5.3,5.3C208.3,230,205.9,232.3,202.9,232.3z M213.1,197c6.2,0,11.1,5,11.1,11.1&#10;&#9;&#9;&#9;c0,6.2-5,11.1-11.1,11.1c-6.2,0-11.1-5-11.1-11.1C202,202,207,197,213.1,197z" style="fill: rgb(230, 231, 232);"/>
		<path class="st0" d="M84.7,183.9c5.3-7.8-2.9-9.2,5.8-14.5c8.7-5.3,19.9,5.8,26.7-1.9c6.8-7.8,1.5-14.5,11.1-19.4&#10;&#9;&#9;&#9;c9.7-4.8,22.3,11.6,30,3.9c7.8-7.8,2.4-15.5,13.1-19.9c10.7-4.4,22.3,11.6,32.5,4.8c10.2-6.8,6.8-11.6,17.9-16&#10;&#9;&#9;&#9;c11.1-4.4,23.7,6.8,31,4.4c7.3-2.4,5.8-8.7,14.5-8.2c8.7,0.5,12.1,10.2,22.3,7.3c6.3-1.8,12.3-2.3,17.1-0.4&#10;&#9;&#9;&#9;c-21-31.9-64.6-23.3-64.6-23.3C218.5,90.3,200,101,200,101c-37.8-7.3-49.9,12.1-49.9,12.1c-29.1-3.9-33.4,18.9-33.4,18.9&#10;&#9;&#9;&#9;c-37.3,3.9-33,27.1-33,27.1C50.4,171,51.6,193,54,202.7c1.4-5.4,4.3-11.4,7.4-15C68.2,180,79.4,191.6,84.7,183.9z" style="fill: rgb(230, 231, 232);"/>
		<path class="st0" d="M309.1,237.7c-4.4,10.7,0.5,17.4-14.5,19.9c-15,2.4-16-7.3-23.7-3.4c-7.8,3.9-7.8,13.1-19.4,18.9&#10;&#9;&#9;&#9;c-11.6,5.8-19.9-14.5-32.5-10.2c-12.6,4.4-4.8,12.6-19.4,14.5c-14.5,1.9-16.5-13.1-26.7-11.1c-10.2,1.9-10.2,14.1-22.8,15&#10;&#9;&#9;&#9;c-12.6,1-12.6-17-21.8-17c-9.2,0-17.9,3.4-28.1,1.9c-10.2-1.5-7.3-17.4-14.5-19.4c-3.6-1-7.7-0.4-10.8-0.2&#10;&#9;&#9;&#9;c1.9,8.1,11.5,42.4,35,39c0,0,10.7,11.6,35.9,5.3c0,0,14.5,28.6,45.6,7.8c0,0,23.3,17.9,46.5-1.5c0,0,27.6,6.3,44.1-12.1&#10;&#9;&#9;&#9;c0,0,49.8-13.3,47.6-54.8C325.9,232.8,312.9,228.2,309.1,237.7z" style="fill: rgb(230, 231, 232);"/>
		<path class="st0" d="M68.2,198.9c2.9-6.8,15.5,0.5,22.8-2.9c7.3-3.4,3.9-9.7,7.3-14.1c3.4-4.4,16.5,1.9,25.7-3.4&#10;&#9;&#9;&#9;c9.2-5.3,6.3-14.1,12.1-15.5c5.8-1.5,23.3,4.8,32,1c8.7-3.9,1.5-6.3,7.3-16c5.8-9.7,22.8,5.8,35.4,3.9c12.6-1.9,9.7-11.6,16.5-17&#10;&#9;&#9;&#9;c6.8-5.3,20.4,5.3,27.6,4.4c7.3-1,6.3-6.8,11.1-8.2c4.8-1.5,14.1,7.8,20.4,2.9c6.3-4.8,12.6-4.8,20.8,2.9c3.9,3.7,6.8,4.2,8.1,2.8&#10;&#9;&#9;&#9;c1.5-1.5,1.2-5.3-1.3-9.6c-1.8-3.1-4.3-5.1-7.2-6.2c-4.8-1.9-10.7-1.4-17.1,0.4c-10.2,2.9-13.6-6.8-22.3-7.3&#10;&#9;&#9;&#9;c-8.7-0.5-7.3,5.8-14.5,8.2c-7.3,2.4-19.9-8.7-31-4.4c-11.1,4.4-7.8,9.2-17.9,16c-10.2,6.8-21.8-9.2-32.5-4.8&#10;&#9;&#9;&#9;c-10.7,4.4-5.3,12.1-13.1,19.9c-7.8,7.8-20.4-8.7-30-3.9c-9.7,4.8-4.4,11.6-11.1,19.4c-6.8,7.8-17.9-3.4-26.7,1.9&#10;&#9;&#9;&#9;c-8.7,5.3-0.5,6.8-5.8,14.5c-5.3,7.8-16.5-3.9-23.3,3.9c-3.1,3.6-6,9.6-7.4,15c-1.6,6.2-1.2,11.7,3.1,11.7c0.7,0,1.3-0.1,1.9-0.1&#10;&#9;&#9;&#9;C66.1,213.1,65.5,205.2,68.2,198.9z" style="fill: rgb(230, 231, 232);"/>
		<path class="st0" d="M324,222.5c-3.6-1.1-8.1-1.2-12,0.2c-8.2,2.9-5.8,10.2-16,18.4c-10.2,8.2-15.5-2.9-26.7-2.9&#10;&#9;&#9;&#9;c-11.1,0-7.8,12.1-19.4,16c-5.5,1.8-9.4,0.6-13.4-1.3c-4.4-2.1-8.8-5-15.7-5.5c-13.1-1-8.2,6.3-20.4,10.2&#10;&#9;&#9;&#9;c-12.1,3.9-11.1-6.3-23.7-6.3c-7.8,0-10.4,2.6-14,5c-2.2,1.5-4.8,3-9.3,3.7c-11.6,1.9-9.7-7.3-20.4-10.2&#10;&#9;&#9;&#9;c-10.7-2.9-11.1,4.8-23.3,5.8c-12.1,1-6.3-14.1-17.4-19.9c-3.1-1.6-6-2-8.7-1.7c-7.1,0.7-12.4,6.6-13.1,9.5&#10;&#9;&#9;&#9;c-0.7,2.9,1.2,3.3,4.3,3.1c3-0.1,7.1-0.7,10.8,0.2c7.3,1.9,4.4,17.9,14.5,19.4c10.2,1.5,18.9-1.9,28.1-1.9c9.2,0,9.2,17.9,21.8,17&#10;&#9;&#9;&#9;c12.6-1,12.6-13.1,22.8-15c10.2-1.9,12.1,13.1,26.7,11.1c14.5-1.9,6.8-10.2,19.4-14.5c12.6-4.4,20.8,16,32.5,10.2&#10;&#9;&#9;&#9;c11.6-5.8,11.6-15,19.4-18.9c7.8-3.9,8.7,5.8,23.7,3.4c15-2.4,10.2-9.2,14.5-19.9c3.9-9.4,16.9-4.8,20.4-7.4&#10;&#9;&#9;&#9;c0.5-0.3,0.8-0.8,0.9-1.4C330.9,226.1,328,223.7,324,222.5z" style="fill: rgb(230, 231, 232);"/>
		<path d="M 224.200006 208.100006 A 11.1 11.1 0 0 1 213.100006 219.200006 A 11.1 11.1 0 0 1 202.000006 208.100006 A 11.1 11.1 0 0 1 213.100006 197.000006 A 11.1 11.1 0 0 1 224.200006 208.100006 Z" class="st0" style="fill: rgb(230, 231, 232);"/>
		<path d="M 208.199994 227 A 5.3 5.3 0 0 1 202.899994 232.3 A 5.3 5.3 0 0 1 197.599994 227 A 5.3 5.3 0 0 1 202.899994 221.7 A 5.3 5.3 0 0 1 208.199994 227 Z" class="st0" style="fill: rgb(230, 231, 232);"/>
		<path class="st0" d="M1002.5,168.4c24.7,0,48.9-38.6,25.2-78c-4.4-7.3-17,33-25.2,33c-8.2,0,3.9-36.3-1.9-41.2&#10;&#9;&#9;&#9;c-7.8-6.5-34.9,17.4-38.8,41.7c-2.3,14.4,3.8,27.4,14.3,35.6c3.2,2.5,6.8,4.5,10.7,6.1C991.6,167.3,996.9,168.4,1002.5,168.4z" style="fill: rgb(230, 231, 232);"/>
		<path class="st0" d="M1002.5,209.6c6.3-1,19.9,24.7,22.8,12.1c2.9-12.6-7.3-43.6-23.3-37.8c-8.1,3-16.3,9.7-22.3,15.6&#10;&#9;&#9;&#9;c4.5,6.4,7.2,14.2,7.7,23.8C993,218.5,997.7,210.3,1002.5,209.6z" style="fill: rgb(230, 231, 232);"/>
		<path class="st0" d="M999.6,255.6c5.3-0.5,18.9,28.1,22.8,23.7c3.9-4.4,5.8-18.4,3.4-26.7c-2.4-8.2-6.8-21.3-16-23.3&#10;&#9;&#9;&#9;c-5.7-1.2-15.6-0.9-22.3-0.5c-0.3,9.6-2.4,17.6-5.9,24.3C986.7,255,995.6,256,999.6,255.6z" style="fill: rgb(230, 231, 232);"/>
		<path class="st0" d="M956.3,275.3c3.1,4.4,7.8,8.3,10.8,9.4c5.3,1.9-3.9,22.3,0.5,22.3c4.4,0,18.4-7.8,20.8-22.8&#10;&#9;&#9;&#9;c1.7-10.7-5.7-20.9-10.1-25.9C973,265.8,965.4,271.3,956.3,275.3z" style="fill: rgb(230, 231, 232);"/>
		<path class="st0" d="M937.3,154.9c-0.6,0.1-1.1,0.1-1.7,0.1c-3.3,0-6.2-1.1-8.7-2.9c-1.7,4.7-6.4,17.2-9.1,22.3&#10;&#9;&#9;&#9;c5.9,0.4,11.6,1.1,17,2C937,169.6,938.2,160.6,937.3,154.9z" style="fill: rgb(230, 231, 232);"/>
		<path class="st0" d="M937.3,154.9c7.2-0.8,12.9-7,12.9-14.4c0-8-6.5-14.5-14.5-14.5c-8,0-14.5,6.5-14.5,14.5c0,4.8,2.3,9,5.9,11.7&#10;&#9;&#9;&#9;c2.4,1.8,5.4,2.9,8.7,2.9C936.2,155,936.7,155,937.3,154.9z M935.6,131c5.2,0,9.5,4.2,9.5,9.5c0,5.2-4.2,9.5-9.5,9.5&#10;&#9;&#9;&#9;c-5.2,0-9.5-4.2-9.5-9.5C926.2,135.3,930.4,131,935.6,131z" style="fill: rgb(230, 231, 232);"/>
		<path class="st0" d="M935.6,149.9c5.2,0,9.5-4.2,9.5-9.5c0-5.2-4.2-9.5-9.5-9.5c-5.2,0-9.5,4.2-9.5,9.5&#10;&#9;&#9;&#9;C926.2,145.7,930.4,149.9,935.6,149.9z M935.6,136.9c2,0,3.6,1.6,3.6,3.6c0,2-1.6,3.6-3.6,3.6c-2,0-3.6-1.6-3.6-3.6&#10;&#9;&#9;&#9;C932,138.5,933.6,136.9,935.6,136.9z" style="fill: rgb(230, 231, 232);"/>
		<path d="M 939.199975 140.5 A 3.6 3.6 0 0 1 935.599976 144.1 A 3.6 3.6 0 0 1 931.999976 140.5 A 3.6 3.6 0 0 1 935.599976 136.9 A 3.6 3.6 0 0 1 939.199975 140.5 Z" class="st0" style="fill: rgb(230, 231, 232);"/>
		<path class="st0" d="M838.7,193c6.6-5.9,14.9-10.8,25-14.2c-17.7-7.3-29.4-14.9-35.5-19.5c-3.2,2.5-6.8,4.5-10.7,6.1&#10;&#9;&#9;&#9;C820.8,173.8,830.4,185.4,838.7,193z" style="fill: rgb(230, 231, 232);"/>
		<path class="st0" d="M801.8,168.4c5.5,0,10.8-1,15.7-2.9c3.9-1.5,7.5-3.6,10.7-6.1c10.5-8.2,16.6-21.2,14.3-35.6&#10;&#9;&#9;&#9;c-3.9-24.2-31-48.2-38.8-41.7c-5.8,4.8,6.3,41.2-1.9,41.2c-8.2,0-20.8-40.2-25.2-33C753,129.8,777.1,168.4,801.8,168.4z" style="fill: rgb(230, 231, 232);"/>
		<path class="st0" d="M802.3,183.9c-16-5.8-26.2,25.2-23.3,37.8c2.9,12.6,16.5-13.1,22.8-12.1c5.6,0.9,11.2,12.1,18.2,15.9&#10;&#9;&#9;&#9;c1.6-7.5,4.5-14.8,9.1-21.4C823.1,197.5,812.7,187.6,802.3,183.9z" style="fill: rgb(230, 231, 232);"/>
		<path class="st0" d="M819.4,229.1c-6.6-0.4-18.4-1-24.8,0.4c-9.2,1.9-13.6,15-16,23.3c-2.4,8.2-0.5,22.3,3.4,26.7&#10;&#9;&#9;&#9;c3.9,4.4,17.4-24.2,22.8-23.7c3.5,0.3,10.8-0.4,16.1-1.8c-0.7-2-1.2-4.2-1.6-6.4C818.4,241.3,818.4,235.2,819.4,229.1z" style="fill: rgb(230, 231, 232);"/>
		<path class="st0" d="M824.1,260.5c-4.3,5.5-9.7,14.4-8.2,23.7c2.4,15,16.5,22.8,20.8,22.8c4.4,0-4.8-20.4,0.5-22.3&#10;&#9;&#9;&#9;c2.6-1,6.4-4,9.4-7.7C836.9,273.3,828.9,268,824.1,260.5z" style="fill: rgb(230, 231, 232);"/>
		<path class="st0" d="M877.4,152.2c-2.4,1.8-5.4,2.9-8.7,2.9c-0.6,0-1.1,0-1.7-0.1c-0.9,5.8,0.4,15.3,2.6,22.2&#10;&#9;&#9;&#9;c5.2-1.3,10.7-2.3,16.7-2.9C883.7,169.1,879.1,156.8,877.4,152.2z" style="fill: rgb(230, 231, 232);"/>
		<path class="st0" d="M877.4,152.2c3.6-2.7,5.9-6.9,5.9-11.7c0-8-6.5-14.5-14.5-14.5c-8,0-14.5,6.5-14.5,14.5&#10;&#9;&#9;&#9;c0,7.5,5.6,13.6,12.9,14.4c0.6,0.1,1.1,0.1,1.7,0.1C872,155,875,154,877.4,152.2z M859.3,140.5c0-5.2,4.2-9.5,9.5-9.5&#10;&#9;&#9;&#9;s9.5,4.2,9.5,9.5c0,5.2-4.2,9.5-9.5,9.5S859.3,145.7,859.3,140.5z" style="fill: rgb(230, 231, 232);"/>
		<path class="st0" d="M878.2,140.5c0-5.2-4.2-9.5-9.5-9.5s-9.5,4.2-9.5,9.5c0,5.2,4.2,9.5,9.5,9.5S878.2,145.7,878.2,140.5z&#10;&#9;&#9;&#9; M865.1,140.5c0-2,1.6-3.6,3.6-3.6c2,0,3.6,1.6,3.6,3.6c0,2-1.6,3.6-3.6,3.6C866.7,144.1,865.1,142.5,865.1,140.5z" style="fill: rgb(230, 231, 232);"/>
		<path d="M 872.300012 140.5 A 3.6 3.6 0 0 1 868.700012 144.1 A 3.6 3.6 0 0 1 865.100012 140.5 A 3.6 3.6 0 0 1 868.700012 136.9 A 3.6 3.6 0 0 1 872.300012 140.5 Z" class="st0" style="fill: rgb(230, 231, 232);"/>
		<path class="st0" d="M829.1,204c-4.5,6.6-7.5,13.9-9.1,21.4c-0.3,1.2-0.5,2.4-0.6,3.6c-0.9,6.1-0.9,12.3-0.1,18.3&#10;&#9;&#9;&#9;c0.3,2.3,0.8,4.4,1.6,6.4c0.8,2.4,1.9,4.6,3.3,6.7c4.9,7.5,12.8,12.9,22.6,16.5c19.3,7.3,45.5,8.1,68.6,6.7&#10;&#9;&#9;&#9;c15.4-0.9,29.5-3.4,41.1-8.4c9.1-3.9,16.7-9.5,22.1-17c1.1-1.6,2.2-3.3,3.1-5c3.5-6.7,5.6-14.7,5.9-24.3c0-1.1,0.1-2.2,0-3.3&#10;&#9;&#9;&#9;c0-0.8,0-1.5-0.1-2.3c-0.5-9.6-3.2-17.5-7.7-23.8c-2.8-3.9-6.2-7.3-10.2-10.2c-7.3-5.3-16.5-8.9-26.8-11.3&#10;&#9;&#9;&#9;c-2.5-0.6-5.1-1.1-7.8-1.6c-5.5-0.9-11.2-1.6-17-2c-5.8-0.4-11.7-0.7-17.6-0.7c-4.9-0.1-9.5,0.1-13.8,0.5&#10;&#9;&#9;&#9;c-6,0.6-11.6,1.5-16.7,2.9c-2,0.5-4,1.1-5.9,1.8c-10.1,3.4-18.4,8.3-25,14.2C834.9,196.4,831.7,200.1,829.1,204z M968.3,211.7&#10;&#9;&#9;&#9;c4,0,7.3,3.3,7.3,7.3c0,4-3.3,7.3-7.3,7.3c-4,0-7.3-3.3-7.3-7.3C961.1,215,964.3,211.7,968.3,211.7z M959.6,203.7&#10;&#9;&#9;&#9;c0,8.8-7.2,16-16,16s-16-7.2-16-16c0-8.8,7.2-16,16-16S959.6,194.9,959.6,203.7z" style="fill: rgb(230, 231, 232);"/>
		<path class="st0" d="M548.1,425.5c-72.1,3.7-106.1,74.9-100.3,122.1c1.4,11.1,11.2,19.4,25.7,25.2c40.1,16,116.2,13,149.9-0.9&#10;&#9;&#9;&#9;c5.9-2.4,10.5-5.2,13.4-8.3C662.2,536.7,632.4,421.1,548.1,425.5z M605.5,475.6c4,0,7.3,3.3,7.3,7.3c0,4-3.3,7.3-7.3,7.3&#10;&#9;&#9;&#9;c-4,0-7.3-3.3-7.3-7.3C598.2,478.9,601.5,475.6,605.5,475.6z M578.6,448c9.6,0,17.4,7.8,17.4,17.4c0,9.6-7.8,17.4-17.4,17.4&#10;&#9;&#9;&#9;c-9.6,0-17.4-7.8-17.4-17.4C561.1,455.8,569,448,578.6,448z" style="fill: rgb(230, 231, 232);"/>
		<path d="M 959.599976 203.699997 A 16 16 0 0 1 943.599976 219.699997 A 16 16 0 0 1 927.599976 203.699997 A 16 16 0 0 1 943.599976 187.699997 A 16 16 0 0 1 959.599976 203.699997 Z" class="st0" style="fill: rgb(230, 231, 232);"/>
		<path d="M 975.599988 219 A 7.3 7.3 0 0 1 968.299988 226.3 A 7.3 7.3 0 0 1 960.999988 219 A 7.3 7.3 0 0 1 968.299988 211.7 A 7.3 7.3 0 0 1 975.599988 219 Z" class="st0" style="fill: rgb(230, 231, 232);"/>
		<path d="M 595.999975 465.5 A 17.4 17.4 0 0 1 578.599976 482.9 A 17.4 17.4 0 0 1 561.199976 465.5 A 17.4 17.4 0 0 1 578.599976 448.1 A 17.4 17.4 0 0 1 595.999975 465.5 Z" class="st0" style="fill: rgb(230, 231, 232);"/>
		<path d="M 612.8 482.899994 A 7.3 7.3 0 0 1 605.5 490.199994 A 7.3 7.3 0 0 1 598.2 482.899994 A 7.3 7.3 0 0 1 605.5 475.599994 A 7.3 7.3 0 0 1 612.8 482.899994 Z" class="st0" style="fill: rgb(230, 231, 232);"/>
		<path class="st0" d="M984.6,580.3c5.4-10.8,76.9-13.5,78.3-37.8c0.1-1.4-0.2-2.8-0.8-4c-9.2-19.9-96.6-16.9-100.4-27&#10;&#9;&#9;&#9;c-4-10.8,1.3-64.8-25.6-72.9c-22.3-6.7-44.5,63.4-52.6,64.8c-8.1,1.3-87.7-31-102.5-10.8c-14.8,20.2,70.2,60.7,71.5,70.2&#10;&#9;&#9;&#9;c0.3,2.3-3,6.4-8,11.4c-12.3,12.5-34.6,31.2-35.7,45.5c-0.3,3.4,0.7,6.5,3.2,9.2c17.5,18.9,82.3-24.3,98.5-20.2&#10;&#9;&#9;&#9;c16.2,4,67.5,64.8,89,54c4.1-2,5.9-5.8,6.2-10.8c1-15.3-12.8-41.4-18.8-58C984.5,587.6,983.4,582.7,984.6,580.3z M998.1,546.9&#10;&#9;&#9;&#9;c-1.5,16.7-34.9,14.5-31.3-2.9C970.3,527.6,999.6,530.2,998.1,546.9z M1038,544.8c-1.1,12.4-25.9,10.8-23.2-2.2&#10;&#9;&#9;&#9;C1017.3,530.4,1039.1,532.3,1038,544.8z M1047.7,530.2c2.9,0,5.3,2.4,5.3,5.3c0,2.9-2.4,5.3-5.3,5.3s-5.3-2.4-5.3-5.3&#10;&#9;&#9;&#9;C1042.5,532.5,1044.8,530.2,1047.7,530.2z M939,444.4c2.9,0,5.3,2.4,5.3,5.3s-2.4,5.3-5.3,5.3c-2.9,0-5.3-2.4-5.3-5.3&#10;&#9;&#9;&#9;S936.1,444.4,939,444.4z M920.8,469.2c2.4-11.7,23.4-9.9,22.3,2.1C942,483.2,918.2,481.7,920.8,469.2z M912.3,500.7&#10;&#9;&#9;&#9;c3.4-16.4,32.7-13.8,31.3,2.9C942.1,520.4,908.7,518.2,912.3,500.7z M824.2,507c-1.1,12.4-25.9,10.8-23.2-2.2&#10;&#9;&#9;&#9;C803.6,492.6,825.3,494.5,824.2,507z M854.8,610.2c-1.1,12.4-25.9,10.8-23.2-2.2C834.1,595.8,855.9,597.8,854.8,610.2z&#10;&#9;&#9;&#9; M843.3,525.1c3.4-16.4,32.7-13.8,31.3,2.9C873.1,544.7,839.6,542.5,843.3,525.1z M895.6,582.5c-1.5,16.7-34.9,14.5-31.3-2.9&#10;&#9;&#9;&#9;C867.8,563.2,897.1,565.8,895.6,582.5z M894.9,539.6c6.4-21.6,62.5-19.6,56.7,11.6C945.8,582.5,885.4,571.6,894.9,539.6z&#10;&#9;&#9;&#9; M963.9,593.4c-1.5,16.7-34.9,14.5-31.3-2.9C936.1,574.1,965.4,576.7,963.9,593.4z M988.5,632c-1.1,12.4-25.9,10.8-23.2-2.2&#10;&#9;&#9;&#9;C967.9,617.6,989.6,619.6,988.5,632z" style="fill: rgb(230, 231, 232);"/>
		<path class="st0" d="M951.6,551.3c5.8-31.3-50.3-33.3-56.7-11.6C885.4,571.6,945.8,582.5,951.6,551.3z" style="fill: rgb(230, 231, 232);"/>
		<path class="st0" d="M943.6,503.6c1.5-16.7-27.8-19.3-31.3-2.9C908.7,518.2,942.1,520.4,943.6,503.6z" style="fill: rgb(230, 231, 232);"/>
		<path class="st0" d="M874.5,528c1.5-16.7-27.8-19.3-31.3-2.9C839.6,542.5,873.1,544.7,874.5,528z" style="fill: rgb(230, 231, 232);"/>
		<path class="st0" d="M864.4,579.6c-3.6,17.4,29.8,19.6,31.3,2.9C897.1,565.8,867.8,563.2,864.4,579.6z" style="fill: rgb(230, 231, 232);"/>
		<path class="st0" d="M932.7,590.5c-3.6,17.4,29.8,19.6,31.3,2.9C965.4,576.7,936.1,574.1,932.7,590.5z" style="fill: rgb(230, 231, 232);"/>
		<path class="st0" d="M966.9,544c-3.6,17.4,29.8,19.6,31.3,2.9C999.6,530.2,970.3,527.6,966.9,544z" style="fill: rgb(230, 231, 232);"/>
		<path class="st0" d="M831.6,608c-2.7,13,22.1,14.6,23.2,2.2C855.9,597.8,834.1,595.8,831.6,608z" style="fill: rgb(230, 231, 232);"/>
		<path class="st0" d="M965.3,629.8c-2.7,13,22.1,14.6,23.2,2.2C989.6,619.6,967.9,617.6,965.3,629.8z" style="fill: rgb(230, 231, 232);"/>
		<path class="st0" d="M1014.8,542.6c-2.7,13,22.1,14.6,23.2,2.2C1039.1,532.3,1017.3,530.4,1014.8,542.6z" style="fill: rgb(230, 231, 232);"/>
		<path class="st0" d="M801,504.8c-2.7,13,22.1,14.6,23.2,2.2C825.3,494.5,803.6,492.6,801,504.8z" style="fill: rgb(230, 231, 232);"/>
		<path class="st0" d="M943.1,471.3c1-11.9-19.9-13.8-22.3-2.1C918.2,481.7,942,483.2,943.1,471.3z" style="fill: rgb(230, 231, 232);"/>
		<path class="st0" d="M171.8,465c-86.1,27.7-86.1,111.8-66.3,149.4c19.8,37.6,116.7,70.2,143.4-19.8l0,0&#10;&#9;&#9;&#9;c-0.2-10.6-9.4-68.7-49.5-75.4s-74.2,25.2-65.3,58.6c8.9,33.4,50.4,32.6,54.2,10.4c3.7-22.3-5.2-28.9-18.5-22.3&#10;&#9;&#9;&#9;c-13.4,6.7,4.5,18.5-5.9,18.5c-4.7,0-8.4-4.4-9.8-9.7c-2.9-1-6.4-2.1-8.7-2.9c-4.5-1.5-12.6-2.2-4.5-6.7c4.8-2.6,9.8-0.9,13.2,1&#10;&#9;&#9;&#9;c1.1-3.8,3.7-7.3,8.4-9.1c4.3-1.7,8.8-2.9,13.2-3.2c-2.6-6.5-4.9-16.8,2.4-25c6.7-7.4,9.6-2.2,5.9,4.5c-2.4,4.3-0.8,14.7,0.7,21.6&#10;&#9;&#9;&#9;c5.3,1.7,10.1,5.7,13.5,12.9c6.3-5.2,19.4-14.3,31.8-12.2c17.1,3-4.5,8.2-10.4,9.6c-3.9,1-12.9,6.4-18.6,10.1&#10;&#9;&#9;&#9;c0,0.1,0.1,0.2,0.1,0.3c1.4,5.1,1.5,10,0.5,14.3c3.7,5.6,10.1,16,12.1,24.3c3,11.9-2.2,28.9-5.2,14.1c-2.1-10.7-8.1-23-11.3-29&#10;&#9;&#9;&#9;c-6.8,9.1-19.7,14.3-35.4,13.5c-2.4,5.8-7.3,16.9-12.6,22.2c-7.4,7.4-18.5,3.7-6.7-3.7c8.5-5.3,11.7-14.4,12.8-19.2&#10;&#9;&#9;&#9;c-0.3,0-0.6-0.1-0.9-0.1c-15.9-2.7-26.2-17.2-29.4-34.5c-5.3,2.8-15.2,8-17.3,8.5c-3,0.7-8.2-3-3.7-7.4c3.1-3.1,13.8-8,20-10.7&#10;&#9;&#9;&#9;c-0.5-13.1,2.8-26.8,10.5-37.5c1.8-2.5,3.8-4.8,6.1-6.9c-6.8-2.3-23.9-7.9-26.9-7.9c-3.7,0,3.7-9.6,12.6-5.2&#10;&#9;&#9;&#9;c6.2,3.1,14.3,7.3,18.6,9.6c7.2-5.3,16.1-9,25.6-10.8c-4.8-8.2-14.2-25.9-8.5-32.1c6.7-7.4,15.8,19.2,17.5,31&#10;&#9;&#9;&#9;c11.7-0.8,23.8,0.9,34.7,5.4c0.9-10.9,3.4-38.6,6.3-44.5c3.7-7.4,10.4-3.7,8.2,8.9c-1.6,9.3-5.7,29.1-7.7,38.8&#10;&#9;&#9;&#9;c5.3,2.9,10.1,6.5,14.4,10.9c4.6,4.8,8.5,10.1,11.6,15.6c5.9-1.5,17-6.1,26.2-20c13.4-20,19.3-14.1,16.3-4.5&#10;&#9;&#9;&#9;c-2.7,8.9-22.4,28.4-37.7,34.4c4.8,11.5,7.2,23,8.4,32.1c19-11.5,55.7-26.9,57.3-45.7C319.2,514.5,257.8,437.3,171.8,465z&#10;&#9;&#9;&#9; M260,502.4c-6.1,0-11.1-5-11.1-11.1c0-6.1,5-11.1,11.1-11.1c6.1,0,11.1,5,11.1,11.1C271,497.4,266.1,502.4,260,502.4z M279,503.1&#10;&#9;&#9;&#9;c-3.1,0-5.6-2.5-5.6-5.6c0-3.1,2.5-5.6,5.6-5.6s5.6,2.5,5.6,5.6C284.7,500.6,282.1,503.1,279,503.1z" style="fill: rgb(230, 231, 232);"/>
		<path class="st0" d="M250.7,591.8c0,0-0.1,0.1-0.1,0.1C250.6,591.9,250.7,591.8,250.7,591.8z" style="fill: rgb(230, 231, 232);"/>
		<path class="st0" d="M249.4,593.5c-0.1,0.1-0.1,0.2-0.2,0.3C249.3,593.7,249.4,593.6,249.4,593.5z" style="fill: rgb(230, 231, 232);"/>
		<path class="st0" d="M250.2,592.3c0,0.1-0.1,0.1-0.1,0.2C250.1,592.5,250.2,592.4,250.2,592.3z" style="fill: rgb(230, 231, 232);"/>
		<path class="st0" d="M249.8,592.9c-0.1,0.1-0.1,0.2-0.2,0.2C249.7,593.1,249.7,593,249.8,592.9z" style="fill: rgb(230, 231, 232);"/>
		<path class="st0" d="M249.1,594c-0.1,0.2-0.1,0.4-0.2,0.5C249,594.4,249.1,594.2,249.1,594z" style="fill: rgb(230, 231, 232);"/>
		<path class="st0" d="M251.2,591.3C251.2,591.2,251.2,591.2,251.2,591.3C251.2,591.2,251.2,591.2,251.2,591.3z" style="fill: rgb(230, 231, 232);"/>
		<path class="st0" d="M289.2,518.4c3-9.6-3-15.6-16.3,4.5c-9.3,13.9-20.4,18.5-26.2,20c-3.1-5.5-6.9-10.8-11.6-15.6&#10;&#9;&#9;&#9;c-4.2-4.4-9.1-8-14.4-10.9c2-9.7,6.1-29.5,7.7-38.8c2.2-12.6-4.5-16.3-8.2-8.9c-3,5.9-5.4,33.6-6.3,44.5&#10;&#9;&#9;&#9;c-10.9-4.5-23.1-6.2-34.7-5.4c-1.7-11.7-10.8-38.3-17.5-31c-5.6,6.2,3.7,24,8.5,32.1c-9.5,1.8-18.3,5.5-25.6,10.8&#10;&#9;&#9;&#9;c-4.3-2.2-12.3-6.5-18.6-9.6c-8.9-4.5-16.3,5.2-12.6,5.2c3,0,20,5.7,26.9,7.9c-2.3,2.1-4.3,4.4-6.1,6.9&#10;&#9;&#9;&#9;c-7.6,10.8-11,24.4-10.5,37.5c-6.2,2.7-16.9,7.6-20,10.7c-4.5,4.5,0.7,8.2,3.7,7.4c2.1-0.5,12-5.7,17.3-8.5&#10;&#9;&#9;&#9;c3.3,17.3,13.5,31.8,29.4,34.5c0.3,0.1,0.6,0.1,0.9,0.1c-1.1,4.8-4.3,13.8-12.8,19.2c-11.9,7.4-0.7,11.1,6.7,3.7&#10;&#9;&#9;&#9;c5.3-5.3,10.2-16.3,12.6-22.2c15.7,0.9,28.6-4.4,35.4-13.5c3.2,6,9.2,18.2,11.3,29c3,14.8,8.2-2.2,5.2-14.1&#10;&#9;&#9;&#9;c-2.1-8.3-8.5-18.7-12.1-24.3c1-4.4,0.9-9.2-0.5-14.3c0-0.1-0.1-0.2-0.1-0.3c5.7-3.6,14.7-9.1,18.6-10.1&#10;&#9;&#9;&#9;c5.9-1.5,27.4-6.7,10.4-9.6c-12.4-2.1-25.5,7-31.8,12.2c-3.5-7.2-8.2-11.2-13.5-12.9c-1.4-6.9-3-17.3-0.7-21.6&#10;&#9;&#9;&#9;c3.7-6.7,0.7-11.9-5.9-4.5c-7.4,8.2-5.1,18.5-2.4,25c-4.4,0.3-8.9,1.5-13.2,3.2c-4.7,1.9-7.3,5.3-8.4,9.1c-3.4-1.9-8.4-3.6-13.2-1&#10;&#9;&#9;&#9;c-8.2,4.5,0,5.2,4.5,6.7c2.3,0.8,5.9,2,8.7,2.9c1.4,5.3,5.1,9.7,9.8,9.7c10.4,0-7.4-11.9,5.9-18.5c13.4-6.7,22.3,0,18.5,22.3&#10;&#9;&#9;&#9;c-3.7,22.3-45.3,23-54.2-10.4c-8.9-33.4,25.2-65.3,65.3-58.6s49.2,64.8,49.5,75.4l0,0c0,0,0,0,0,0c0.1-0.2,0.1-0.4,0.2-0.5&#10;&#9;&#9;&#9;c0-0.1,0.1-0.2,0.1-0.2c0.1-0.1,0.1-0.2,0.2-0.3c0.1-0.1,0.1-0.2,0.2-0.3c0.1-0.1,0.1-0.2,0.2-0.2c0.1-0.1,0.2-0.3,0.3-0.4&#10;&#9;&#9;&#9;c0-0.1,0.1-0.1,0.1-0.2c0.1-0.2,0.3-0.3,0.4-0.5c0,0,0.1-0.1,0.1-0.1c0.2-0.2,0.3-0.3,0.5-0.5c0,0,0,0,0.1-0.1c2-2,5-4.1,8.7-6.3&#10;&#9;&#9;&#9;c0,0,0,0,0,0c-1.2-9.1-3.6-20.6-8.4-32.1C266.8,546.9,286.5,527.3,289.2,518.4z" style="fill: rgb(230, 231, 232);"/>
		<path d="M 944.3 449.700012 A 5.3 5.3 0 0 1 939 455.000012 A 5.3 5.3 0 0 1 933.7 449.700012 A 5.3 5.3 0 0 1 939 444.400012 A 5.3 5.3 0 0 1 944.3 449.700012 Z" class="st0" style="fill: rgb(230, 231, 232);"/>
		<path d="M 1052.999951 535.400024 A 5.3 5.3 0 0 1 1047.699951 540.700025 A 5.3 5.3 0 0 1 1042.399951 535.400024 A 5.3 5.3 0 0 1 1047.699951 530.100024 A 5.3 5.3 0 0 1 1052.999951 535.400024 Z" class="st0" style="fill: rgb(230, 231, 232);"/>
		<path d="M 271.1 491.299988 A 11.1 11.1 0 0 1 260 502.399988 A 11.1 11.1 0 0 1 248.9 491.299988 A 11.1 11.1 0 0 1 260 480.199987 A 11.1 11.1 0 0 1 271.1 491.299988 Z" class="st0" style="fill: rgb(230, 231, 232);"/>
		<path d="M 284.6 497.5 A 5.6 5.6 0 0 1 279 503.1 A 5.6 5.6 0 0 1 273.4 497.5 A 5.6 5.6 0 0 1 279 491.9 A 5.6 5.6 0 0 1 284.6 497.5 Z" class="st0" style="fill: rgb(230, 231, 232);"/>
		<path class="st0" d="M527.7,266.7c-0.2-0.1-0.5-0.3-0.7-0.4C527.2,266.4,527.5,266.5,527.7,266.7z" style="fill: rgb(230, 231, 232);"/>
		<path class="st0" d="M514.8,257.2c-0.1-0.1-0.2-0.2-0.3-0.3C514.6,257,514.7,257.1,514.8,257.2z" style="fill: rgb(230, 231, 232);"/>
		<path class="st0" d="M516.5,258.9c-0.1-0.1-0.2-0.2-0.3-0.2C516.3,258.7,516.4,258.8,516.5,258.9z" style="fill: rgb(230, 231, 232);"/>
		<path class="st0" d="M530.3,268c-0.3-0.2-0.6-0.3-0.9-0.5C529.7,267.7,530,267.8,530.3,268z" style="fill: rgb(230, 231, 232);"/>
		<path class="st0" d="M518.3,260.4c-0.1-0.1-0.2-0.2-0.4-0.3C518,260.2,518.1,260.3,518.3,260.4z" style="fill: rgb(230, 231, 232);"/>
		<path class="st0" d="M556.7,276.6c-2.1-0.4-4.1-0.9-6.1-1.4C552.6,275.8,554.7,276.2,556.7,276.6z" style="fill: rgb(230, 231, 232);"/>
		<path class="st0" d="M576.2,132.7c0.8-0.1,1.5-0.1,2.3-0.2C577.8,132.6,577,132.6,576.2,132.7z" style="fill: rgb(230, 231, 232);"/>
		<path class="st0" d="M568.3,278.3c-1.4-0.1-2.8-0.3-4.1-0.5C565.6,278,566.9,278.2,568.3,278.3z" style="fill: rgb(230, 231, 232);"/>
		<path class="st0" d="M563.8,277.8c-2.2-0.3-4.3-0.6-6.5-1C559.4,277.1,561.6,277.5,563.8,277.8z" style="fill: rgb(230, 231, 232);"/>
		<path class="st0" d="M520.5,262.1c-0.2-0.1-0.3-0.2-0.5-0.3C520.1,261.9,520.3,262,520.5,262.1z" style="fill: rgb(230, 231, 232);"/>
		<path class="st0" d="M549.9,275.1c-1.1-0.3-2.1-0.6-3.2-0.9C547.7,274.5,548.8,274.8,549.9,275.1z" style="fill: rgb(230, 231, 232);"/>
		<path class="st0" d="M543.2,273.1c-0.8-0.3-1.7-0.6-2.5-0.8C541.5,272.6,542.3,272.9,543.2,273.1z" style="fill: rgb(230, 231, 232);"/>
		<path class="st0" d="M628,227.7c0-5,13.9-13.1,21.2-13c4.1-30.8-4.7-64.3-34.3-76.4c-11.8-4.8-24-6.4-35.8-5.8&#10;&#9;&#9;&#9;c1.7-0.1,3.4-0.1,5.1-0.1c-12.6,12.3-27.5,33.4-29.6,64.8c-2.5,37.3,5.7,65.3,16.4,81.3c-0.8-0.1-1.5-0.1-2.3-0.2&#10;&#9;&#9;&#9;c15.4,1.4,31.7,0.1,46.2-5.5c11.1-4.3,20.5-15.8,26.8-30.4C635.3,240.3,628,232.6,628,227.7z M593.1,196.5c-4.4,0-8-3.6-8-8&#10;&#9;&#9;&#9;c0-4.4,3.6-8,8-8s8,3.6,8,8C601.1,192.9,597.5,196.5,593.1,196.5z M609.1,165.9c-5.6,0-10.2-4.6-10.2-10.2&#10;&#9;&#9;&#9;c0-5.6,4.6-10.2,10.2-10.2c5.6,0,10.2,4.6,10.2,10.2C619.3,161.4,614.7,165.9,609.1,165.9z M620,165.2c0-2.8,2.3-5.1,5.1-5.1&#10;&#9;&#9;&#9;c2.8,0,5.1,2.3,5.1,5.1c0,2.8-2.3,5.1-5.1,5.1C622.3,170.3,620,168,620,165.2z" style="fill: rgb(230, 231, 232);"/>
		<path class="st0" d="M539.5,271.9c-0.5-0.2-0.9-0.3-1.4-0.5C538.5,271.5,539,271.7,539.5,271.9z" style="fill: rgb(230, 231, 232);"/>
		<path class="st0" d="M545.9,274c-0.6-0.2-1.1-0.3-1.7-0.5C544.8,273.6,545.3,273.8,545.9,274z" style="fill: rgb(230, 231, 232);"/>
		<path class="st0" d="M645.9,230.4c0.1-0.3,0.2-0.5,0.2-0.8c-0.4,0.2-0.7,0.3-0.7,0.3S645.7,230.1,645.9,230.4z" style="fill: rgb(230, 231, 232);"/>
		<path class="st0" d="M533.4,269.4c-0.3-0.2-0.7-0.3-1-0.5C532.7,269.1,533.1,269.3,533.4,269.4z" style="fill: rgb(230, 231, 232);"/>
		<path class="st0" d="M522.5,263.5c-0.1-0.1-0.3-0.2-0.4-0.3C522.2,263.4,522.3,263.4,522.5,263.5z" style="fill: rgb(230, 231, 232);"/>
		<path class="st0" d="M525.1,265.2c-0.2-0.1-0.5-0.3-0.7-0.4C524.6,264.9,524.9,265,525.1,265.2z" style="fill: rgb(230, 231, 232);"/>
		<path class="st0" d="M536,270.5c-0.4-0.2-0.8-0.3-1.2-0.5C535.2,270.2,535.6,270.4,536,270.5z" style="fill: rgb(230, 231, 232);"/>
		<path class="st0" d="M556.9,136.2c-0.7,0.2-1.4,0.4-2.1,0.6C555.5,136.6,556.2,136.4,556.9,136.2z" style="fill: rgb(230, 231, 232);"/>
		<path class="st0" d="M519.4,153.5c-0.3,0.2-0.5,0.4-0.8,0.5C518.9,153.8,519.1,153.7,519.4,153.5z" style="fill: rgb(230, 231, 232);"/>
		<path class="st0" d="M516.6,155.4c-0.1,0.1-0.2,0.1-0.3,0.2C516.4,155.5,516.5,155.4,516.6,155.4z" style="fill: rgb(230, 231, 232);"/>
		<path class="st0" d="M524.9,150c-0.3,0.2-0.5,0.3-0.8,0.5C524.4,150.3,524.6,150.1,524.9,150z" style="fill: rgb(230, 231, 232);"/>
		<path class="st0" d="M521.8,151.9c-0.3,0.2-0.6,0.4-0.8,0.5C521.3,152.3,521.5,152.1,521.8,151.9z" style="fill: rgb(230, 231, 232);"/>
		<path class="st0" d="M527.7,148.4c-0.4,0.2-0.7,0.4-1.1,0.6C526.9,148.8,527.3,148.6,527.7,148.4z" style="fill: rgb(230, 231, 232);"/>
		<path class="st0" d="M564.6,134.4c-2.4,0.5-4.7,1-7,1.6C559.9,135.4,562.3,134.8,564.6,134.4z" style="fill: rgb(230, 231, 232);"/>
		<path class="st0" d="M530.3,146.9c-0.4,0.2-0.8,0.4-1.2,0.6C529.5,147.3,529.9,147.1,530.3,146.9z" style="fill: rgb(230, 231, 232);"/>
		<path class="st0" d="M512.1,158.8c-0.2,0.2-0.4,0.3-0.6,0.5C511.7,159.1,511.9,158.9,512.1,158.8z" style="fill: rgb(230, 231, 232);"/>
		<path class="st0" d="M514.2,157.1c-0.2,0.2-0.4,0.3-0.6,0.5C513.8,157.5,514,157.3,514.2,157.1z" style="fill: rgb(230, 231, 232);"/>
		<path class="st0" d="M575.5,132.8c-1.4,0.1-2.7,0.3-4.1,0.5c-1.1,0.1-2.2,0.3-3.2,0.5C570.6,133.3,573,133,575.5,132.8z" style="fill: rgb(230, 231, 232);"/>
		<path class="st0" d="M554,137c-2.2,0.7-4.4,1.4-6.5,2.2C549.7,138.4,551.8,137.7,554,137z" style="fill: rgb(230, 231, 232);"/>
		<path class="st0" d="M546.6,139.5c-0.6,0.2-1.2,0.5-1.8,0.7C545.4,140,546,139.7,546.6,139.5z" style="fill: rgb(230, 231, 232);"/>
		<path class="st0" d="M567.6,133.8c-0.8,0.1-1.5,0.3-2.3,0.4C566.1,134.1,566.8,133.9,567.6,133.8z" style="fill: rgb(230, 231, 232);"/>
		<path class="st0" d="M534,145c-0.6,0.3-1.1,0.6-1.6,0.8C532.9,145.6,533.4,145.3,534,145z" style="fill: rgb(230, 231, 232);"/>
		<path class="st0" d="M543.8,140.6c-1.1,0.5-2.3,0.9-3.4,1.4C541.5,141.5,542.6,141.1,543.8,140.6z" style="fill: rgb(230, 231, 232);"/>
		<path class="st0" d="M539.6,142.4c-0.5,0.2-1.1,0.5-1.6,0.7C538.6,142.8,539.1,142.6,539.6,142.4z" style="fill: rgb(230, 231, 232);"/>
		<path class="st0" d="M536.8,143.6c-0.5,0.2-1,0.5-1.5,0.7C535.8,144.1,536.3,143.9,536.8,143.6z" style="fill: rgb(230, 231, 232);"/>
		<path class="st0" d="M554.6,197.2c2.1-31.4,17.1-52.5,29.6-64.8c-1.7,0-3.4,0-5.1,0.1c-0.2,0-0.4,0-0.6,0c-0.8,0-1.5,0.1-2.3,0.2&#10;&#9;&#9;&#9;c-0.2,0-0.5,0-0.7,0.1c-2.5,0.2-4.9,0.5-7.3,0.9c-0.2,0-0.4,0.1-0.6,0.1c-0.8,0.1-1.5,0.3-2.3,0.4c-0.2,0-0.5,0.1-0.7,0.1&#10;&#9;&#9;&#9;c-2.4,0.5-4.7,1-7,1.6c-0.2,0.1-0.5,0.1-0.7,0.2c-0.7,0.2-1.4,0.4-2.1,0.6c-0.3,0.1-0.5,0.2-0.8,0.2c-2.2,0.7-4.4,1.4-6.5,2.2&#10;&#9;&#9;&#9;c-0.3,0.1-0.6,0.2-0.9,0.3c-0.6,0.2-1.2,0.5-1.8,0.7c-0.3,0.1-0.7,0.3-1,0.4c-1.1,0.5-2.3,0.9-3.4,1.4c-0.3,0.1-0.5,0.2-0.8,0.3&#10;&#9;&#9;&#9;c-0.5,0.2-1.1,0.5-1.6,0.7c-0.4,0.2-0.8,0.4-1.2,0.6c-0.5,0.2-1,0.5-1.5,0.7c-0.5,0.2-0.9,0.4-1.3,0.7c-0.6,0.3-1.1,0.6-1.6,0.8&#10;&#9;&#9;&#9;c-0.7,0.4-1.4,0.7-2,1.1c-0.4,0.2-0.8,0.4-1.2,0.6c-0.5,0.3-1,0.5-1.5,0.8c-0.4,0.2-0.7,0.4-1.1,0.6c-0.6,0.3-1.1,0.7-1.7,1&#10;&#9;&#9;&#9;c-0.3,0.2-0.5,0.3-0.8,0.5c-0.8,0.5-1.5,1-2.3,1.4c-0.3,0.2-0.6,0.4-0.8,0.5c-0.5,0.3-1.1,0.7-1.6,1c-0.3,0.2-0.5,0.4-0.8,0.5&#10;&#9;&#9;&#9;c-0.7,0.4-1.3,0.9-1.9,1.4c-0.1,0.1-0.2,0.1-0.3,0.2c-0.7,0.5-1.4,1-2.1,1.6c-0.2,0.2-0.4,0.3-0.6,0.5c-0.5,0.4-1,0.8-1.5,1.2&#10;&#9;&#9;&#9;c-0.2,0.2-0.4,0.3-0.6,0.5c-0.7,0.5-1.3,1.1-1.9,1.6c-10.9,9.1-18.9,14.4-25.2,17.6c-6.8,3.5-11.7,4.8-16.2,6.3&#10;&#9;&#9;&#9;c-0.1,0-0.2,0.1-0.3,0.1c-8.5,3.6-12.6,33.3-4,37.7c0.5,0.2,1,0.5,1.6,0.8c4.1,2,10.7,4.8,18,8.8c10.2,5.5,21.8,13.1,29.9,23.2&#10;&#9;&#9;&#9;c0.4,0.5,0.8,1,1.3,1.5c0.1,0.1,0.2,0.2,0.3,0.3c0.5,0.5,0.9,1,1.4,1.4c0.1,0.1,0.2,0.2,0.3,0.2c0.5,0.4,0.9,0.8,1.4,1.3&#10;&#9;&#9;&#9;c0.1,0.1,0.2,0.2,0.4,0.3c0.6,0.5,1.1,0.9,1.7,1.3c0.2,0.1,0.3,0.2,0.5,0.3c0.5,0.4,1.1,0.8,1.6,1.1c0.1,0.1,0.3,0.2,0.4,0.3&#10;&#9;&#9;&#9;c0.6,0.4,1.3,0.8,1.9,1.2c0.2,0.1,0.5,0.3,0.7,0.4c0.6,0.4,1.2,0.7,1.9,1.1c0.2,0.1,0.5,0.3,0.7,0.4c0.5,0.3,1.1,0.6,1.7,0.9&#10;&#9;&#9;&#9;c0.3,0.2,0.6,0.3,0.9,0.5c0.7,0.3,1.4,0.7,2.1,1c0.3,0.2,0.7,0.3,1,0.5c0.5,0.2,0.9,0.4,1.4,0.6c0.4,0.2,0.8,0.3,1.2,0.5&#10;&#9;&#9;&#9;c0.7,0.3,1.4,0.6,2.1,0.8c0.5,0.2,0.9,0.3,1.4,0.5c0.4,0.1,0.8,0.3,1.2,0.4c0.8,0.3,1.7,0.6,2.5,0.8c0.3,0.1,0.7,0.2,1,0.3&#10;&#9;&#9;&#9;c0.6,0.2,1.1,0.3,1.7,0.5c0.3,0.1,0.5,0.2,0.8,0.2c1,0.3,2.1,0.6,3.2,0.9c0.3,0.1,0.5,0.1,0.8,0.2c2,0.5,4,1,6.1,1.4&#10;&#9;&#9;&#9;c0.2,0,0.4,0.1,0.6,0.1c2.1,0.4,4.3,0.8,6.5,1c0.1,0,0.3,0,0.4,0.1c1.4,0.2,2.7,0.3,4.1,0.5c0.1,0,0.3,0,0.4,0&#10;&#9;&#9;&#9;c0.8,0.1,1.5,0.1,2.3,0.2C560.3,262.5,552.1,234.5,554.6,197.2z M548.8,230.6c-12.4,20.4-38.5,9.5-37.8-0.7&#10;&#9;&#9;&#9;c0.7-10.2-9.5-22.5,1.5-25.4C523.3,201.6,553.4,223.1,548.8,230.6z" style="fill: rgb(230, 231, 232);"/>
		<path class="st0" d="M512.4,204.5c-10.9,2.9-0.7,15.3-1.5,25.4c-0.7,10.2,25.4,21.1,37.8,0.7C553.4,223.1,523.3,201.6,512.4,204.5&#10;&#9;&#9;&#9;z" style="fill: rgb(230, 231, 232);"/>
		<path d="M 601.099976 188.5 A 8 8 0 0 1 593.099976 196.5 A 8 8 0 0 1 585.099976 188.5 A 8 8 0 0 1 593.099976 180.5 A 8 8 0 0 1 601.099976 188.5 Z" class="st0" style="fill: rgb(230, 231, 232);"/>
		<path d="M 619.299975 155.800003 A 10.2 10.2 0 0 1 609.099976 166.000003 A 10.2 10.2 0 0 1 598.899976 155.800003 A 10.2 10.2 0 0 1 609.099976 145.600003 A 10.2 10.2 0 0 1 619.299975 155.800003 Z" class="st0" style="fill: rgb(230, 231, 232);"/>
		<path d="M 630.199975 165.199997 A 5.1 5.1 0 0 1 625.099976 170.299997 A 5.1 5.1 0 0 1 619.999976 165.199997 A 5.1 5.1 0 0 1 625.099976 160.099997 A 5.1 5.1 0 0 1 630.199975 165.199997 Z" class="st0" style="fill: rgb(230, 231, 232);"/>
		<path class="st0" d="M649.2,214.7c-7.3-0.1-21.2,8.1-21.2,13c0,4.9,7.3,12.6,13.7,14.7c2.2,0.7,4.3,0.8,5.9-0.1&#10;&#9;&#9;&#9;c5.6-3.1,0-10-1.7-11.9c-0.3-0.3-0.5-0.5-0.5-0.5s0.3-0.1,0.7-0.3c2.2-1,8.5-4.8,7.3-12C653.1,215.6,651.5,214.7,649.2,214.7z" style="fill: rgb(230, 231, 232);"/>
	</g><path class="st3" d="M534.6,615.7c-5.3-1.9-8.3-7.6-14.8-12.6c-3.1-2.4-4.9-2.8-6.5-2.3c0.9,13.8,1.3,34.7-2.3,54.5&#10;&#9;&#9;&#9;c0.1,20.2-1.4,38.6-6.5,45.9c-13.5,19.2,22.5,37.8,30.1-6.6c-0.2-0.9-0.3-1.8-0.4-2.8C530.8,666.6,532.4,637.6,534.6,615.7z" style="fill: rgb(239, 64, 79);" transform="matrix(1, 0, 0, 1, -429.2790184020996, -420.2821464538574)"/><path class="st1" d="M555.7,604.6c-2.7,3.1-4.7,8.8-11.9,11c-3.9,1.1-6.8,1.1-9.2,0.2c-2.3,21.9-3.9,50.9-0.4,76.1&#10;&#9;&#9;&#9;c0.1,1,0.3,1.9,0.4,2.8c7.6,44.4,43.6,25.9,30.1,6.6c-5.1-7.3-6.6-25.7-6.5-45.9C555,637.2,555,618.2,555.7,604.6z" style="fill: rgb(241, 100, 104);" transform="matrix(1, 0, 0, 1, -429.2790184020996, -420.2821464538574)"/><path class="st1" d="M513.3,600.9c-3.2,1.1-5.3,6.4-14.6,7.4c-10.6,1.1-8.4-2-10.4-6.9c-0.5,5.1-1.3,11.1-2.6,17.3&#10;&#9;&#9;&#9;c-0.9,17-4.3,36.3-13.9,49.9c-21.1,29.8,22.5,41.4,34.9,4.4c1.9-5.6,3.3-11.5,4.4-17.6C514.6,635.6,514.2,614.7,513.3,600.9z" style="fill: rgb(241, 100, 104);" transform="matrix(1, 0, 0, 1, -429.2790184020996, -420.2821464538574)"/><path class="st3" d="M564.9,604.6c-4.9-3-7.2-2.3-9.2-0.1c-0.7,13.7-0.7,32.7,2.5,50.8c1.1,6,2.5,11.9,4.4,17.6&#10;&#9;&#9;&#9;c12.4,37.1,56,25.4,34.9-4.4c-9.6-13.6-13-32.9-13.9-49.9c-0.5-2.5-1-5-1.3-7.3C577.5,611.6,572,609.1,564.9,604.6z" style="fill: rgb(239, 64, 79);" transform="matrix(1, 0, 0, 1, -429.2790184020996, -420.2821464538574)"/><path class="st3" d="M484.9,596.6c-7.7-7-5.9,8.4-19.7,3.4c-2.3,7.4-7.9,17.5-21.7,25.6c-24.7,14.5,0.7,50.9,23.3,32&#10;&#9;&#9;&#9;c10.4-8.7,16-24.5,19-39c1.3-6.2,2.1-12.2,2.6-17.3C487.8,599.9,486.8,598.3,484.9,596.6z" style="fill: rgb(239, 64, 79);" transform="matrix(1, 0, 0, 1, -429.2790184020996, -420.2821464538574)"/><path class="st1" d="M590.3,607.5c-2.5,2.5-5.2,3.7-8.1,3.9c0.4,2.4,0.8,4.8,1.3,7.3c3,14.5,8.6,30.3,19,39&#10;&#9;&#9;&#9;c22.5,18.9,48-17.4,23.3-32c-13-7.7-18.8-17.2-21.3-24.4c-0.1-0.1-0.2-0.2-0.3-0.3C599.8,596.6,596.9,601,590.3,607.5z" style="fill: rgb(241, 100, 104);" transform="matrix(1, 0, 0, 1, -429.2790184020996, -420.2821464538574)"/><path class="st4" d="M464.1,577.4c-4.6,6.1-11.1,17.4-0.2,22.1c0.5,0.2,0.9,0.4,1.4,0.5c13.8,5,12-10.5,19.7-3.4&#10;&#9;&#9;&#9;c1.9,1.7,2.9,3.3,3.5,4.8c2,4.8-0.2,8,10.4,6.9c9.3-1,11.4-6.3,14.6-7.4c1.6-0.5,3.4-0.1,6.5,2.3c6.5,5,9.5,10.7,14.8,12.6&#10;&#9;&#9;&#9;c2.4,0.9,5.3,1,9.2-0.2c7.2-2.1,9.2-7.9,11.9-11c2-2.2,4.3-3,9.2,0.1c7.1,4.5,12.6,7,17.3,6.8c3-0.1,5.6-1.3,8.1-3.9&#10;&#9;&#9;&#9;c6.5-6.5,9.5-10.9,13.8-6.5c0.1,0.1,0.2,0.2,0.3,0.3c4.5,3.7,13.5-2.7,13.5-11.9c0-3.7-1.8-8.4-4-12.8&#10;&#9;&#9;&#9;C580.2,590.5,504.1,593.4,464.1,577.4z" style="fill: rgb(190, 49, 62);" transform="matrix(1, 0, 0, 1, -429.2790184020996, -420.2821464538574)"/><path class="st1" d="M538.7,430.1c-72.1,3.7-106.1,74.9-100.3,122.1c1.4,11.1,11.2,19.4,25.7,25.2c40.1,16,116.2,13,149.9-0.9&#10;&#9;&#9;&#9;c5.9-2.4,10.5-5.2,13.4-8.3C652.9,541.4,623.1,425.8,538.7,430.1z M596.2,480.3c4,0,7.3,3.3,7.3,7.3c0,4-3.3,7.3-7.3,7.3&#10;&#9;&#9;&#9;c-4,0-7.3-3.3-7.3-7.3C588.9,483.6,592.1,480.3,596.2,480.3z M569.3,452.7c9.6,0,17.4,7.8,17.4,17.4s-7.8,17.4-17.4,17.4&#10;&#9;&#9;&#9;c-9.6,0-17.4-7.8-17.4-17.4S559.6,452.7,569.3,452.7z" style="fill: rgb(241, 100, 104);" transform="matrix(1, 0, 0, 1, -429.2790184020996, -420.2821464538574)"/><path d="M 586.699987 470.100006 A 17.4 17.4 0 0 1 569.299988 487.500006 A 17.4 17.4 0 0 1 551.899988 470.100006 A 17.4 17.4 0 0 1 569.299988 452.700006 A 17.4 17.4 0 0 1 586.699987 470.100006 Z" class="st7" style="fill: rgb(239, 64, 79);" transform="matrix(1, 0, 0, 1, -429.2790184020996, -420.2821464538574)"/><path d="M 603.500012 487.600006 A 7.3 7.3 0 0 1 596.200012 494.900006 A 7.3 7.3 0 0 1 588.900012 487.600006 A 7.3 7.3 0 0 1 596.200012 480.300006 A 7.3 7.3 0 0 1 603.500012 487.600006 Z" class="st7" style="fill: rgb(239, 64, 79);" transform="matrix(1, 0, 0, 1, -429.2790184020996, -420.2821464538574)"/>

</svg>