<?xml version="1.0" encoding="utf-8"?>
<svg id="master-artboard" viewBox="0 0 1400 980" version="1.1" xmlns="http://www.w3.org/2000/svg" x="0px" y="0px" style="enable-background:new 0 0 1400 980;" width="1400px" height="980px">

<path d="M 0 0 H 1400 V 980 H 0 V 0 Z" class="st0" style="fill: rgb(255, 255, 255);"/>
<g>
	<path class="st1" d="M997.5,600.1c-13.6,15.1-38.4,1.7-52.1-6.6c-26.5-16-49.2-38.6-69-62.2c-18.9-22.4-37-48-45.9-76.2&#10;&#9;&#9;c-3-9.4-5-20-2.4-29.7c4.9-18,26.2-18.6,40.8-12.3c25.8,11.1,24.6,40.1,31.1,63.3c4.6,16.3,14.5,38.3,35,33.9&#10;&#9;&#9;c16.7-3.6,29.7-21.1,39.2-33.9c5.3-7.2,9.8-14.8,15.6-21.6c5.7-6.7,12.3-12.6,19.4-17.7c11.8-8.3,27.5-15.8,42.3-12.1&#10;&#9;&#9;c17.4,4.4,23.5,25.5,24.3,41.2c1.9,35.1-38.1,51-54.7,76.6c-6.4,9.8-8.4,21.2-6.1,32.7c3,15.4,19.9,29,15.1,45.6&#10;&#9;&#9;c-3.6,12.4-18.4,18.6-30.2,17.4c-15.3-1.6-23.9-16.1-27.1-29.7c-1.1-4.7-8.3-2.7-7.2,2c4.3,18.2,16.5,33.9,36.1,35.3&#10;&#9;&#9;c17.2,1.3,35-11.6,36.7-29.1c1.1-10.7-5.7-21.1-10.5-30c-4.6-8.5-7.6-17.1-5.9-26.8c2.7-15.3,16-26.5,27-36.3&#10;&#9;&#9;c11.9-10.7,24.7-21.8,30.9-37.1c6.7-16.8,3.5-37.9-5.7-53.2c-18.9-31.1-58.3-13-79.2,5.3c-13.7,12.1-22.1,28.1-33.6,42&#10;&#9;&#9;c-8.2,9.9-24.9,29.4-39.4,20.1c-9.1-5.8-12.8-19.8-15.4-29.5c-3.1-11.9-4-24.2-8-35.8c-3.8-11.1-10.9-20.8-21.1-26.7&#10;&#9;&#9;c-9.3-5.4-20.6-8.3-31.3-6.9c-13.7,1.8-23.6,11.7-25.9,25c-1.9,10.8,0.5,21.9,3.8,32.2c9.4,28.4,27.6,53.9,46.5,76.6&#10;&#9;&#9;c19.9,23.8,42.8,46.2,69.1,62.8c15.6,9.8,40.2,22.8,58.1,11.1c1.9-1.2,3.6-2.7,5.1-4.4C1006,601.8,1000.7,596.5,997.5,600.1&#10;&#9;&#9;L997.5,600.1z" style="fill: rgb(18, 74, 158);"/>
</g>
<g>
	<path class="st1" d="M906.9,574c24.8,1.5,49.6-8.9,70.1-22.1c22.1-14.3,41.9-34.6,50.8-59.8c1.6-4.6-5.6-6.5-7.2-2&#10;&#9;&#9;c-8.3,23.4-27,42-47.4,55.3c-19.2,12.6-42.9,22.4-66.3,21C902.1,566.2,902.1,573.7,906.9,574L906.9,574z" style="fill: rgb(18, 74, 158);"/>
</g>
<g>
	<path class="st1" d="M991.2,451.5c-2.9-27.5-19.4-52.5-45.7-62.6c-11.5-4.4-24.4-4.7-36.1-0.8c-13.4,4.5-23.8,14.5-31.2,26.2&#10;&#9;&#9;c-2.6,4.1,3.9,7.9,6.5,3.8c13-20.6,35.4-30.5,58.8-21.9c22.9,8.3,37.7,31.8,40.2,55.4C984.2,456.3,991.7,456.4,991.2,451.5&#10;&#9;&#9;L991.2,451.5z" style="fill: rgb(18, 74, 158);"/>
</g>
<g>
	<path class="st1" d="M903.9,461.3c17.1-21.9,52.8-0.9,54.3,22.8c0.3,4.8,7.8,4.8,7.5,0c-1.1-16-12-29.2-26.4-35.6&#10;&#9;&#9;c-13.8-6-30.9-5.1-40.7,7.5C895.7,459.7,900.9,465.1,903.9,461.3L903.9,461.3z" style="fill: rgb(18, 74, 158);"/>
</g>
<g>
	<path class="st1" d="M930,450.1c-0.2,16.6-4.6,34.1-9.8,49.9c-1.5,4.6,5.7,6.6,7.2,2c5.4-16.4,9.8-34.6,10-51.9&#10;&#9;&#9;C937.6,445.3,930.1,445.3,930,450.1L930,450.1z" style="fill: rgb(18, 74, 158);"/>
</g>
<g>
	<path class="st1" d="M961.5,397.9c-1-18.5,7.1-36.9,17.3-51.9c10.3-15.3,25.4-29.7,43.9-33.4c20.8-4.2,41.3,12.6,46.9,31.9&#10;&#9;&#9;c6.3,21.7-6,45.1-15.7,63.8c-1.6,3-3.2,6-4.7,9c-2.2,4.3,4.2,8.1,6.5,3.8c10.1-19.2,21.3-39,22.9-61.1c1.6-22-11.9-42.9-31.8-51.8&#10;&#9;&#9;c-36.8-16.4-71.4,22.7-84.8,52.8c-5.1,11.5-8.6,24.3-7.9,37C954.3,402.7,961.8,402.7,961.5,397.9L961.5,397.9z" style="fill: rgb(18, 74, 158);"/>
</g>
<g>
	<path class="st1" d="M933.3,389.4c0.7-25.5-10.2-50-20.3-72.9c-5.3-11.9-10.9-23.8-15.6-36c-5.2-13.6-8.5-28.2-11.2-42.5&#10;&#9;&#9;c-2.9-15.1-4.3-30.5-4.9-45.9c-0.5-12.5-0.9-25.4,0.9-37.8c1.6-11.2,6.1-21.5,15.8-27.9c11.9-7.9,26.1-6.3,37.6,1.2&#10;&#9;&#9;c8.7,5.6,14.6,15.1,20.5,23.4c5.7,8,11.4,16.1,18,23.5c11.7,13.2,28,22.8,45.6,14.9c20.3-9,31.1-28.7,29.5-50.5&#10;&#9;&#9;c-1.7-23.2-13.5-45.1-24-65.4c-11.3-21.9-22.8-47.1-11.9-71.6c2-4.4-4.5-8.2-6.5-3.8c-23.3,51.9,34.3,95.1,35,145.8&#10;&#9;&#9;c0.3,20-16.8,42.8-38.5,40.9c-8.6-0.8-16-7.2-21.7-13.1c-7-7.1-12.7-15.4-18.4-23.5c-5.6-7.9-11.2-16.2-18.4-22.8&#10;&#9;&#9;c-8.9-8.1-20.9-12.6-32.9-11.7c-11.5,0.9-21.9,7.5-28.8,16.5c-6.4,8.4-8.3,19.4-9.2,29.7c-2.4,27.7,0.3,56.5,5.6,83.7&#10;&#9;&#9;c2.8,14.1,6.3,28.2,11.5,41.6c4.6,11.9,10.1,23.5,15.3,35.1c9.6,21.6,20,45,19.3,69.1C925.6,394.2,933.1,394.2,933.3,389.4&#10;&#9;&#9;L933.3,389.4z" style="fill: rgb(18, 74, 158);"/>
</g>
<g>
	<path class="st1" d="M882.9,244.8c11.6,0,23.9-0.6,35.3,2.3c7.5,1.9,12.1,6.8,15.9,13.3c6.4,10.8,10.9,22.8,16.4,34&#10;&#9;&#9;c8.5,17.4,17.2,34.1,16.3,54c-0.2,4.8,7.3,4.8,7.5,0c0.9-20-7.1-37.3-15.8-54.8c-6.3-12.7-11.3-26.2-18.6-38.4&#10;&#9;&#9;c-4.3-7.2-10.2-12.4-18.3-15c-12.1-3.9-26.1-2.9-38.6-2.9C878.1,237.3,878.1,244.8,882.9,244.8L882.9,244.8z" style="fill: rgb(18, 74, 158);"/>
</g>
<g>
	<path class="st1" d="M910.5,240.6c7.2-19.4,10.3-39.7,9.8-60.3c-0.5-20.3-4.3-40.5-8.4-60.3c-1-4.7-8.2-2.7-7.2,2&#10;&#9;&#9;c4,19.3,7.5,38.6,8.2,58.3c0.6,20-2.6,39.6-9.6,58.3C901.6,243.2,908.9,245.1,910.5,240.6L910.5,240.6z" style="fill: rgb(18, 74, 158);"/>
</g>
<g>
	<path class="st1" d="M963.9,307.9c40.8-20.7,84.9-72.9,56.4-119.6c-2.5-4.1-9-0.4-6.5,3.8c26.2,43-16.8,90.5-53.7,109.3&#10;&#9;&#9;C955.8,303.6,959.6,310,963.9,307.9L963.9,307.9z" style="fill: rgb(18, 74, 158);"/>
</g>
<g>
	<path class="st1" d="M904.9,395.5c-9.5-27.2-37.4-44.4-64.8-49.2c-4.7-0.8-6.8,6.4-2,7.2c24.7,4.3,50.9,19.2,59.5,44&#10;&#9;&#9;C899.2,402,906.5,400,904.9,395.5L904.9,395.5z" style="fill: rgb(18, 74, 158);"/>
</g>
<g>
	<path class="st1" d="M873.9,356.9c0-14.5,0.5-29-1.6-43.5c-2-13.9-7.3-28.6-20-36.1c-4.2-2.5-7.9,4-3.8,6.5&#10;&#9;&#9;c11.4,6.7,15.1,20.7,16.8,33.1c1.8,13.2,1.2,26.7,1.2,40C866.4,361.7,873.9,361.7,873.9,356.9L873.9,356.9z" style="fill: rgb(18, 74, 158);"/>
</g>
<g>
	<path class="st1" d="M868.8,319.2c-25.9,0-62.5-5.5-81.4,16.8c-10.8,12.8-12.5,33.2-6.7,48.4c7.2,18.9,25.6,33.1,44.8,38.2&#10;&#9;&#9;c4.7,1.2,6.7-6,2-7.2c-17.8-4.7-34.4-17.9-40.5-35.6c-4.6-13.3-1.8-31.1,8.3-41.2c8.5-8.5,21.7-10.8,33.2-11.7&#10;&#9;&#9;c13.4-1.1,27-0.2,40.4-0.2C873.6,326.8,873.6,319.3,868.8,319.2L868.8,319.2z" style="fill: rgb(18, 74, 158);"/>
</g>
<g>
	<path class="st1" d="M991.2,448.7c0.1-7.1,1.9-14.1,3.7-20.9c2.6-9.9,6-19.7,9.6-29.3c3.7-9.9,7.9-19.6,12.7-29&#10;&#9;&#9;c3.5-6.9,7.2-14,12.4-19.8c3.2-3.6-2.1-8.9-5.3-5.3c-12.3,13.7-19.5,32.8-26.1,49.7c-3.9,10-7.4,20.3-10.3,30.7&#10;&#9;&#9;c-2.1,7.7-4.2,15.9-4.3,24C983.6,453.6,991.1,453.6,991.2,448.7L991.2,448.7z" style="fill: rgb(18, 74, 158);"/>
</g>
<g>
	<path class="st1" d="M1028.2,308.7c10.2-8.7,18.7-19,24.4-31.2c5.5-11.7,7.7-24.5,8.7-37.3c1-13.2,1.3-27.1-4.1-39.4&#10;&#9;&#9;c-2-4.6-5-8.8-7.9-12.9c-4-5.8-7.6-11.7-10.7-18c-2.1-4.4-8.6-0.6-6.5,3.8c4.8,10,11.8,18.4,17.1,28c6,10.8,5.3,23.8,4.7,35.7&#10;&#9;&#9;c-0.6,12-2.6,24-7.3,35.1c-5.2,12.2-13.8,22.3-23.8,30.9C1019.2,306.5,1024.6,311.8,1028.2,308.7L1028.2,308.7z" style="fill: rgb(18, 74, 158);"/>
</g>
<g>
	<path class="st1" d="M821.7,324.4c-3.5-27.8-9.2-56.7-4.8-84.7c1.9-12,6.2-23.7,15.2-32.2c10.8-10.1,26.7-12.3,40.9-12.1&#10;&#9;&#9;c4.8,0.1,4.8-7.4,0-7.5c-15.2-0.2-31.2,2.3-43.5,12c-10.4,8.2-16.2,20.3-19,33c-6.6,29.8-0.1,61.7,3.6,91.5&#10;&#9;&#9;C814.8,329.1,822.3,329.2,821.7,324.4L821.7,324.4z" style="fill: rgb(18, 74, 158);"/>
</g>
<g>
	<path class="st1" d="M880.1,542.4c-22,2.2-44.4,3.2-66.4,0c-22.4-3.3-49.7-12.7-52.8-38.6c-0.6-4.7-8.1-4.8-7.5,0&#10;&#9;&#9;c3.3,27.8,28.2,40.3,53.2,45c24.1,4.6,49.2,3.5,73.5,1.1C884.8,549.5,884.9,542,880.1,542.4L880.1,542.4z" style="fill: rgb(18, 74, 158);"/>
</g>
<g>
	<path class="st1" d="M851.8,505.7c-20.1,1.9-34.4-11.3-48.2-23.9c-6.5-5.9-13.1-11.8-20.8-16c-8.2-4.6-16.7-5.6-26-4.9&#10;&#9;&#9;c-17.4,1.2-35.1,7.8-43.9,23.7c-7.5,13.6-6.3,30.3-2.5,44.8c2.4,9,6.3,17.8,10.9,25.8c2.4,4.2,8.9,0.4,6.5-3.8&#10;&#9;&#9;c-14.8-25.6-22.9-67.6,12.6-79.8c9.2-3.2,20.7-4.9,30.3-2.6c8.3,2,15.5,7.6,21.8,13.1c13.6,11.7,26.2,26,44.4,30.3&#10;&#9;&#9;c4.8,1.2,9.9,1.4,14.8,0.9C856.6,512.8,856.6,505.3,851.8,505.7L851.8,505.7z" style="fill: rgb(18, 74, 158);"/>
</g>
<g>
	<path class="st1" d="M777.9,467.1c-0.1-22.4-10.3-56.4,12.3-71.6c4-2.7,0.2-9.2-3.8-6.5c-26,17.5-16.1,52-16,78.1&#10;&#9;&#9;C770.4,471.9,777.9,471.9,777.9,467.1L777.9,467.1z" style="fill: rgb(18, 74, 158);"/>
</g>
<g>
	<path class="st1" d="M690.2,623.5c7.2-42.5,43.1-73.6,82.1-87.8c4.5-1.6,2.6-8.9-2-7.2c-41.3,15-79.7,47.9-87.4,93&#10;&#9;&#9;C682.1,626.2,689.3,628.2,690.2,623.5L690.2,623.5z" style="fill: rgb(18, 74, 158);"/>
</g>
<g>
	<path class="st1" d="M697.8,583.4c-11.9,0-23.7-0.6-35.6-0.1c-11.2,0.5-26.6,0.7-35.4,8.7c-10.3,9.4,4.4,23.5,12.4,28&#10;&#9;&#9;c8.9,5.1,20,6.7,30,8c10.2,1.3,20.6,2.4,30.9,2.7c54.8,1.2,116.5-26.4,138.3-79.2c1.8-4.5-5.4-6.4-7.2-2&#10;&#9;&#9;c-17.8,42.9-64.7,66.8-108.7,72.5c-21.1,2.7-43.7,1-64.4-3.4c-9.5-2-17.4-5.2-23.9-12.6c-2.9-3.2-4.5-6.4-1.7-9&#10;&#9;&#9;c3.3-3,8.9-3.8,13-4.5c6.4-1.2,12.9-1.5,19.4-1.8c11-0.4,21.9,0.2,32.9,0.2C702.7,590.9,702.7,583.4,697.8,583.4L697.8,583.4z" style="fill: rgb(18, 74, 158);"/>
</g>
<g>
	<path class="st1" d="M714.8,528.3c-36.5,0-77-3.8-110.3,14.3c-17,9.2-28.7,24.7-35,42.7c-7.3,20.7-4.6,42.3,9.9,59.1&#10;&#9;&#9;c15.8,18.2,41.5,26.1,64.9,27c4.8,0.2,4.8-7.3,0-7.5c-21.8-0.9-44.6-8.3-59.6-24.9c-15.7-17.5-13.7-41.6-3.9-61.5&#10;&#9;&#9;c18.2-36.6,61.5-41.5,97.9-42c12-0.2,24.1,0.2,36.1,0.2C719.6,535.8,719.6,528.3,714.8,528.3L714.8,528.3z" style="fill: rgb(18, 74, 158);"/>
</g>
<g>
	<path class="st1" d="M708.1,624.5c-23.9,7.9-46.2,21-63.9,39.1c-14.8,15.1-26.5,34.8-26.9,56.3c-0.3,17.2,8.2,34.2,25.3,39.5&#10;&#9;&#9;c16.4,5.1,35.3-1,50.4-7.4c17.4-7.4,33.9-17.4,48.4-29.5c3.7-3.1-1.6-8.4-5.3-5.3c-13.4,11.2-28.8,20.3-44.8,27.4&#10;&#9;&#9;c-14.5,6.4-34.4,13.2-50,6.4c-18-8-18.8-31.8-13.7-48c7.1-22.6,26.1-40.7,45.3-53.5c11.5-7.6,24.1-13.6,37.2-17.9&#10;&#9;&#9;C714.7,630.2,712.7,623,708.1,624.5L708.1,624.5z" style="fill: rgb(18, 74, 158);"/>
</g>
<g>
	<path class="st1" d="M665.8,716.1c19.9-14.2,47.1-23.8,67.5-5.2c22.2,20.3,13.1,49.7,8.3,75.3c-2.7,14.2-6.7,36.3,10,43.8&#10;&#9;&#9;c13.4,6.1,28.6-2.6,38.1-12c24.2-23.8,27.8-65,18-96c-5.4-17.1-15.4-32.3-27.1-45.7c-7.2-8.3-15.2-15.9-22.4-24.4&#10;&#9;&#9;c-7.6-9-14.4-18.5-20.4-28.6c-2.5-4.2-8.9-0.4-6.5,3.8c7.5,12.8,16.6,24.5,26.4,35.7c9.2,10.4,19.2,19.8,27.3,31.1&#10;&#9;&#9;c14.7,20.7,22,44.9,19.7,70.3c-1.9,20.9-10.4,43.6-28.8,55.3c-10.5,6.7-25.3,7.5-28.7-6.9c-1.6-6.8,0-14.4,1.1-21.2&#10;&#9;&#9;c1.6-9.3,3.7-18.5,5.3-27.9c2.8-16.8,3.1-33.6-6.7-48.3c-8.5-12.7-21.3-20.9-36.6-22.4c-17.3-1.6-34.5,6.9-48.2,16.7&#10;&#9;&#9;C658.1,712.4,661.9,719,665.8,716.1L665.8,716.1z" style="fill: rgb(18, 74, 158);"/>
</g>
<g>
	<path class="st1" d="M781.2,687c24.3-2.4,43.3-18.4,58.8-36.3c7.6-8.8,14.3-18.2,21.2-27.5c5.8-7.7,12.1-17.6,21.3-21.5&#10;&#9;&#9;c8.5-3.5,16.2,3.4,19.8,10.6c2.6,5.2,2.5,11.4,1.3,17c-3.2,15.4-13.8,29.2-23.7,40.9c-12.3,14.5-26.3,27.6-40.8,39.9&#10;&#9;&#9;c-10.5,8.9-21.4,17.5-33,24.9c-4.1,2.6-0.3,9.1,3.8,6.5c26.1-16.6,50.4-38,71-61c16.8-18.7,43.9-52.3,24.2-77.7&#10;&#9;&#9;c-7.4-9.5-19.1-12.1-29.4-6c-10.3,6.2-17.6,17.8-24.5,27.3c-17,23.5-38.8,52.1-70,55.2C776.4,680,776.4,687.5,781.2,687L781.2,687z&#10;&#9;&#9;" style="fill: rgb(18, 74, 158);"/>
</g>
<g>
	<path class="st1" d="M897.2,653.4c29.3,29.1,69.9,49,111.9,42.6c19.3-2.9,37-12.4,51.2-25.7c15.7-14.7,29.9-36.4,32.5-58&#10;&#9;&#9;c4.4-36.5-19.6-72.1-49.8-90.5c-4.1-2.5-7.9,4-3.8,6.5c20.7,12.7,37.1,32.9,43.9,56.3c3.3,11.4,3.7,23.4,0.7,34.8&#10;&#9;&#9;c-3,11.4-9.7,22.3-16.6,31.7c-12.1,16.6-29.2,29.3-49,35.1c-18.9,5.6-39.1,4.1-57.7-1.7c-22.1-6.9-41.7-20.3-58-36.5&#10;&#9;&#9;C899.1,644.7,893.8,650,897.2,653.4L897.2,653.4z" style="fill: rgb(18, 74, 158);"/>
</g>
<g>
	<path class="st1" d="M735.5,469.9c0-65.2,3.9-149.4,74.9-177.2c4.5-1.7,2.5-9-2-7.2c-17.1,6.7-32.2,16.8-44.2,30.7&#10;&#9;&#9;C753,329.3,745.3,345,740,361.4c-11.3,34.7-12,72.4-12,108.5C728,474.8,735.5,474.7,735.5,469.9L735.5,469.9z" style="fill: rgb(18, 74, 158);"/>
</g>
<g>
	<path class="st1" d="M734.6,408.2c-65.1-8.3-70.1,79-70.1,123.8c0,4.8,7.5,4.8,7.5,0c0-40.7,2.8-124,62.6-116.3&#10;&#9;&#9;C739.4,416.4,739.3,408.8,734.6,408.2L734.6,408.2z" style="fill: rgb(18, 74, 158);"/>
</g>
<g>
	<path class="st1" d="M1070.8,387.5c34.9,3.3,50.1,39.3,54.1,69.8c2.2,16.4,2.1,33.8-2.7,49.7c-6.9,23.1-24.5,41.4-40,59.1&#10;&#9;&#9;c-3.2,3.6,2.1,8.9,5.3,5.3c16.3-18.6,33.3-37.2,41.4-60.9c5.9-17.4,5.7-37.3,3.2-55.3c-4.9-34.4-22.8-71.6-61.4-75.2&#10;&#9;&#9;C1066,379.5,1066,387,1070.8,387.5L1070.8,387.5z" style="fill: rgb(18, 74, 158);"/>
</g>
<g>
	<path class="st1" d="M937,255.7c15.7-33.3,28.6-73.1,21.6-110.3c-0.9-4.7-8.1-2.7-7.2,2c3.5,18.2,1.1,37-3.2,54.9&#10;&#9;&#9;c-4,17.1-10.2,33.7-17.6,49.6C928.5,256.2,934.9,260,937,255.7L937,255.7z" style="fill: rgb(18, 74, 158);"/>
</g>
<g>
	<path class="st1" d="M946.3,273.4c13.5-11.5,27.2-23,38-37.1c10.9-14.2,16.6-31,16.8-48.9c0-4.8-7.5-4.8-7.5,0&#10;&#9;&#9;c-0.2,16.8-5.8,31.7-15.7,45.1c-10.2,13.7-23.9,24.6-36.8,35.6C937.3,271.2,942.6,276.5,946.3,273.4L946.3,273.4z" style="fill: rgb(18, 74, 158);"/>
</g>
<g>
	<path class="st1" d="M815.5,233.5c-9.3-15.2-23.7-29.1-39-38.1c-7.2-4.3-15.6-7.2-24-5.6c-9,1.6-15.3,9.8-16.1,18.6&#10;&#9;&#9;c-1.1,12,4.3,24,9.6,34.5c3.6,7,8.2,13.8,9.8,21.6c3.2,15.4-27.3,12.8-36.4,12.4c-21.6-0.8-75.9-4.6-64.1,32.4&#10;&#9;&#9;c5.5,17.1,22.7,23.8,39,26.3c17.3,2.7,35.4,1,52.3,5.4c1.3,0.4,2.6,0.8,3.9,1.3c4.5,1.7,6.5-5.5,2-7.2c-15.8-5.9-34.1-4.3-50.7-6&#10;&#9;&#9;c-16.7-1.7-35.5-6.4-40.2-24.8c-4-15.6,13.9-18.9,25.4-19.9c15.3-1.3,30.6,0.6,45.9,0.3c12-0.2,31.2-3.3,30.6-18.9&#10;&#9;&#9;c-0.2-6.4-3.5-12.5-6.4-18.1c-4.9-9.3-9.9-18.4-12.4-28.7c-2.1-8.8-0.9-18.8,9-21.7c7.2-2.1,15.2,2.3,21.1,5.9&#10;&#9;&#9;c13.3,8.2,26.1,20.9,34.3,34.3C811.5,241.4,818,237.7,815.5,233.5L815.5,233.5z" style="fill: rgb(18, 74, 158);"/>
</g>
<g>
	<path class="st1" d="M711.3,280.2c5.5-18.1,19.6-30.3,35-40.1c4.1-2.6,0.3-9.1-3.8-6.5c-17.1,10.9-32.4,24.6-38.5,44.6&#10;&#9;&#9;C702.7,282.8,709.9,284.8,711.3,280.2L711.3,280.2z" style="fill: rgb(18, 74, 158);"/>
</g>
<g>
	<path class="st1" d="M695.6,330.5c-8.3,28.9-8.4,62.1,0,91c1.4,4.6,8.6,2.7,7.2-2c-8.1-27.6-8-59.3,0-87&#10;&#9;&#9;C704.2,327.8,697,325.8,695.6,330.5L695.6,330.5z" style="fill: rgb(18, 74, 158);"/>
</g>
<g>
	<path class="st1" d="M851,708.2c8.1,26.9,19.9,55,37.6,77.1c8.3,10.4,19.9,20.1,34.1,18.1c12.9-1.8,18.9-13,17.1-25.1&#10;&#9;&#9;c-2.9-19.5-15.8-37.8-26.3-54c-5.8-9.1-11.9-18-17.6-27.1c-4-6.4-8.6-13.2-10.8-20.6c-1.3-4.6-8.6-2.7-7.2,2&#10;&#9;&#9;c3.8,13,13,24.8,20.3,35.9c9.8,14.9,19.9,29.8,27.7,45.8c4.1,8.5,12,24.7,2.9,32.7c-10.6,9.3-24.5-1.4-31.7-9.4&#10;&#9;&#9;c-11.3-12.4-19.1-28.3-25.9-43.5c-4.9-11-9.3-22.3-12.8-33.8C856.9,701.6,849.6,703.6,851,708.2L851,708.2z" style="fill: rgb(18, 74, 158);"/>
</g>
<g>
	<path class="st1" d="M968.3-1c-8.1,19.5-7.4,40.4-0.5,60.1c6,17.2,16.1,32.5,26,47.6c2.2,3.3,17.3,24.4,7.8,25.2&#10;&#9;&#9;c-3.4,0.3-7-3.5-9.2-5.5c-4.4-4-8.3-8.5-12.2-13c-6.5-7.4-13-15.2-21.2-20.7c-26.9-18.1-65.5-21.8-91.3-0.1&#10;&#9;&#9;c-14.9,12.5-24.7,29.5-29.4,48.2c-4.5,17.9-4.3,36.7-4.3,55.1c0,4.8,7.5,4.8,7.5,0c0-23.9-0.2-48.8,10.3-70.8&#10;&#9;&#9;c5.7-12,14.7-22.7,25.5-30.4c9.9-7.1,21.9-9.7,33.9-9.5c17.4,0.4,37.7,7,50.5,19.3c8.7,8.4,16,18.1,24.6,26.5&#10;&#9;&#9;c5.3,5.1,12.4,10.7,20,7.3c8.5-3.8,6.1-13.8,3.1-20.2c-4.9-10.4-12.2-19.7-18.3-29.4C974.3,62,962.8,31.8,975.5,1&#10;&#9;&#9;C977.4-3.4,970.1-5.4,968.3-1L968.3-1z" style="fill: rgb(18, 74, 158);"/>
</g>
<g>
	<path class="st1" d="M721.4,250.2c-22.2-9.3-43.6-23.3-57.3-43.5c-12.6-18.6-17-44.2-6.4-64.8c8.2-16,25.6-22.5,42.8-22.2&#10;&#9;&#9;c19.4,0.4,35.4,12.3,54.7,13.1c11.8,0.5,23.2-3.9,31-12.8c8.3-9.3,11.4-22,12.2-34.1c1.1-16.1-5.2-31.5-2.8-47.5&#10;&#9;&#9;c2.5-16.1,12.5-31,29-34.8c4.7-1.1,2.7-8.3-2-7.2c-22.1,5.1-33.8,26.7-35.1,48c-0.7,11.5,3.1,22.7,3.5,34.2&#10;&#9;&#9;c0.3,9.5-0.9,19.3-4.9,27.9c-8.4,18.2-27.1,21.5-44.9,16.4c-9.2-2.6-17.4-7.2-26.8-9.1c-8.2-1.7-16.7-2.1-25-1&#10;&#9;&#9;c-13.3,1.8-25.9,7.9-34.1,18.8c-10.3,13.7-12.5,31.6-10,48.1c5.7,38.1,41.1,63.8,74.1,77.6C723.9,259.3,725.8,252,721.4,250.2&#10;&#9;&#9;L721.4,250.2z" style="fill: rgb(18, 74, 158);"/>
</g>
<g>
	<path class="st1" d="M625.3,539.1c0-53.9-8.7-154.2,65.5-162.9c4.7-0.6,4.8-8.1,0-7.5c-80.2,9.5-73,111.1-73,170.4&#10;&#9;&#9;C617.8,544,625.3,544,625.3,539.1L625.3,539.1z" style="fill: rgb(18, 74, 158);"/>
</g>
<g>
	<path class="st1" d="M653.1,383.3c-30.4-17.1-46.1-52.9-46.8-86.7c-0.4-17.2,3.4-36.3,13.7-50.5c10.6-14.5,28.4-22.7,42.4-33.5&#10;&#9;&#9;c3.8-3-1.5-8.2-5.3-5.3c-15.1,11.8-32.8,20.3-44.3,36.1c-10.7,14.7-14.1,35.4-13.9,53.1c0.4,36.3,18.1,75,50.5,93.2&#10;&#9;&#9;C653.5,392.2,657.3,385.7,653.1,383.3L653.1,383.3z" style="fill: rgb(18, 74, 158);"/>
</g>
<g>
	<path class="st1" d="M737.4,203.4c-10.3,1.1-19.9-5.8-26.4-13c-6.2-6.8-11.7-18-4.5-26c8.4-9.3,20.7-1.8,28.6,4.1&#10;&#9;&#9;c9.1,6.8,17.8,16.2,23,26.3c2.2,4.3,8.7,0.5,6.5-3.8c-6.4-12.4-17.3-23.3-28.7-31.2c-11.2-7.7-25.3-11.3-35.4-0.1&#10;&#9;&#9;c-18.7,20.8,15.3,53.3,36.9,51C742.1,210.4,742.2,202.9,737.4,203.4L737.4,203.4z" style="fill: rgb(18, 74, 158);"/>
</g>
<g>
	<path class="st1" d="M828.3,203.9c-15.6-8.1-28.8-27.3-25.7-45.4c1.3-7.9,5.7-14,13.5-16.1c7.3-1.9,15.5-0.8,23-0.8&#10;&#9;&#9;c4.8,0,4.8-7.5,0-7.5c-9.2,0-19.1-1.1-28,2c-9,3.1-13.9,11.5-15.8,20.4c-4.5,21.1,11,44.4,29.2,53.8&#10;&#9;&#9;C828.8,212.6,832.6,206.2,828.3,203.9L828.3,203.9z" style="fill: rgb(18, 74, 158);"/>
</g>
<g>
	<path class="st1" d="M856.5,109.3c-10.1-7.5-15.5-21.4-18.6-33c-3-11.3-5.1-27.6,3.7-37c4.2-4.5,11.5-5.9,17.4-4.7&#10;&#9;&#9;c6.2,1.2,10.4,6,13.4,11.2c6.3,10.9,8,24.4,9.7,36.7c0.7,4.8,7.9,2.7,7.2-2c-2.1-14.4-4.3-30.3-13.1-42.5&#10;&#9;&#9;c-9-12.5-26.7-15.1-38.7-5.2c-11.8,9.7-10.4,28.9-7.6,42.1c3.1,14.9,10.2,31.5,22.8,40.8C856.6,118.6,860.4,112.1,856.5,109.3&#10;&#9;&#9;L856.5,109.3z" style="fill: rgb(18, 74, 158);"/>
</g>
<g>
	<path class="st1" d="M946,88.5c-2.3-19.1-10.2-37.9-19.4-54.6c-8-14.7-20.6-34.2-38.5-37.4c-4.7-0.8-6.7,6.4-2,7.2&#10;&#9;&#9;c16.4,2.9,27.3,21.8,34.6,35.1c8.2,15.1,15.7,32.5,17.7,49.7C939,93.2,946.6,93.3,946,88.5L946,88.5z" style="fill: rgb(18, 74, 158);"/>
</g>
<g>
	<path class="st1" d="M765.2,123c-22.7-9.3-38.4-31.1-49.3-52.2C705,49.5,697.5,25,697.3,0.9c0-4.8-7.5-4.8-7.5,0&#10;&#9;&#9;c0.1,26,8.4,52,20.2,74.9c11.7,22.7,29,44.5,53.1,54.4C767.7,132.1,769.6,124.8,765.2,123L765.2,123z" style="fill: rgb(18, 74, 158);"/>
</g>
<g>
	<path class="st1" d="M746.4,0.9c0.2,29.7,12.5,67.2,43.7,77.1c4.6,1.5,6.6-5.8,2-7.2c-27.8-8.8-38-43.7-38.2-69.8&#10;&#9;&#9;C753.8-3.9,746.3-3.9,746.4,0.9L746.4,0.9z" style="fill: rgb(18, 74, 158);"/>
</g>
<g>
	<path class="st1" d="M634.3,412.5c-26.1-1.1-53.7,17.1-63.4,41.2c-13.4,33.2,8.9,69,29.7,93.7c3.1,3.7,8.4-1.6,5.3-5.3&#10;&#9;&#9;c-18.6-22.2-39-54-28.7-84c7.7-22.3,33.7-39.1,57.1-38.1C639.1,420.2,639.1,412.7,634.3,412.5L634.3,412.5z" style="fill: rgb(18, 74, 158);"/>
</g>
<g>
	<path class="st1" d="M573.3,583.1c-24.7-23.3-43.6-53.5-50-87.1c-6.3-32.8,2.9-65.9,26.2-89.9c19.3-19.9,45.4-32,71.6-39.9&#10;&#9;&#9;c4.6-1.4,2.6-8.6-2-7.2c-38,11.5-76,32.3-94.5,69.1c-14.7,29.3-13.2,63.5-1.9,93.6c9.5,25.4,25.6,48.2,45.3,66.8&#10;&#9;&#9;C571.6,591.7,576.9,586.4,573.3,583.1L573.3,583.1z" style="fill: rgb(18, 74, 158);"/>
</g>
<g>
	<path class="st1" d="M590.5,370.1c-18.3,0-36.8-1.4-54.7-5.4c-16.9-3.7-39.5-10.9-46.7-28.5c-4.1-9.8,0.5-17.7,9.9-21.4&#10;&#9;&#9;c11.1-4.4,23.7-2.8,35-0.4c24.4,5.2,47.5,16.1,73,12.2c4.8-0.7,2.7-8-2-7.2c-27.3,4.2-52.7-10.6-79.3-14&#10;&#9;&#9;c-17.4-2.2-49.1,1.9-45.5,26.6c2.9,20.2,23.8,31,41.2,36.7c19.5,6.4,40.6,8.3,61,8.9c2.7,0.1,5.4,0.1,8,0.1&#10;&#9;&#9;C595.3,377.6,595.3,370.1,590.5,370.1L590.5,370.1z" style="fill: rgb(18, 74, 158);"/>
</g>
<g>
	<path class="st1" d="M671.5,119.2c-6.6-5-16.3-6-24.2-7c-13.2-1.7-26.6-1.7-39.8-1.3c-30.6,1-61.9,4.9-91.1,14.2&#10;&#9;&#9;c-16.5,5.3-45.6,16.3-43.7,38.3c1.1,12.3,10.3,21.8,22.3,24.1c18.2,3.4,38.1-3.2,55.3-8.4c15.2-4.5,32.7-12.3,48.9-9.5&#10;&#9;&#9;c8.6,1.5,13.3,12,9.1,19.7c-3.5,6.4-13.4,8.4-19.7,10.3c-7.6,2.4-15.5,4.8-21.5,10.2c-6.2,5.5-11.3,14.6-11,23.1&#10;&#9;&#9;c0.6,17.1,22.2,22.4,35.8,22.3c8,0,16-1.8,23.2-5.2c4.4-2,0.6-8.5-3.8-6.5c-8.3,3.8-18,4.9-27.1,3.7c-7.2-1-15.6-3.6-19.4-10.2&#10;&#9;&#9;c-4.3-7.4,2.5-17,7.6-21.9c5.6-5.5,14.9-7.1,22.1-9.5c7-2.3,14.9-5,19.4-11.2c4.9-6.8,3.8-16.9-0.2-23.8c-8.2-14.2-31.5-8.5-44.1-5&#10;&#9;&#9;c-18.7,5.2-37,12.3-56.3,14.7c-13.3,1.7-28.2,0.5-32.5-14.3c-5.8-19.7,27.3-30.3,40.9-34.5c28-8.6,57.7-12,86.8-13&#10;&#9;&#9;c12.5-0.4,25.1-0.2,37.6,1.2c7.2,0.8,16.1,1.8,21.8,6.1C671.5,128.5,675.3,122,671.5,119.2L671.5,119.2z" style="fill: rgb(18, 74, 158);"/>
</g>
<g>
	<path class="st1" d="M640.8,112.5c0-15,1.4-30.5,9.1-43.7c10.2-17.4,30.3-24,49.3-26.1c4.8-0.5,4.8-8,0-7.5&#10;&#9;&#9;c-21,2.3-41.7,9.3-54.2,27.3c-9.9,14.4-11.7,32.9-11.7,49.9C633.3,117.3,640.8,117.3,640.8,112.5L640.8,112.5z" style="fill: rgb(18, 74, 158);"/>
</g>
<g>
	<path class="st1" d="M580.1,112.5c0.1-21.3,3.1-42.9,12.6-62.2c9.9-20,26.6-34.8,46.3-44.8c4.3-2.2,0.5-8.7-3.8-6.5&#10;&#9;&#9;c-20.5,10.4-37.6,25.9-48.4,46.3c-10.8,20.5-14.1,44.2-14.2,67.1C572.6,117.3,580.1,117.3,580.1,112.5L580.1,112.5z" style="fill: rgb(18, 74, 158);"/>
</g>
<g>
	<path class="st1" d="M576.8,167.6c-1.2,13.5,2.2,25,7.6,37.2c1.9,4.4,8.4,0.6,6.5-3.8c-4.9-11-7.6-21.3-6.6-33.4&#10;&#9;&#9;C584.8,162.8,577.3,162.8,576.8,167.6L576.8,167.6z" style="fill: rgb(18, 74, 158);"/>
</g>
<g>
	<path class="st1" d="M520.3,186c0.2,53.4,21.3,103.2,60.4,139.7c3.5,3.3,8.8-2,5.3-5.3c-18.2-17-32.9-37-43.1-59.7&#10;&#9;&#9;c-10.5-23.4-15.1-49.2-15.2-74.7C527.8,181.1,520.3,181.1,520.3,186L520.3,186z" style="fill: rgb(18, 74, 158);"/>
</g>
<g>
	<path class="st1" d="M1105.5,398.9c8-36.1,35.9-67,64.8-88.5c29.2-21.7,68.3-39.4,105.3-30.7c18.4,4.3,33.8,15.9,44.8,31.1&#10;&#9;&#9;c8.9,12.3,11.9,29.1,15.8,43.5c7.7,28.8,17.5,67.7,52.6,72.5c3.9,0.5,7.9,0.6,11.8,0.4c4.8-0.3,4.8-7.8,0-7.5&#10;&#9;&#9;c-16.7,1-30.4-5.6-39.5-19.7c-9.1-13.9-13.1-30.8-17.4-46.7c-4-15-7.5-30.8-15.5-44.2c-9.2-15.5-25-27.5-41.6-33.8&#10;&#9;&#9;c-35-13.2-74.7,0.2-105.1,18.7c-32.1,19.5-61.6,48.8-76.8,83.6c-2.7,6.3-5,12.8-6.4,19.5C1097.2,401.6,1104.4,403.6,1105.5,398.9&#10;&#9;&#9;L1105.5,398.9z" style="fill: rgb(18, 74, 158);"/>
</g>
<g>
	<path class="st1" d="M1075.4,339c10.7-20.5,26.1-38.4,42.9-54.2c18.6-17.6,39.9-32.7,63.4-43.1c19.7-8.7,40-11.5,61.4-11&#10;&#9;&#9;c21.2,0.5,43.8,3.2,63.3,12c5.3,2.4,10.5,5.4,14.7,9.5c3.5,3.4,8.8-1.9,5.3-5.3c-13.8-13.5-35-18.1-53.4-21&#10;&#9;&#9;c-19.6-3-39.9-4-59.5-1.3c-23.7,3.2-46.1,14.4-65.8,27.4c-20.9,13.8-39.8,30.9-55.9,50.1c-8.6,10.2-16.4,21.2-22.6,33.1&#10;&#9;&#9;C1066.7,339.5,1073.2,343.3,1075.4,339L1075.4,339z" style="fill: rgb(18, 74, 158);"/>
</g>
<g>
	<path class="st1" d="M1231.3,222.7c1.2-20.9-11.8-38.5-25.7-52.7c-17.7-18-38.7-32.4-58.4-47.9c-8.5-6.7-17-13.2-23-22.4&#10;&#9;&#9;c-5.3-8.1-8.3-17.5-9.9-27c-3.1-18.6,1-39,12.2-54.3c5-6.8,11.9-11.9,19.6-15.2c4.4-1.9,0.6-8.4-3.8-6.5&#10;&#9;&#9;c-35.8,15.3-44,63.8-29.9,96.6c8.9,20.6,27.5,32.7,44.8,45.9c19.3,14.8,40.1,29.8,54.8,49.5c7.4,9.9,12.5,21.4,11.8,34&#10;&#9;&#9;C1223.6,227.5,1231.1,227.5,1231.3,222.7L1231.3,222.7z" style="fill: rgb(18, 74, 158);"/>
</g>
<g>
	<path class="st1" d="M1273.7,224.1c0.3-22.8-5.4-44.8-17.7-64.1c-11.4-18-27.4-32.5-43.7-45.8c-8.4-6.9-17.1-13.5-25.6-20.2&#10;&#9;&#9;c-7.4-5.8-14.8-11.2-19.5-19.6c-8.9-16-6.2-36.5,3.9-51.2c5.4-7.8,13.2-13.5,21.7-17.6c4.4-2.1,0.6-8.5-3.8-6.5&#10;&#9;&#9;c-18,8.6-31.1,24.9-34,44.8c-2.5,16.9,2.6,35.1,15.6,46.6c16.1,14.3,34.2,26.3,50.3,40.7c16,14.3,30.3,30.9,38.3,51&#10;&#9;&#9;c5.3,13.3,7.3,27.6,7.1,41.9C1266.2,228.9,1273.7,228.9,1273.7,224.1L1273.7,224.1z" style="fill: rgb(18, 74, 158);"/>
</g>
<g>
	<path class="st1" d="M1141.9,128c0.6,16.9-7.8,31.8-18.1,44.7c-9.2,11.5-22.1,20.8-29,33.9c-13.5,25.5-6.5,60.3,9.5,83&#10;&#9;&#9;c2.8,3.9,9.3,0.2,6.5-3.8c-15.8-22.3-22.5-57-6.3-80.8c4-5.9,10-10.7,14.8-15.8c5.3-5.6,10.4-11.6,15-17.9&#10;&#9;&#9;c9.2-12.6,15.7-27.4,15.1-43.2C1149.2,123.2,1141.7,123.2,1141.9,128L1141.9,128z" style="fill: rgb(18, 74, 158);"/>
</g>
<g>
	<path class="st1" d="M1136.2,263.2c-14.4-21.1-6.8-52.4,17.5-62.3c10.5-4.3,23.2-6.1,32,2.3c7.7,7.4,11,19.1,14.2,28.9&#10;&#9;&#9;c1.5,4.6,8.8,2.6,7.2-2c-3.9-11.8-8-25-17.6-33.5c-10.7-9.6-25.5-7.5-37.9-3c-29.1,10.6-38.9,48.6-22,73.3&#10;&#9;&#9;C1132.4,270.9,1138.9,267.2,1136.2,263.2L1136.2,263.2z" style="fill: rgb(18, 74, 158);"/>
</g>
<g>
	<path class="st1" d="M1044.4,128.8c13.8,5.8,28.4,8.3,43.2,5.3c14.9-3.1,27.5-12.9,36.7-24.6c3-3.7-2.3-9.1-5.3-5.3&#10;&#9;&#9;c-8.4,10.6-18.9,18.9-32.1,22.4c-13.6,3.5-27.8,0.3-40.5-5C1041.9,119.7,1040,127,1044.4,128.8L1044.4,128.8z" style="fill: rgb(18, 74, 158);"/>
</g>
<g>
	<path class="st1" d="M1024.6,87.9c15,5.8,30.8,10.4,47,8.1c17.1-2.4,29.5-15.3,37.7-29.6c2.4-4.2-4.1-8-6.5-3.8&#10;&#9;&#9;c-7.5,13.1-17.9,23.6-33.3,26.2c-14.4,2.4-29.8-3-43-8.1C1022.1,78.9,1020.1,86.1,1024.6,87.9L1024.6,87.9z" style="fill: rgb(18, 74, 158);"/>
</g>
<g>
	<path class="st1" d="M1072.7,89.5c-12.7-9.5-17.7-26.7-18.3-41.9c-0.5-15.6,4.3-33.3,18.3-42c4.1-2.5,0.3-9-3.8-6.5&#10;&#9;&#9;c-31.6,19.6-28.2,75.9,0,96.9C1072.8,98.9,1076.5,92.3,1072.7,89.5L1072.7,89.5z" style="fill: rgb(18, 74, 158);"/>
</g>
<g>
	<path class="st1" d="M1129.3,343.8c4.5,15.3,9,30.9,9.5,47c0.6,16.5-4.8,31.7-15.6,44c-3.2,3.6,2.1,8.9,5.3,5.3&#10;&#9;&#9;c11.6-13.2,17.6-28.8,17.9-46.4c0.3-17.7-5-35.2-9.8-51.9C1135.2,337.1,1128,339.1,1129.3,343.8L1129.3,343.8z" style="fill: rgb(18, 74, 158);"/>
</g>
<g>
	<path class="st1" d="M1133.4,488.7c27.7-20.2,45.3-49.1,49.4-83.2c3.8-31.8-4.6-64.4-18.4-92.9c-2.1-4.4-8.6-0.5-6.5,3.8&#10;&#9;&#9;c12.9,26.8,20.3,56.7,17.6,86.5c-2.9,32.2-20,60.4-45.9,79.3C1125.8,485,1129.5,491.5,1133.4,488.7L1133.4,488.7z" style="fill: rgb(18, 74, 158);"/>
</g>
<g>
	<path class="st1" d="M1264.8,276.4c0.4,26.9-22.3,45.1-41.4,60.4c-18.6,15-41.8,31.1-47.5,55.9c-1.1,4.7,6.1,6.7,7.2,2&#10;&#9;&#9;c5.8-25,31.4-40.9,50-56.1c19.4-15.8,39.6-35.1,39.2-62.2C1272.2,271.5,1264.7,271.5,1264.8,276.4L1264.8,276.4z" style="fill: rgb(18, 74, 158);"/>
</g>
<g>
	<path class="st1" d="M1175.7,337.6c8.1-10.9,19.3-17,30.2-24.6c11.3-7.8,18.5-18.3,22.4-31.4c1.4-4.6-5.8-6.6-7.2-2&#10;&#9;&#9;c-4.1,13.5-11.9,22.4-23.5,30c-10.8,7-20.6,13.8-28.4,24.2C1166.4,337.7,1172.9,341.4,1175.7,337.6L1175.7,337.6z" style="fill: rgb(18, 74, 158);"/>
</g>
<g>
	<path class="st1" d="M693.6,350.3c-28.5,2.2-55-20.7-59.6-48.3c-5.7-34.4,28.3-52.6,56.4-60.1c4.7-1.3,2.7-8.5-2-7.2&#10;&#9;&#9;c-16.5,4.4-32.6,11.2-45.5,22.7c-12.8,11.4-18.4,27.5-16.5,44.3c3.7,31.8,35,58.7,67.2,56.2C698.4,357.5,698.4,349.9,693.6,350.3&#10;&#9;&#9;L693.6,350.3z" style="fill: rgb(18, 74, 158);"/>
</g>
<g>
	<path class="st1" d="M545.3,272.6c-27.5,0.7-53.1-9.4-75.3-25.1c-18-12.7-33.7-28.7-44.5-47.9c-10.3-18.3-17.1-39.1-19.2-60&#10;&#9;&#9;c-2-19.4,0.6-40.7,13-56.6c4.9-6.2,11.1-11.5,18.7-13.9c8.2-2.6,16.9-0.5,24.8,2.1c8,2.6,15.7,6.2,23.6,9&#10;&#9;&#9;c6.5,2.3,13.3,3.6,20.1,4.5c26.5,3.7,60,1.3,79.7-19.1c3.4-3.5-1.9-8.8-5.3-5.3c-15.5,16-40.4,19-61.6,18.1&#10;&#9;&#9;c-10.4-0.4-21-2.1-30.9-5.4c-12.1-4.1-23.6-10.6-36.5-12.1c-23.3-2.8-40.4,15-48.3,35.2c-7.3,18.8-6.3,40.1-2.4,59.5&#10;&#9;&#9;c5.8,28.9,19.5,56.3,40.2,77.3c27.4,27.7,64.1,48.2,103.9,47.2C550.1,280,550.1,272.5,545.3,272.6L545.3,272.6z" style="fill: rgb(18, 74, 158);"/>
</g>
<g>
	<path class="st1" d="M522.7,220.4c-34.6,2.1-70.3-28.1-76.7-61.6c-7.5-39.1,36.4-64.5,67.9-73.7c4.6-1.4,2.7-8.6-2-7.2&#10;&#9;&#9;c-36.4,10.6-79.6,38.4-73.3,81.7c2.8,19.5,16,37,31,49.1c14.8,12,33.8,20.4,53.2,19.3C527.5,227.6,527.5,220.1,522.7,220.4&#10;&#9;&#9;L522.7,220.4z" style="fill: rgb(18, 74, 158);"/>
</g>
<g>
	<path class="st1" d="M593.3,33.9c-30,0.1-96.2,17.2-98-30.2c-0.2-4.8-7.7-4.8-7.5,0c2.1,54.3,70.2,37.8,105.5,37.7&#10;&#9;&#9;C598.1,41.4,598.1,33.9,593.3,33.9L593.3,33.9z" style="fill: rgb(18, 74, 158);"/>
</g>
<g>
	<path class="st1" d="M526.9,419.5c-20-0.5-40.4-3.7-58.3-13.2c-15.8-8.3-27.7-21.5-35-37.7c-18.8-41.1-6.8-93.5,35.5-114.2&#10;&#9;&#9;c4.3-2.1,0.5-8.6-3.8-6.5c-21.2,10.4-36.4,28.9-43.7,51.2c-6.9,21.1-5.1,43.9,2.1,64.7c6,17.4,16.9,32.4,31.9,43.1&#10;&#9;&#9;c16,11.5,35.6,16.6,54.9,18.8c5.5,0.6,11,0.9,16.5,1.1C531.7,427.2,531.7,419.7,526.9,419.5L526.9,419.5z" style="fill: rgb(18, 74, 158);"/>
</g>
<g>
	<path class="st1" d="M473.7,414.8c-3,38.6-4.1,78.4-16.3,115.5c-5.1,15.4-13,31.7-27.2,40.6c-14.6,9.2-36.7,9-49-3.9&#10;&#9;&#9;c-11.6-12.1-13.6-31.7-13.3-47.6c0.3-18.7,2.4-37.2,1.5-56c-0.8-16.5-3.5-35.9-16.4-47.6c-14.5-13.3-39.6-10.7-54.3,0.6&#10;&#9;&#9;c-6.6,5.1-11.6,12-15,19.6c-4,8.8-4.7,18-6,27.5c-1.2,8.6-3.2,17.1-7.1,24.9c-4.5,8.9-11.5,16.1-18.9,22.6&#10;&#9;&#9;c-3.6,3.2,1.7,8.5,5.3,5.3c8.2-7.2,15.7-15.3,20.6-25.1c4.6-9.2,6.6-19.3,7.9-29.4c1.4-11,3.2-21,9.5-30.4&#10;&#9;&#9;c6.1-9.1,16-15.1,26.8-16.4c46.6-5.9,41.2,56.4,39.6,86.2c-0.9,17.1-1.8,34.1,3.3,50.8c5.1,16.5,16.9,29.7,34.5,32.3&#10;&#9;&#9;c17.3,2.6,34.4-3.3,46.2-16c11.9-12.8,18.3-30.2,22.7-46.8c9.3-34.6,10.6-70.9,13.3-106.5C481.6,410,474.1,410,473.7,414.8&#10;&#9;&#9;L473.7,414.8z" style="fill: rgb(18, 74, 158);"/>
</g>
<g>
	<path class="st1" d="M441.2,395c0.9,27-2,54.1-6.9,80.6c-2.4,13.1-5.6,26.2-9.5,39c-1.3,4.2-4.4,19.2-10.9,19.2&#10;&#9;&#9;c-1.9,0-3.4-3.1-4.1-4.4c-2.3-4.1-3.1-9.1-3.9-13.6c-1.9-12.2-0.3-24.7-0.2-37c0.2-20-1.2-40.5-7.3-59.6&#10;&#9;&#9;c-5-15.7-13.9-30.4-28.5-38.8c-17.3-9.9-38.7-7.9-57.2-2.9c-4.7,1.2-2.7,8.5,2,7.2c18.8-5,39.6-6.6,56.2,5.3&#10;&#9;&#9;c14,10.1,20.3,28.1,23.6,44.3c4.4,21.1,3.7,42.5,3,63.9c-0.4,10.8,0.3,22.6,4.6,32.6c2.2,5.1,6.4,11.1,12.7,10.4&#10;&#9;&#9;c8-0.8,11.9-9.9,14.4-16.4c5.1-13.6,8.3-28.1,11.2-42.3c5.8-28.6,9.1-58.3,8.1-87.5C448.5,390.2,441,390.2,441.2,395L441.2,395z" style="fill: rgb(18, 74, 158);"/>
</g>
<g>
	<path class="st1" d="M387.4,398.2c7.9-14.4,19.2-28.4,36.4-31c4.8-0.7,2.7-8-2-7.2c-18.9,2.9-32.1,18.5-40.8,34.5&#10;&#9;&#9;C378.6,398.7,385,402.5,387.4,398.2L387.4,398.2z" style="fill: rgb(18, 74, 158);"/>
</g>
<g>
	<path class="st1" d="M351.7,379.1c17.1-21.6,39.3-47.6,68.7-50.4c4.8-0.4,4.8-8,0-7.5c-31.8,3-55.3,29-74,52.6&#10;&#9;&#9;C343.4,377.6,348.7,382.9,351.7,379.1L351.7,379.1z" style="fill: rgb(18, 74, 158);"/>
</g>
<g>
	<path class="st1" d="M313,412.7c0.1-16,2.3-31.7,8.2-46.7c6.6-16.7,18.5-30.7,31.6-42.8c11.3-10.4,24.5-19,39.6-22.6&#10;&#9;&#9;c10-2.4,20.4-1.7,30.5-0.1c4.7,0.8,6.8-6.4,2-7.2c-11.2-1.8-22.3-2.5-33.5-0.2c-15.6,3.2-29.3,12.2-41.3,22.5&#10;&#9;&#9;c-14.4,12.4-26.9,27.5-34.7,44.9c-7.3,16.4-9.9,34.3-10,52.2C305.5,417.5,313,417.5,313,412.7L313,412.7z" style="fill: rgb(18, 74, 158);"/>
</g>
<g>
	<path class="st1" d="M394.7,291.3c-3.4-12.1,0.2-25.8,5.5-36.7c7.1-14.6,19.5-25.7,35.2-30c4.7-1.3,2.7-8.5-2-7.2&#10;&#9;&#9;c-17.7,4.8-31.5,17.2-39.7,33.4c-6.4,12.6-10.1,28.6-6.2,42.5C388.8,297.9,396.1,295.9,394.7,291.3L394.7,291.3z" style="fill: rgb(18, 74, 158);"/>
</g>
<g>
	<path class="st1" d="M345.3,319c-21.2-3.8-40.7-16.5-57.1-29.9c-18.7-15.3-35.7-34.8-44.8-57.4c-3.6-9-6.2-18.6-6.9-28.3&#10;&#9;&#9;c-0.5-7.1-0.2-15.8,5.5-20.9c5.5-4.9,16.2-2.6,21.7,1c6.1,4,10.3,11.1,14.1,17.1c8.2,12.9,16.3,28.8,31.6,34.1&#10;&#9;&#9;c11.1,3.8,27.1-0.2,30.2-12.8c3-12.4-4.6-26.5-10.2-37c-8-14.9-17.8-28.8-27.6-42.5c-7.1-9.9-15.1-19.6-20.1-30.8&#10;&#9;&#9;c-4.2-9.3-7.1-19.2-8.6-29.2c-1.2-7.9-1.5-17.2,2.1-24.6c3.6-7.4,11.4-8.9,19-7.8c7.7,1.2,12.9,7,17.1,13.1&#10;&#9;&#9;c9.7,13.9,14.7,30.8,25.6,44c6.4,7.8,20,11.9,27.2,2.6c6.9-8.9,5.5-23,5.1-33.5c-0.9-23.2-7.8-65.6,22.9-72.6&#10;&#9;&#9;c4.7-1.1,2.7-8.3-2-7.2c-32,7.2-30.1,45.4-28.8,71c0.3,7,0.7,14,0.6,21c-0.1,4.8-0.3,10.3-2.4,14.8c-1.7,3.6-4.6,4.6-8.5,4.3&#10;&#9;&#9;c-6-0.4-9.9-6.8-12.7-11.3c-9.2-14.6-14.6-31.6-26.4-44.4c-10-10.8-29.9-14.2-40.2-1.9c-11.1,13.1-6.6,34.9-2.2,49.8&#10;&#9;&#9;c4.1,13.7,10.5,24.8,18.7,36.3c9.5,13.4,19.2,26.7,27.9,40.7c7.1,11.5,16,25.2,16.8,39.1c0.7,13-14.7,15.4-24.3,10.5&#10;&#9;&#9;c-14-7.2-20.7-25.2-29.5-37.4c-4.1-5.7-9-11.2-15.7-14c-7.3-3.1-16.8-3.5-23.8,0.4c-14.8,8.3-10.9,31.7-7.6,44.9&#10;&#9;&#9;c5.6,22.1,18.3,41.4,33.7,58c15.9,17,35.3,31.7,56.6,41.3c6.8,3.1,13.9,5.6,21.2,6.9C348.1,327.1,350.1,319.9,345.3,319L345.3,319z&#10;&#9;&#9;" style="fill: rgb(18, 74, 158);"/>
</g>
<g>
	<path class="st1" d="M426.5,67.7c0-12.3-0.5-24.9,2.5-37c3.2-13,12-21.8,23.7-27.6c4.3-2.1,0.5-8.6-3.8-6.5&#10;&#9;&#9;c-12.5,6.2-21.7,15.6-26.2,28.8c-4.5,13.4-3.7,28.3-3.7,42.3C419,72.5,426.5,72.5,426.5,67.7L426.5,67.7z" style="fill: rgb(18, 74, 158);"/>
</g>
<g>
	<path class="st1" d="M400.7,151.8c-15.5,2.4-32.3,3.8-46.1,11.8c-5.7,3.3-10.4,8.7-10,15.6c0.4,6.1,4.2,10.6,10.1,12&#10;&#9;&#9;c12.6,3.1,25.6-4.1,38.2-1.4c5.6,1.2,5.7,7.8,3.7,12.3c-2.4,5.6-11.5,7.7-16.6,9.5c-7,2.5-14.9,4.8-20.2,10.3&#10;&#9;&#9;c-5.1,5.3-4.6,13.6,0.2,18.9c5.8,6.3,17,5.4,24.5,4.4c8.5-1.1,17.1-3.3,24.8-7c4.4-2.1,0.5-8.6-3.8-6.5c-7.1,3.5-15.4,5.4-23.2,6.3&#10;&#9;&#9;c-5.6,0.7-17.6,1.8-18.6-6.2c-0.8-6.2,7.7-9,12.2-10.8c6.9-2.7,14.2-4.6,20.5-8.5c10.5-6.4,12.7-25-0.4-29.7&#10;&#9;&#9;c-12.2-4.3-25.7,3-38.1,1.3c-3.8-0.5-6.5-2.7-5.9-6.9c0.8-5.4,7.7-8.4,12.1-10.1c12.2-4.9,25.6-6.3,38.5-8.2&#10;&#9;&#9;C407.4,158.3,405.4,151.1,400.7,151.8L400.7,151.8z" style="fill: rgb(18, 74, 158);"/>
</g>
<g>
	<path class="st1" d="M389,261.7c-15.2,5.1-32.8,1.9-48.5,1c-8.5-0.5-28.2-3.1-29.8,9.3c-1.7,13.1,13.1,17.8,22.9,19.8&#10;&#9;&#9;c5.8,1.2,12,1.9,17.3,4.7c6.3,3.4,4.9,10.1,2.8,15.8c-1.6,4.6,5.6,6.5,7.2,2c2.1-6,3.3-12.8-0.1-18.6c-2.8-4.7-8.2-7-13.2-8.5&#10;&#9;&#9;c-8.6-2.6-25.1-1.7-28.9-11.7c-1.6-4.1,1.1-4.7,5-5.3c6.5-1.1,13.5-0.2,20.1,0.2c15.4,1,32.4,3.5,47.3-1.4&#10;&#9;&#9;C395.5,267.4,393.6,260.2,389,261.7L389,261.7z" style="fill: rgb(18, 74, 158);"/>
</g>
<g>
	<path class="st1" d="M307.4,307.7c-19.6,8.6-29.2,33.7-33.6,53c-6.2,26.8-4.1,56.2,8.9,80.8c2.3,4.3,8.7,0.5,6.5-3.8&#10;&#9;&#9;c-12-22.9-13.6-50-8.1-75c3.8-17.5,12.3-40.7,30.1-48.5C315.6,312.3,311.8,305.8,307.4,307.7L307.4,307.7z" style="fill: rgb(18, 74, 158);"/>
</g>
<g>
	<path class="st1" d="M287.8,329.9c-22-15.3-41.3-33.7-57.6-54.9c-7.9-10.2-15.7-21-21.9-32.3c-5.7-10.4-8.7-22.3-10.1-34&#10;&#9;&#9;c-1.4-12.5-0.7-25.3,2.3-37.6c2.5-10.3,6.9-21.9,15.1-29c15.1-13.1,40.7-7.8,57.5-1.6c11.4,4.2,22.2,10.6,31.3,18.7&#10;&#9;&#9;c3.6,3.2,8.9-2.1,5.3-5.3c-16.1-14.6-36.9-23.7-58.4-26.5c-17.7-2.3-38.2,1.5-48.1,17.9c-12.7,20.9-15.2,46.5-11.5,70.2&#10;&#9;&#9;c3.8,24.8,18,45,33,64.5c16.8,21.8,36.7,40.7,59.4,56.4C288,339.2,291.7,332.7,287.8,329.9L287.8,329.9z" style="fill: rgb(18, 74, 158);"/>
</g>
<g>
	<path class="st1" d="M324.7,70c0-11.5-0.7-23.1,0.9-34.5c1.7-11.6,6.9-21.7,14.3-30.7c3.1-3.7-2.2-9-5.3-5.3&#10;&#9;&#9;c-8,9.7-13.8,20.3-16.1,32.8c-2.3,12.4-1.4,25.2-1.4,37.7C317.2,74.9,324.7,74.9,324.7,70L324.7,70z" style="fill: rgb(18, 74, 158);"/>
</g>
<g>
	<path class="st1" d="M467.2,533.4c19.7,2.3,40,5.2,56.9-7.5c3.8-2.9,0.1-9.4-3.8-6.5c-15.8,11.9-34.7,8.7-53.1,6.5&#10;&#9;&#9;C462.4,525.3,462.4,532.8,467.2,533.4L467.2,533.4z" style="fill: rgb(18, 74, 158);"/>
</g>
<g>
	<path class="st1" d="M475.3,479.6c14.2,0,30.7,1.5,42.4-8.1c3.7-3.1-1.6-8.3-5.3-5.3c-9.7,8-25.4,6-37.1,5.9&#10;&#9;&#9;C470.5,472.1,470.5,479.6,475.3,479.6L475.3,479.6z" style="fill: rgb(18, 74, 158);"/>
</g>
<g>
	<path class="st1" d="M433.1,571.6c8,25.8,23.2,47.8,40.5,68.2c14.3,16.9,31.8,31.5,37.2,53.8c1.9,8,2.2,17-1.7,24.5&#10;&#9;&#9;c-4,7.7-13.2,12-21.7,11.5c-8.4-0.5-16.4-5.8-23.2-10.3c-7.7-5-15-10.6-23.1-15.1c-8.6-4.7-18.9-7.9-28.4-3.7&#10;&#9;&#9;c-10.4,4.7-18.7,16.4-19.5,27.7c-0.8,10.7,6.9,20.1,14.2,27c7.8,7.5,17.3,13.2,24.4,21.4c3.2,3.7,8.5-1.7,5.3-5.3&#10;&#9;&#9;c-10.8-12.4-27.7-19.5-34.9-35c-4.3-9.2,1.2-18.4,7.6-24.8c6-6,13.5-6.5,21.1-3.8c16.9,5.9,29.5,20.4,46.2,27&#10;&#9;&#9;c16.3,6.4,34.8-1.5,40.7-18.1c3.5-10,1.7-21.5-1.6-31.3c-3.9-11.8-10.9-20.9-19-30.1c-23-25.8-46.4-52-56.8-85.7&#10;&#9;&#9;C438.9,565,431.7,567,433.1,571.6L433.1,571.6z" style="fill: rgb(18, 74, 158);"/>
</g>
<g>
	<path class="st1" d="M482.1,530.8c0.2,25,10.5,50.3,25.2,70.2c14.9,20.3,37.6,36.9,64,34.1c4.8-0.5,4.8-8,0-7.5&#10;&#9;&#9;c-24.3,2.6-44.5-12.7-58.2-31.4c-13.6-18.5-23.2-42.3-23.4-65.4C489.6,526,482.1,526,482.1,530.8L482.1,530.8z" style="fill: rgb(18, 74, 158);"/>
</g>
<g>
	<path class="st1" d="M359.6,793c24.7,2.5,51.6,2.5,73.4-11.1c19.1-11.9,30-32.7,38.6-52.8c1.9-4.4-4.6-8.2-6.5-3.8&#10;&#9;&#9;c-8,18.7-17.7,38-35.1,49.6c-20.4,13.6-47,13-70.4,10.6C354.7,785.1,354.8,792.6,359.6,793L359.6,793z" style="fill: rgb(18, 74, 158);"/>
</g>
<g>
	<path class="st1" d="M323.1,461.8c-0.2,28.7-8.9,56.9-4.8,85.6c1.9,13.4,8.9,24.1,21.3,30c12.9,6,27.8,3.7,36.1-8.5&#10;&#9;&#9;c2.7-4-3.8-7.8-6.5-3.8c-7.8,11.4-22.3,9-32.3,2c-9.8-6.9-11.6-19.2-12.2-30.3c-1.2-25.2,5.6-50,5.8-75.1&#10;&#9;&#9;C330.6,457,323.1,457,323.1,461.8L323.1,461.8z" style="fill: rgb(18, 74, 158);"/>
</g>
<g>
	<path class="st1" d="M269.2,401.9c-11.2,14.4-20,30.6-26.1,47.8c-6.1,17.4-9.3,37-3.7,55c5,16.2,19.1,30.5,35.4,35.2&#10;&#9;&#9;c16.7,4.8,33.5-3,45.3-14.6c3.5-3.4-1.8-8.7-5.3-5.3c-10.6,10.3-24.5,16.5-39.2,12.3c-15.4-4.4-26.9-19.6-30.4-34.7&#10;&#9;&#9;c-3.6-15.6,0.4-32.5,5.6-47.3c5.5-15.4,13.7-30.2,23.7-43.1C277.4,403.4,272.1,398.1,269.2,401.9L269.2,401.9z" style="fill: rgb(18, 74, 158);"/>
</g>
<g>
	<path class="st1" d="M402.6,581.1c0.3,48.9,45.7,119.9,101.5,92.1c4.3-2.2,0.5-8.6-3.8-6.5c-50.2,25-90-43-90.3-85.6&#10;&#9;&#9;C410.1,576.3,402.6,576.3,402.6,581.1L402.6,581.1z" style="fill: rgb(18, 74, 158);"/>
</g>
<g>
	<path class="st1" d="M542.9,629.1c-4.4,41.3,39.7,69.9,76.3,72.8c4.8,0.4,4.8-7.1,0-7.5c-32.8-2.5-72.7-28.3-68.8-65.3&#10;&#9;&#9;C550.9,624.3,543.4,624.3,542.9,629.1L542.9,629.1z" style="fill: rgb(18, 74, 158);"/>
</g>
<g>
	<path class="st1" d="M368.9,839.8c16.9,0,33.8-1.2,50.4-4.5c18.1-3.6,33.1-11.7,47.4-23.3c29.3-23.8,52.9-59.9,53.3-98.8&#10;&#9;&#9;c0.1-4.8-7.4-4.8-7.5,0c-0.4,36.6-22.8,69.5-49.8,92.4c-13.6,11.4-28,18.9-45.4,22.5c-15.9,3.3-32.3,4.2-48.4,4.2&#10;&#9;&#9;C364.1,832.3,364.1,839.8,368.9,839.8L368.9,839.8z" style="fill: rgb(18, 74, 158);"/>
</g>
<g>
	<path class="st1" d="M574.6,686.6c-5.3,21.9-4.1,46.7,0.6,68.6c5,23.2,26.7,39.8,47.8,47.5c18.8,6.9,38.5,5,57.7,0.9&#10;&#9;&#9;c24.5-5.2,48.6-14.5,70.1-27.4c4.1-2.5,0.4-9-3.8-6.5c-19.8,11.9-41.6,20.3-64.1,25.7c-17.3,4.1-34.9,6.3-52.2,1.8&#10;&#9;&#9;c-20.6-5.4-42.8-21.2-48-42.8c-2.6-10.5-3.4-21.5-3.7-32.3c-0.3-11.2,0.2-22.6,2.8-33.5C583,683.8,575.8,681.9,574.6,686.6&#10;&#9;&#9;L574.6,686.6z" style="fill: rgb(18, 74, 158);"/>
</g>
<g>
	<path class="st1" d="M422.7,891.3c17.4-2.3,34.2-7.5,50.2-14.4c18.1-7.8,35.6-18.7,48.6-33.6c29.9-34.1,54-77,56.9-123&#10;&#9;&#9;c0.3-4.8-7.2-4.8-7.5,0c-2.8,44.3-26.6,84.5-54.7,117.7c-11.8,13.9-28.1,23.7-44.5,31.3c-15.4,7.1-32.2,12.4-49.1,14.6&#10;&#9;&#9;C418,884.4,417.9,891.9,422.7,891.3L422.7,891.3z" style="fill: rgb(18, 74, 158);"/>
</g>
<g>
	<path class="st1" d="M411.9,833.7c0,16.8,1,33.6,3.8,50.2c2.3,13.9,6.1,32.3,18.4,41c12.2,8.8,31.4,2.9,39.7-8.6&#10;&#9;&#9;c9.1-12.7,7.7-31.5,7.7-46.3c0-4.8-7.5-4.8-7.5,0c0,13.1,1.2,28.2-5.2,40.2c-5.7,10.7-23.3,15.8-32.5,6.8&#10;&#9;&#9;c-9.6-9.3-12-26.1-13.9-38.6c-2.3-14.7-2.9-29.7-2.9-44.6C419.4,828.9,411.9,828.9,411.9,833.7L411.9,833.7z" style="fill: rgb(18, 74, 158);"/>
</g>
<g>
	<path class="st1" d="M544.6,805.2c20.2,30.2,57.6,49.2,93.6,50.2c39,1.1,76.9-25.5,79.4-66.1c0.3-4.8-7.2-4.8-7.5,0&#10;&#9;&#9;c-2.4,37.5-38.2,59.5-73.3,58.5c-32.7-0.9-67.5-19.1-85.8-46.4C548.4,797.4,541.9,801.2,544.6,805.2L544.6,805.2z" style="fill: rgb(18, 74, 158);"/>
</g>
<g>
	<path class="st1" d="M436.6,648.8c-45.1-17.4-85.9,25.1-87.9,68.5c-0.7,14.9,1.2,30,2.9,44.7c2.4,20.9,5.5,41.7,8.8,62.5&#10;&#9;&#9;c3.4,21.4,7.2,42.7,11.2,64c3,15.7,5.3,32.1,10,47.4c6.3,20.3,23.6,35.2,43.2,42c20.7,7.1,44.3,4.3,62.3-8.3&#10;&#9;&#9;c25.2-17.7,34.7-49.2,37.3-78.5c1.4-16,0.7-32.1-1-48.1c-0.5-4.8-8-4.8-7.5,0c3.8,35.5,3.5,76.8-18.9,106.7&#10;&#9;&#9;c-13.4,17.8-35.5,27-57.5,24c-20-2.8-38.7-14.6-47.9-32.8c-2.4-4.8-3.7-10-4.9-15.2c-1.8-8.1-3.5-16.2-5.1-24.4&#10;&#9;&#9;c-4.1-20.5-7.8-41-11.3-61.6c-6.3-37.4-13.1-75.5-14.3-113.5c-0.6-19.6,5.1-38.6,18-53.7c15.2-17.8,38.3-25.1,60.4-16.6&#10;&#9;&#9;C439.1,657.8,441,650.6,436.6,648.8L436.6,648.8z" style="fill: rgb(18, 74, 158);"/>
</g>
<g>
	<path class="st1" d="M342.9,576.4c0.1,33.7,5.7,66.6,23.9,95.5c2.6,4.1,9.1,0.3,6.5-3.8c-17.6-27.8-22.8-59.2-22.9-91.7&#10;&#9;&#9;C350.4,571.6,342.9,571.6,342.9,576.4L342.9,576.4z" style="fill: rgb(18, 74, 158);"/>
</g>
<g>
	<path class="st1" d="M691.6,834.7c10.7,37,52,45.9,85.7,40.1c17.2-3,32.9-10,45.4-22.3c17.6-17.3,27.4-40.7,35.3-63.6&#10;&#9;&#9;c4.7-13.5,8.9-27.3,13.9-40.8c1.7-4.5-5.6-6.5-7.2-2c-8.7,23.4-14.8,47.9-25.9,70.3c-9.3,18.9-22.9,36.9-42.8,45.2&#10;&#9;&#9;c-29.6,12.3-76.1,12.3-93.4-19.6c-1.6-3-2.7-6.1-3.7-9.3C697.5,828.1,690.2,830.1,691.6,834.7L691.6,834.7z" style="fill: rgb(18, 74, 158);"/>
</g>
<g>
	<path class="st1" d="M847.5,798.2c13.1,19.2,34.1,32.9,54.8,42.6c19.9,9.3,42.5,15.3,63.9,7.7c20.3-7.2,34.8-24.9,42.2-44.6&#10;&#9;&#9;c8.4-22.2,5.8-45.6-5.5-66.2c-9.3-17-22.7-31.5-32-48.5c-2.3-4.2-8.8-0.5-6.5,3.8c11.9,21.6,30.8,39.6,38.6,63.4&#10;&#9;&#9;c7.3,21.9,1,47.5-13,65.5c-14.4,18.3-36.2,25.9-58.9,21.1c-23.3-5-46.3-17.9-64-33.7c-4.9-4.4-9.5-9.3-13.2-14.8&#10;&#9;&#9;C851.3,790.5,844.8,794.2,847.5,798.2L847.5,798.2z" style="fill: rgb(18, 74, 158);"/>
</g>
<g>
	<path class="st1" d="M1113.2,535.4c6.6,8.6,11.1,19.1,15.5,28.9c6.9,15.4,12.7,31.4,17.7,47.5c5.1,16.6,9.4,33.7,11.2,51&#10;&#9;&#9;c1.3,12.5,2.1,27.2-4.2,38.7c-3.5,6.4-13,13.5-20.2,8.6c-4.1-2.8-5.4-9.6-6.3-14c-1.5-6.8-1.8-13.9-2.3-20.9&#10;&#9;&#9;c-0.4-5.6-0.7-11.3-1.7-16.8c-1.6-8.4-4.9-16.7-7.9-24.8c-6.6-17.7-14.2-35.4-23.6-51.9c-2.4-4.2-8.9-0.4-6.5,3.8&#10;&#9;&#9;c11.5,20.3,20.8,42.3,27.9,64.5c4.9,15.4,3.8,31.3,6.7,47c1.2,6.6,3.4,13.9,8.7,18.5c5.1,4.4,12,4.1,18,1.8&#10;&#9;&#9;c11-4.3,16.4-15,18.5-26.1c2.5-13.6,0.9-27.7-1.3-41.2c-2.7-16.5-7.2-32.7-12.4-48.5c-4.9-14.8-10.5-29.3-16.9-43.5&#10;&#9;&#9;c-4.1-9-8.3-18.6-14.4-26.5C1116.8,527.9,1110.3,531.6,1113.2,535.4L1113.2,535.4z" style="fill: rgb(18, 74, 158);"/>
</g>
<g>
	<path class="st1" d="M1036.8,685.1c14.5,0,29.2,1.1,43.7-0.7c13.9-1.8,26.3-7.2,37.4-15.8c3.8-3-1.5-8.2-5.3-5.3&#10;&#9;&#9;c-10.7,8.2-22.9,12.7-36.2,14.1c-13.1,1.3-26.4,0.3-39.5,0.3C1031.9,677.6,1031.9,685.1,1036.8,685.1L1036.8,685.1z" style="fill: rgb(18, 74, 158);"/>
</g>
<g>
	<path class="st1" d="M1157.7,635.2c19.6-17.9,35.1-40.3,48.3-63.2c11.2-19.6,22.8-41.2,25.3-63.9c1.5-13-0.4-34.9-18.1-34.4&#10;&#9;&#9;c-17.1,0.5-27.8,19.4-35.8,32c-7.1,11.3-13.6,23-20.6,34.4c-6.5,10.4-13.3,21.1-22.4,29.4c-3.6,3.3,1.7,8.6,5.3,5.3&#10;&#9;&#9;c15.2-13.8,25.1-33.3,35.4-50.7c5.3-9,10.7-18,16.8-26.5c4.3-6,9.4-12.6,16.5-15.2c19.2-7.2,16.3,22.8,14.2,33.2&#10;&#9;&#9;c-2.3,11.1-7.3,21.6-12.1,31.8c-6.1,12.7-13.1,25-20.7,36.9c-10.6,16.6-22.8,32.4-37.4,45.7&#10;&#9;&#9;C1148.8,633.1,1154.1,638.4,1157.7,635.2L1157.7,635.2z" style="fill: rgb(18, 74, 158);"/>
</g>
<g>
	<path class="st1" d="M1176.3,414.7c9.1,5.3,12,18.8,13.7,28.3c2.9,16.5,1.1,33.9-3.9,49.7c-1.4,4.6,5.8,6.6,7.2,2&#10;&#9;&#9;c5.4-17.4,6.8-35.7,3.9-53.7c-1.9-11.6-6.3-26.4-17.2-32.8C1175.9,405.7,1172.1,412.2,1176.3,414.7L1176.3,414.7z" style="fill: rgb(18, 74, 158);"/>
</g>
<g>
	<path class="st1" d="M1196.5,368.8c18.5,7.7,25.8,30.9,29.5,48.7c5.9,27.9,4.5,57.5,0,85.5c-0.8,4.7,6.5,6.8,7.2,2&#10;&#9;&#9;c4.8-30,6-61.1-0.3-90.9c-4.3-20.6-13.7-43.9-34.4-52.5C1194,359.7,1192.1,366.9,1196.5,368.8L1196.5,368.8z" style="fill: rgb(18, 74, 158);"/>
</g>
<g>
	<path class="st1" d="M1226.4,395.4c41.3-17.8,81.7-54.4,88-100.9c0.6-4.8-6.9-4.7-7.5,0c-5.9,43.8-45.8,77.9-84.3,94.5&#10;&#9;&#9;C1218.1,390.8,1222,397.3,1226.4,395.4L1226.4,395.4z" style="fill: rgb(18, 74, 158);"/>
</g>
<g>
	<path class="st1" d="M1008.5,692.1c4,18.2,23.2,37.9,42.5,38c10.8,0.1,20.7-7.7,25.3-17.1c4.6-9.3,4.5-20.5,2.4-30.4&#10;&#9;&#9;c-1-4.7-8.2-2.7-7.2,2c3.3,15.7-1.7,38.1-21.6,38c-15.4-0.1-31-18.5-34.1-32.5C1014.6,685.4,1007.4,687.4,1008.5,692.1&#10;&#9;&#9;L1008.5,692.1z" style="fill: rgb(18, 74, 158);"/>
</g>
<g>
	<path class="st1" d="M1010.2,770.8c23.9,13.6,52.8,14.7,78,3.9c25.1-10.7,42.2-34,44.6-61.2c0.4-4.8-7.1-4.8-7.5,0&#10;&#9;&#9;c-4.8,53.1-68.4,75.2-111.4,50.8C1009.8,761.9,1006,768.4,1010.2,770.8L1010.2,770.8z" style="fill: rgb(18, 74, 158);"/>
</g>
<g>
	<path class="st1" d="M906.3,841.1c0,12.8,0.8,25.7,0,38.5c-0.9,13.1-4.7,25.2-11.2,36.6c-11.5,20.1-28,37.4-33.7,60.4&#10;&#9;&#9;c-1.2,4.7,6.1,6.7,7.2,2c5.8-23.2,23.1-40.8,34.4-61.3c13.2-23.8,10.8-50,10.7-76.2C913.8,836.2,906.3,836.2,906.3,841.1&#10;&#9;&#9;L906.3,841.1z" style="fill: rgb(18, 74, 158);"/>
</g>
<g>
	<path class="st1" d="M924.2,978.6c2.8-10.6,8.8-20,14.4-29.4c6.2-10.5,11.9-21.3,15.3-33c6.2-21.2,11-44.9,7.8-67&#10;&#9;&#9;c-0.7-4.8-7.9-2.7-7.2,2c3.1,21.6-2.5,45.1-8.6,65.7c-6.4,21.4-23.1,38.2-28.9,59.8C915.7,981.2,923,983.2,924.2,978.6L924.2,978.6&#10;&#9;&#9;z" style="fill: rgb(18, 74, 158);"/>
</g>
<g>
	<path class="st1" d="M828.8,841.5c17.2,27.5,50.1,45.1,82.3,45.4c4.8,0,4.8-7.5,0-7.5c-29.6-0.3-60.1-16.4-75.9-41.6&#10;&#9;&#9;C832.8,833.6,826.3,837.4,828.8,841.5L828.8,841.5z" style="fill: rgb(18, 74, 158);"/>
</g>
<g>
	<path class="st1" d="M856.8,871.1c0.1,12.5,1.5,24.7,4.8,36.7c3.3,11.8,7.9,23.2,11.8,34.8c1.5,4.6,8.8,2.6,7.2-2&#10;&#9;&#9;c-3.7-11.2-8.1-22.1-11.4-33.5c-3.5-11.8-4.9-23.8-4.9-36C864.3,866.2,856.8,866.2,856.8,871.1L856.8,871.1z" style="fill: rgb(18, 74, 158);"/>
</g>
<g>
	<path class="st1" d="M808.8,856.1c-0.6,23.7,3.1,47.5,10.6,70c6.4,19.1,15.7,37.8,29.5,52.7c3.3,3.6,8.6-1.8,5.3-5.3&#10;&#9;&#9;c-12.9-13.9-21.4-31.5-27.5-49.3c-7.5-21.8-11-45-10.4-68C816.5,851.2,809,851.2,808.8,856.1L808.8,856.1z" style="fill: rgb(18, 74, 158);"/>
</g>
<g>
	<path class="st1" d="M815.6,912.3c-34.4,0.5-57.1,31.9-60.7,63.7c-0.5,4.8,7,4.7,7.5,0c3.2-27.7,23.3-55.8,53.2-56.2&#10;&#9;&#9;C820.4,919.8,820.4,912.3,815.6,912.3L815.6,912.3z" style="fill: rgb(18, 74, 158);"/>
</g>
<g>
	<path class="st1" d="M789.1,864.5c-10.4,4.1-20.8,8.2-30.6,13.6c-11.6,6.4-21.8,15.1-30.5,25.1c-17.6,20.2-25.2,46-30,71.9&#10;&#9;&#9;c-0.9,4.7,6.4,6.7,7.2,2c4.4-24,11.1-48.1,26.9-67.2c8.2-9.9,17.9-18.2,29-24.7c9.5-5.5,19.8-9.4,30-13.5&#10;&#9;&#9;C795.5,869.9,793.6,862.7,789.1,864.5L789.1,864.5z" style="fill: rgb(18, 74, 158);"/>
</g>
<g>
	<path class="st1" d="M521.1,897.2c29.1-10.9,54.4-29.9,65.6-59.6c1.7-4.5-5.5-6.5-7.2-2c-10.2,27.1-34,44.5-60.4,54.4&#10;&#9;&#9;C514.6,891.6,516.6,898.9,521.1,897.2L521.1,897.2z" style="fill: rgb(18, 74, 158);"/>
</g>
<g>
	<path class="st1" d="M510,946.3c11.4-6.8,23.4-13.1,36.5-15.8c11.4-2.4,20,2.4,29.2,8.6c9,6,17.6,12.7,27.7,16.6&#10;&#9;&#9;c8.8,3.4,18.1,1.6,25.8-3.5c8.6-5.7,10-15.5,8.5-25.1c-1.6-9.9-9-15.2-17.7-18.5c-8.4-3.2-20-10.6-13.8-21&#10;&#9;&#9;c4.6-7.8,16.3-11.2,24.7-9.1c18.9,4.7,34.4,18.8,49.5,30.2c6.7,5,13.7,9.1,22.1,10.1c10.5,1.2,21-4.6,29.5-10&#10;&#9;&#9;c4.1-2.6,0.3-9.1-3.8-6.5c-9.7,6.2-20.4,11.6-31.9,7.3c-10.1-3.8-18.9-12.7-27.2-19.2c-8-6.3-17-11.3-26.3-15.5&#10;&#9;&#9;c-8.7-3.9-17-6-26.3-3.1c-8.5,2.6-16.8,8.8-19.1,17.7c-2.5,9.8,5.1,18.8,13.1,23.2c3.6,1.9,7.6,3,11.2,4.7&#10;&#9;&#9;c5.1,2.3,7.4,6.5,8.8,11.8c3,11.8-5.1,18.2-15.4,20.9c-8,2.1-18.3-5.7-24.5-9.7c-8.1-5.3-15.7-11.6-24.7-15.4&#10;&#9;&#9;c-19.7-8.3-43.1,5.1-59.7,15C502.1,942.3,505.8,948.8,510,946.3L510,946.3z" style="fill: rgb(18, 74, 158);"/>
</g>
<g>
	<path class="st1" d="M627.7,947.8c25.1,11.5,52.7,11.6,79.4,6.4c4.7-0.9,2.7-8.2-2-7.2c-24.5,4.8-50.5,4.9-73.6-5.6&#10;&#9;&#9;C627.1,939.3,623.3,945.8,627.7,947.8L627.7,947.8z" style="fill: rgb(18, 74, 158);"/>
</g>
<g>
	<path class="st1" d="M518.9,938.2c9.3,9.8,19,19.1,30,26.9c10.4,7.4,22.1,12.9,33.7,18.1c4.4,2,8.2-4.5,3.8-6.5&#10;&#9;&#9;c-11.3-5-22.4-10.4-32.7-17.4c-11-7.4-20.5-16.9-29.6-26.5C520.9,929.4,515.6,934.7,518.9,938.2L518.9,938.2z" style="fill: rgb(18, 74, 158);"/>
</g>
<g>
	<path class="st1" d="M376.1,895.8c-23.6,0-47.2-1.6-69.7-9.1c-11.9-4-23-9.9-33.2-17.2c-10.3-7.4-21.8-17.2-27.6-28.6&#10;&#9;&#9;c-4.1-8-4.4-18.5,0.3-26.3c5.3-8.7,16.1-7.3,23.7-2.7c17.6,10.7,28.1,37.6,52.2,35.6c6.5-0.6,12.4-4.6,14.6-10.8&#10;&#9;&#9;c2.8-7.8,0.3-16-3.6-23c-6.8-12.5-21-19.6-31.6-28.5c-4.4-3.7-9.7-8.6-10.4-14.6c-0.8-7.2,5-14.1,11.6-15.8&#10;&#9;&#9;c7.6-1.9,16.5,1.7,23.5,4.1c8.2,2.9,16.4,6.4,25.1,7.8c4.7,0.7,6.8-6.5,2-7.2c-18.3-2.9-38.6-18.6-57.3-10.2&#10;&#9;&#9;c-7.6,3.4-12.8,13.1-12.4,21.3c0.4,7.9,6.1,14.3,11.7,19.2c6.9,6.2,14.9,11.1,22,17.1c7,5.9,14.3,15.1,12.9,24.9&#10;&#9;&#9;c-1.8,12.1-16.4,8.1-23.4,4c-9.5-5.5-16.2-15.7-24-23.1c-6.8-6.5-14.9-11.8-24.6-12.1c-7.7-0.2-14.3,4-18.5,10.2&#10;&#9;&#9;c-4.5,6.7-5,15.3-3.9,23c1.6,10.8,8.6,19,16,26.6c16.4,17,37.1,29,59.7,35.5c21,6.1,43.2,7.2,64.9,7.3&#10;&#9;&#9;C380.9,903.3,380.9,895.8,376.1,895.8L376.1,895.8z" style="fill: rgb(18, 74, 158);"/>
</g>
<g>
	<path class="st1" d="M322.7,750.1c-4.9-19.2-6.5-39.3-2.4-58.8c4.6-21.9,16.7-40.9,32.9-56c3.5-3.3-1.8-8.6-5.3-5.3&#10;&#9;&#9;c-16.9,15.7-29.2,35.4-34.6,58c-5,21.1-3.2,43.3,2.1,64.2C316.7,756.8,323.9,754.8,322.7,750.1L322.7,750.1z" style="fill: rgb(18, 74, 158);"/>
</g>
<g>
	<path class="st1" d="M285.4,539.6c0,20.6,1.4,42,11.7,60.4c9.8,17.4,26.2,30.7,40.4,44.3c3.5,3.3,8.8-2,5.3-5.3&#10;&#9;&#9;c-13.6-13-29-25.6-38.7-42c-10.2-17.1-11.1-38-11.2-57.4C292.8,534.8,285.3,534.8,285.4,539.6L285.4,539.6z" style="fill: rgb(18, 74, 158);"/>
</g>
<g>
	<path class="st1" d="M1094.3,769.5c5.1,8.3,13.6,15.2,20.8,21.6c11.7,10.4,24.2,20,37.4,28.4c16.9,10.6,52.7,29.4,62.6,0.5&#10;&#9;&#9;c11.2-32.7-32.3-43.6-47.4-63.9c-3.2-4.3-3.5-8.6,0.1-12.8c5.8-6.9,13.6-6.3,21.1-2.7c17.7,8.5,30,25.3,47.6,34&#10;&#9;&#9;c9.2,4.6,20.6,5.3,28.9-1.7c6.6-5.5,11.6-15.6,9.9-24.3c-1.8-9.1-9.1-16.2-15.9-21.9c-8.2-6.8-17.3-12.5-26.2-18.2&#10;&#9;&#9;c-9.8-6.3-20.7-14-25.3-25.3c-4-9.8,3.5-17.2,12.8-19.1c10.9-2.2,23.1,4.7,32.1,9.9c9.7,5.5,18.3,11.4,28.9,15.4&#10;&#9;&#9;c13.5,5.1,27.8,8.3,42.1,9.6c12.9,1.1,24.9-0.8,35.9-7.8c10.6-6.8,18.2-17.2,24.8-27.8c5.7-9.1,10.6-19.5,18.9-26.5&#10;&#9;&#9;c3.7-3.1-1.6-8.4-5.3-5.3c-13.6,11.5-19.5,30.2-31.2,43.4c-6.9,7.8-15.7,13.7-25.9,16c-9.9,2.2-21.1,0.4-30.9-1.5&#10;&#9;&#9;c-11-2.1-22-5.2-32.3-9.7c-11-4.8-20.4-12.4-31.2-17.5c-9-4.2-18.8-7.1-28.8-5.1c-8.2,1.6-16.2,8.2-18.1,16.5&#10;&#9;&#9;c-2.4,10.1,4.9,20,11.4,26.9c7.6,8.1,17.4,13.7,26.7,19.7c9.1,5.9,18.2,12.1,25.3,20.3c6.6,7.7,6.4,16.9-0.3,24.7&#10;&#9;&#9;c-15.1,17.6-41.1-10.3-52.8-19.5c-12.5-9.9-30-22.4-45-10c-5,4.2-7.8,10.1-6.9,16.6c0.8,5.7,5.6,10.7,9.6,14.4&#10;&#9;&#9;c11.3,10.4,25.5,17.4,35.8,28.9c4.4,4.9,6.9,10.6,6,17.2c-0.7,4.9-2.4,10.3-6.8,13.1c-9.1,6-23.2-0.6-31.6-4.7&#10;&#9;&#9;c-16-7.8-30.7-18.7-44.3-30.1c-8.7-7.3-19.9-16-25.6-25.3C1098.3,761.6,1091.8,765.3,1094.3,769.5L1094.3,769.5z" style="fill: rgb(18, 74, 158);"/>
</g>
<g>
	<path class="st1" d="M1188,604.3c15.8-11.4,36.4-0.4,51.3,7.4c19.3,10.2,37.9,22.8,59.2,28.7c15.9,4.4,30.3,2.4,42.7-8.8&#10;&#9;&#9;c11.6-10.5,19-24.9,27.8-37.6c7.5-10.8,17.2-22.6,31.5-22.3c4.8,0.1,4.8-7.4,0-7.5c-14.9-0.3-25.7,9.6-34.2,20.7&#10;&#9;&#9;c-9.6,12.4-16.6,26.7-27.3,38.2c-4.8,5.1-10.4,9.4-17.2,11.3c-8.1,2.3-17,0.1-24.8-2.4c-21.3-6.6-39.9-20-59.7-29.9&#10;&#9;&#9;c-16-8-36.8-16.2-53.1-4.5C1180.3,600.7,1184,607.2,1188,604.3L1188,604.3z" style="fill: rgb(18, 74, 158);"/>
</g>
<g>
	<path class="st1" d="M292.5,587.9c-8.5,7.1-14.7,16.2-16.6,27.2c-1.7,9.9,0.4,20,4.1,29.1c6.6,16.3,18.5,32,32.7,42.5&#10;&#9;&#9;c3.9,2.9,7.6-3.6,3.8-6.5c-12.1-8.9-21.8-22.2-28.2-35.7c-3.9-8.2-6.1-17.2-5.3-26.3c0.8-10.3,7.1-18.8,14.8-25.2&#10;&#9;&#9;C301.5,590.1,296.2,584.9,292.5,587.9L292.5,587.9z" style="fill: rgb(18, 74, 158);"/>
</g>
<g>
	<path class="st1" d="M321.8,749.9c-29.7-33.9-64.4-68.7-77.2-113.2c-2.4-8.4-4-16.6-2.7-25.3c1.4-9.4,4.9-18.4,9.2-26.9&#10;&#9;&#9;c8.4-16.7,21.2-33.4,38.4-41.8c4.3-2.1,0.5-8.6-3.8-6.5c-17.9,8.8-31.3,26-40.5,43.2c-4.6,8.6-8.2,18-10.2,27.6&#10;&#9;&#9;c-1.8,8.9-1.1,17.2,0.9,26c11,48.3,49,86.1,80.5,122.1C319.6,758.9,324.9,753.5,321.8,749.9L321.8,749.9z" style="fill: rgb(18, 74, 158);"/>
</g>
<g>
	<path class="st1" d="M253.5,566.3c-19-14-32.6-32.2-41.6-54c-3.7-9-7.5-18.3-10-27.7c-2.5-9.3-1.7-19.7-0.4-29.1&#10;&#9;&#9;c3.1-22.8,10.9-46.5,23.4-65.8c14.4-22.4,28.5-44.9,45.9-65.1c3.1-3.6-2.1-9-5.3-5.3c-18.2,21.2-33,44.7-48.1,68.1&#10;&#9;&#9;c-13.1,20.4-20.6,46-23.6,69.9c-1.2,9.7-1.4,19.7,0.9,29.2c2.5,10.1,6.9,20.3,10.9,29.8c9.7,22.8,24.2,41.5,44.2,56.3&#10;&#9;&#9;C253.6,575.7,257.4,569.2,253.5,566.3L253.5,566.3z" style="fill: rgb(18, 74, 158);"/>
</g>
<g>
	<path class="st1" d="M1278.3,352.1c1.8,17.5,9.1,35.5,22.6,47.3c15.9,13.8,36.2,11,52.6-0.5c3.9-2.8,0.2-9.3-3.8-6.5&#10;&#9;&#9;c-14.1,9.9-30.5,13-44.3,1c-11.5-10.1-18-26.3-19.5-41.2C1285.3,347.3,1277.8,347.3,1278.3,352.1L1278.3,352.1z" style="fill: rgb(18, 74, 158);"/>
</g>
<g>
	<path class="st1" d="M1243.8,379.1c-0.5,34.8,29.9,60.9,60.2,71.9c16.8,6.1,35.4,7.8,52.9,4.2c19-3.9,35.3-15.3,46.9-30.6&#10;&#9;&#9;c2.9-3.9-3.6-7.6-6.5-3.8c-21.5,28.4-57.9,34.5-90.3,23.4c-27.5-9.4-56.2-33.6-55.7-65C1251.4,374.3,1243.9,374.3,1243.8,379.1&#10;&#9;&#9;L1243.8,379.1z" style="fill: rgb(18, 74, 158);"/>
</g>
<g>
	<path class="st1" d="M1272.3,436.1c-0.1,22.9-3.2,45.8-7.9,68.2c-2.5,11.6-5.5,23.2-9.5,34.4c-1.7,4.8-3.7,9.5-6,14&#10;&#9;&#9;c-2,4.1-4,7.6-4.2,12.3c-0.6,17,22.1,22.8,34.6,16.9c7.8-3.7,11-12.5,13.9-20c4.1-10.4,7.1-21.3,9.7-32.1&#10;&#9;&#9;c6.4-26.2,10.3-53.2,11.3-80.2c0.2-4.8-7.3-4.8-7.5,0c-1,26.8-5.1,53.6-11.4,79.7c-2.6,10.7-5.7,21.4-9.8,31.7&#10;&#9;&#9;c-3.1,7.9-6.8,15.4-16.3,16c-6.9,0.5-15.3-3.2-17-10.5c-0.9-3.9,1.9-7.8,3.6-11.1c2.4-4.8,4.4-9.8,6.2-14.8&#10;&#9;&#9;c8.2-22.5,12.6-46.5,15.4-70.3c1.4-11.4,2.3-22.8,2.3-34.3C1279.8,431.3,1272.3,431.3,1272.3,436.1L1272.3,436.1z" style="fill: rgb(18, 74, 158);"/>
</g>
<g>
	<path class="st1" d="M1309.6,495.2c34.9,6.8,72.4,0.2,94.2-30.2c2.8-3.9-3.7-7.7-6.5-3.8c-19.7,27.5-54.5,32.8-85.8,26.8&#10;&#9;&#9;C1306.8,487.1,1304.8,494.3,1309.6,495.2L1309.6,495.2z" style="fill: rgb(18, 74, 158);"/>
</g>
<g>
	<path class="st1" d="M1330.8,494.6c0.9,24.5-3.3,49.4-10.4,72.7c-6.7,22.3-17.6,48.3-38.8,60.5c-4.2,2.4-0.4,8.9,3.8,6.5&#10;&#9;&#9;c22.3-12.8,34-39,41.5-62.5c7.9-24.6,12.3-51.4,11.4-77.2C1338.1,489.8,1330.6,489.8,1330.8,494.6L1330.8,494.6z" style="fill: rgb(18, 74, 158);"/>
</g>
<g>
	<path class="st1" d="M1371.3,487.1c0,37.9-2.3,75-13.4,111.5c-1.4,4.6,5.8,6.6,7.2,2c11.3-37.1,13.6-74.9,13.6-113.5&#10;&#9;&#9;C1378.8,482.3,1371.3,482.3,1371.3,487.1L1371.3,487.1z" style="fill: rgb(18, 74, 158);"/>
</g>
<g>
	<path class="st1" d="M1400.6,192.4c-20-0.6-40.1,3.7-56.1,16.2c-16,12.5-22.4,32.5-21.6,52.2c0.8,19.8,9.5,38.7,18.8,55.8&#10;&#9;&#9;c9.7,17.6,21.6,34.8,36.1,48.7c6.2,5.9,13.9,12.3,22.8,13.1c4.8,0.4,4.8-7.1,0-7.5c-5.7-0.5-11.2-5.3-15.3-8.9&#10;&#9;&#9;c-7-6.2-13.2-13.5-18.9-20.9c-12.8-16.9-23.8-35.8-30.9-55.8c-6.7-18.8-8.1-40.4,2.5-58.2c10.2-17.2,30.5-25.1,49.6-26.9&#10;&#9;&#9;c4.3-0.4,8.7-0.4,13-0.3C1405.4,200,1405.4,192.5,1400.6,192.4L1400.6,192.4z" style="fill: rgb(18, 74, 158);"/>
</g>
<g>
	<path class="st1" d="M1401.6,234.5c-9.4-1.6-20.1-1.5-26.9,6.2c-6.1,6.9-6.4,17-5.1,25.7c1.6,10.7,5.6,21,10.9,30.4&#10;&#9;&#9;c4.5,8,10.3,16.1,18.2,21c4.1,2.6,7.9-3.9,3.8-6.5c-13.4-8.3-21.4-27.2-24.8-41.9c-1.6-6.9-2.4-15.1,1-21.6&#10;&#9;&#9;c4-7.5,13.6-7.4,20.8-6.2C1404.3,242.5,1406.3,235.3,1401.6,234.5L1401.6,234.5z" style="fill: rgb(18, 74, 158);"/>
</g>
<g>
	<path class="st1" d="M1343.2,213c-8.2-9.6-20.9-14.2-32.8-17.2c-13.1-3.2-27-4.3-40.4-3.4c-4.8,0.3-4.8,7.8,0,7.5&#10;&#9;&#9;c12-0.8,24,0.1,35.7,2.6c11.6,2.4,24.2,6.5,32.1,15.8C1341,221.9,1346.3,216.6,1343.2,213L1343.2,213z" style="fill: rgb(18, 74, 158);"/>
</g>
<g>
	<path class="st1" d="M1163.6,34.9c9.2,0,18.5,0.2,27.2,3.1c7.9,2.5,13.8,8.3,18.4,15c12.4,18.1,18,47,5.1,66.3&#10;&#9;&#9;c-2.7,4,3.8,7.8,6.5,3.8c14.3-21.3,8.6-52.5-4.4-72.8c-5.1-8-11.9-14.9-20.9-18.5c-10-4.1-21.3-4.3-31.9-4.3&#10;&#9;&#9;C1158.7,27.4,1158.7,34.9,1163.6,34.9L1163.6,34.9z" style="fill: rgb(18, 74, 158);"/>
</g>
<g>
	<path class="st1" d="M1224.2,63.6c6.7-22.1,29.7-37.4,27.1-62.5c-0.5-4.8-8-4.8-7.5,0c2.4,23.6-20.5,39.4-26.9,60.5&#10;&#9;&#9;C1215.5,66.3,1222.8,68.2,1224.2,63.6L1224.2,63.6z" style="fill: rgb(18, 74, 158);"/>
</g>
<g>
	<path class="st1" d="M1253.8,160.5c8.9-20.1,13.2-41.4,10.9-63.3c-2.4-23.1-11.9-44.8-22.9-64.9c-2.3-4.2-8.8-0.5-6.5,3.8&#10;&#9;&#9;c10.1,18.5,18.5,37.9,21.6,58.9c3.1,21.1-1.1,42.4-9.6,61.8C1245.4,161.1,1251.9,164.9,1253.8,160.5L1253.8,160.5z" style="fill: rgb(18, 74, 158);"/>
</g>
<g>
	<path class="st1" d="M1264.1,115.9c18.3,0.1,39.7,3.5,49.2-16.1c9.2-18.9-1.2-38.5-4.3-57.5c-1.3-8.3,0.3-14.6,8-18.7&#10;&#9;&#9;c3.8-2,7.6-1.6,11.2,0.5c9.2,5.6,14.7,17.9,20.3,26.7c5.4,8.4,11.6,17.7,20.8,22.4c10.9,5.5,22.1,0.6,31-6.4c3.8-3-1.5-8.3-5.3-5.3&#10;&#9;&#9;c-4.9,3.8-10.6,7-16.9,6.6c-4.8-0.3-9-3.6-12.3-6.8c-8.6-8.6-14-20-20.9-30c-5.5-8-13.3-17.6-24.2-16.5c-6,0.6-12.5,4.2-16,9.2&#10;&#9;&#9;c-4.8,6.9-3.8,15.8-2.3,23.6c3,15.8,11.5,32.6,4.5,48.4c-7.4,16.7-28,12.5-42.8,12.4C1259.2,108.3,1259.2,115.8,1264.1,115.9&#10;&#9;&#9;L1264.1,115.9z" style="fill: rgb(18, 74, 158);"/>
</g>
<g>
	<path class="st1" d="M1259.6,150.4c23.7-0.1,46.2-3,68.8-10.2c12.4-3.9,24.3-8.5,35.9-14.4c12.6-6.5,24.6-13.9,37.7-19.4&#10;&#9;&#9;c4.4-1.9,0.6-8.3-3.8-6.5c-11.9,5.1-23.1,11.7-34.5,17.8c-11.5,6.1-23.4,10.8-35.8,14.8c-22.4,7.3-44.7,10.3-68.2,10.3&#10;&#9;&#9;C1254.7,142.9,1254.7,150.4,1259.6,150.4L1259.6,150.4z" style="fill: rgb(18, 74, 158);"/>
</g>
<g>
	<path class="st1" d="M1304.3,144c9.3,18.6,17.3,37,17.5,58.1c0,4.8,7.5,4.8,7.5,0c-0.2-22.4-8.7-42.1-18.5-61.9&#10;&#9;&#9;C1308.6,135.9,1302.2,139.7,1304.3,144L1304.3,144z" style="fill: rgb(18, 74, 158);"/>
</g>
<g>
	<path class="st1" d="M1319.6,175.9c26.5,1.2,50.4-11.7,76.5-13.5c4.8-0.3,4.8-7.8,0-7.5c-26,1.8-50.1,14.7-76.5,13.5&#10;&#9;&#9;C1314.7,168.1,1314.7,175.6,1319.6,175.9L1319.6,175.9z" style="fill: rgb(18, 74, 158);"/>
</g>
<g>
	<path class="st1" d="M1313.1,62c-23.6-7.4-24.1-41.4-21.4-61.4c0.7-4.7-6.6-6.8-7.2-2c-3.4,24.4-1.7,61.7,26.6,70.6&#10;&#9;&#9;C1315.7,70.7,1317.7,63.4,1313.1,62L1313.1,62z" style="fill: rgb(18, 74, 158);"/>
</g>
<g>
	<path class="st1" d="M1260.7,729.7c10.5-13.5,21.1-26.9,34.5-37.5c3.8-3-1.6-8.3-5.3-5.3c-13.4,10.6-24,24-34.5,37.5&#10;&#9;&#9;C1252.5,728.2,1257.7,733.5,1260.7,729.7L1260.7,729.7z" style="fill: rgb(18, 74, 158);"/>
</g>
<g>
	<path class="st1" d="M1224.7,701.2c10.4-10.3,22-19,33-28.5c3.7-3.2-1.7-8.5-5.3-5.3c-11,9.5-22.6,18.2-33,28.5&#10;&#9;&#9;C1216,699.3,1221.3,704.6,1224.7,701.2L1224.7,701.2z" style="fill: rgb(18, 74, 158);"/>
</g>
<g>
	<path class="st1" d="M1211.2,801.7c9.1-8.9,19.5-16.7,26.1-27.8c2.5-4.2-4-7.9-6.5-3.8c-6.3,10.5-16.3,17.8-24.9,26.2&#10;&#9;&#9;C1202.5,799.8,1207.8,805.1,1211.2,801.7L1211.2,801.7z" style="fill: rgb(18, 74, 158);"/>
</g>
<g>
	<path class="st1" d="M1174.3,768c5.5-8,12.8-14.3,18.9-21.7c3-3.7-2.2-9.1-5.3-5.3c-6.5,8-14.2,14.7-20.1,23.3&#10;&#9;&#9;C1165.1,768.2,1171.6,771.9,1174.3,768L1174.3,768z" style="fill: rgb(18, 74, 158);"/>
</g>
<g>
	<path class="st1" d="M1271.2,710.8c19.7,14.7,43.2,25.5,68.3,23.5c25.8-2,47.3-18.1,63.2-37.6c3-3.7-2.2-9.1-5.3-5.3&#10;&#9;&#9;c-15.1,18.4-34.8,33.6-59.2,35.5c-23.2,1.8-45.1-9-63.2-22.6C1271.1,701.4,1267.4,708,1271.2,710.8L1271.2,710.8z" style="fill: rgb(18, 74, 158);"/>
</g>
<g>
	<path class="st1" d="M1262.9,771.7c8.7,8.1,18.2,15.3,27.2,22.9c8,6.8,16.3,14.1,20.9,23.7c4.2,8.7,1.3,19-5.4,25.6&#10;&#9;&#9;c-4.5,4.4-11.2,1.7-16-0.7c-12.9-6.7-24.3-19.7-39.4-21.3c-8.1-0.9-14.4,3.5-19.3,9.6c-5.6,6.9-6.1,15.1-2,22.8&#10;&#9;&#9;c4.1,7.9,11.6,14,17.7,20.3c4.6,4.9,11.1,12.6,6.7,19.5c-4.1,6.4-15.4,6.9-22,6.9c-10.2-0.1-20.2-3-29-8&#10;&#9;&#9;c-34.1-19.5-67.4-41.2-98.1-65.7c-18.9-15.1-38.7-31.8-51.4-52.7c-2.5-4.1-9-0.4-6.5,3.8c10.1,16.6,24.5,30.3,39.1,42.9&#10;&#9;&#9;c17.1,14.9,35.5,28.3,54.2,41c15.9,10.9,32.2,21.2,48.7,31c6.7,4,13.3,8.1,20.6,10.9c9.2,3.5,19.5,4.8,29.2,3.8&#10;&#9;&#9;c7.4-0.7,15.7-3,20.7-8.9c5.1-6.1,4-13.8,0.5-20.4c-4.1-7.8-11.6-13.6-17.5-20c-5.9-6.3-11-13.7-5.6-21.9&#10;&#9;&#9;c18.7-28.8,50.8,33.3,74.7,12.3c13.1-11.5,11.3-29.7,1.8-42.4c-12-16.1-30-26.8-44.5-40.4C1264.7,763.1,1259.4,768.4,1262.9,771.7&#10;&#9;&#9;L1262.9,771.7z" style="fill: rgb(18, 74, 158);"/>
</g>
<g>
	<path class="st1" d="M1292.2,794.2c8.6-8.6,17.1-17.4,24.4-27.2c7.5-10,12.9-21.2,17.1-32.9c1.6-4.6-5.6-6.5-7.2-2&#10;&#9;&#9;c-8.2,22.8-22.7,39.9-39.5,56.8C1283.5,792.3,1288.8,797.7,1292.2,794.2L1292.2,794.2z" style="fill: rgb(18, 74, 158);"/>
</g>
<g>
	<path class="st1" d="M1312.9,761.1c5.9,17,11.7,34.1,14.9,51.8c3.2,17.7,2.4,35.6-2.1,53c-2.5,9.5-6.5,18.6-9.2,28&#10;&#9;&#9;c-2.4,8.3-3.7,17-4.6,25.6c-1.9,18.8-0.7,37.8-0.6,56.6c0,4.8,7.5,4.8,7.5,0c0-18.3-1-36.7,0.5-55c0.8-9.1,2.5-18.1,5-26.9&#10;&#9;&#9;c2.9-10.1,7.1-19.6,9.6-29.8c8.8-36.2-1.9-71.2-13.7-105.3C1318.6,754.5,1311.4,756.5,1312.9,761.1L1312.9,761.1z" style="fill: rgb(18, 74, 158);"/>
</g>
<g>
	<path class="st1" d="M1350.3,977.6c0-43.2-5.2-112,46.7-128.4c4.6-1.5,2.6-8.7-2-7.2c-56.2,17.7-52.3,88.3-52.3,135.6&#10;&#9;&#9;C1342.8,982.4,1350.3,982.4,1350.3,977.6L1350.3,977.6z" style="fill: rgb(18, 74, 158);"/>
</g>
<g>
	<path class="st1" d="M1357.8,725.6c-1.5,24.5,5.1,68,38.2,65.2c4.8-0.4,4.8-7.9,0-7.5c-28.3,2.3-32-37.6-30.7-57.7&#10;&#9;&#9;C1365.6,720.7,1358.1,720.8,1357.8,725.6L1357.8,725.6z" style="fill: rgb(18, 74, 158);"/>
</g>
<g>
	<path class="st1" d="M1322.1,882.5c-11.3-1.8-22.8-1-32.5,5.5c-8.9,5.9-14.2,15.5-17.7,25.3c-7.6,21.3-7.1,45-7,67.3&#10;&#9;&#9;c0,4.8,7.5,4.8,7.5,0c0-32.5-1.7-98.6,47.8-90.9C1324.8,890.4,1326.8,883.2,1322.1,882.5L1322.1,882.5z" style="fill: rgb(18, 74, 158);"/>
</g>
<g>
	<path class="st1" d="M1264.1,955.8c-22.8,1.1-46.6-1.9-66.6-13.6c-10.2-6-20.4-15.5-24.7-26.7c-3.7-9.5,4.7-19.6,9-27.5&#10;&#9;&#9;c2.3-4.3-4.2-8-6.5-3.8c-5.2,9.6-12.8,19.6-10.4,31.1c2.6,12.4,14.2,23.2,24,30.2c21.3,15.3,49.6,19,75.1,17.8&#10;&#9;&#9;C1268.9,963.1,1268.9,955.6,1264.1,955.8L1264.1,955.8z" style="fill: rgb(18, 74, 158);"/>
</g>
<g>
	<path class="st1" d="M1194.3,949.1c-0.2,10.4-4.2,20.3-5.9,30.5c-0.7,4.7,6.5,6.8,7.2,2c1.7-10.9,5.9-21.3,6.1-32.5&#10;&#9;&#9;C1201.9,944.2,1194.4,944.2,1194.3,949.1L1194.3,949.1z" style="fill: rgb(18, 74, 158);"/>
</g>
<g>
	<path class="st1" d="M1116.3,844.1c-0.2,44.7-18.2,104.6,25.9,135.2c4,2.8,7.7-3.7,3.8-6.5c-40.6-28.2-22.3-87.8-22.1-128.8&#10;&#9;&#9;C1123.8,839.2,1116.3,839.2,1116.3,844.1L1116.3,844.1z" style="fill: rgb(18, 74, 158);"/>
</g>
<g>
	<path class="st1" d="M989,824.1c2,9,5,18.9,12.4,25c5.2,4.3,11.7,5.4,18.2,4.7c10.8-1,26.7-9.6,35.7-0.3c10.8,11,7.9,30.9,7.6,44.7&#10;&#9;&#9;c-0.6,22.8,2.5,44.5,11.6,65.6c2.7,6.2,5.9,12.2,9.4,18.1c2.5,4.2,8.9,0.4,6.5-3.8c-13.2-22.3-19.9-46.1-20-72&#10;&#9;&#9;c-0.1-15.8,2.9-33.1-3.6-48.1c-2.9-6.6-7-12.2-13.8-14.9c-5.9-2.3-12.8-1.1-18.7,0.2c-6.3,1.3-12.6,3.3-19.1,3.2&#10;&#9;&#9;c-7.5-0.2-12.1-5.5-15.1-11.9c-1.8-3.9-2.9-8.3-3.8-12.5C995.2,817.4,987.9,819.4,989,824.1L989,824.1z" style="fill: rgb(18, 74, 158);"/>
</g>
<g>
	<path class="st1" d="M950.1,916.7c12.7-2,26,0.8,32.5,12.9c7.3,13.6,2.1,31.6-3.7,44.6c-2,4.4,4.5,8.2,6.5,3.8&#10;&#9;&#9;c7.3-16.1,12-35.5,3.7-52.2c-7.6-15.4-25.4-18.8-41-16.3C943.3,910.2,945.3,917.4,950.1,916.7L950.1,916.7z" style="fill: rgb(18, 74, 158);"/>
</g>
<g>
	<path class="st1" d="M958.1,877.8c19.8,0,42.8,1.1,58.1,15.3c22.6,21,11,56.3,5.8,81.9c-1,4.7,6.3,6.7,7.2,2&#10;&#9;&#9;c5.9-29,16.5-64.1-6.9-88.4c-16.1-16.8-42.5-18.3-64.3-18.4C953.2,870.3,953.2,877.8,958.1,877.8L958.1,877.8z" style="fill: rgb(18, 74, 158);"/>
</g>
<g>
	<path class="st1" d="M383.6,936.3c-15.8,0-32.2-0.3-47.3,5c-15.7,5.5-25.7,17.9-29.9,33.7c-1.2,4.7,6,6.7,7.2,2&#10;&#9;&#9;c3.8-14.4,12.6-24.6,26.8-29.2c13.7-4.5,28.8-4,43.1-4C388.4,943.8,388.4,936.3,383.6,936.3L383.6,936.3z" style="fill: rgb(18, 74, 158);"/>
</g>
<g>
	<path class="st1" d="M320.6,948.3c-17.4,1-34.4-5.8-43.8-21c-9.6-15.4-6.3-34,3.6-48.3c2.8-4-3.7-7.7-6.5-3.8&#10;&#9;&#9;c-11.6,16.8-14.1,38-3.6,55.9c10.2,17.5,30.6,25.9,50.3,24.7C325.4,955.5,325.4,948,320.6,948.3L320.6,948.3z" style="fill: rgb(18, 74, 158);"/>
</g>
<g>
	<path class="st1" d="M265.5,908.3c-35.8-18.2-71.8-55.7-72.7-98.1c-0.2-9.3,1.9-18.4,6.3-26.6c5.4-10.2,14.7-18.1,22.7-26.3&#10;&#9;&#9;c17.5-17.9,35.2-36.6,55.7-51c3.9-2.8,0.2-9.3-3.8-6.5c-21.1,14.8-39.3,33.8-57.3,52.2c-8.2,8.4-17.3,16.5-23.3,26.8&#10;&#9;&#9;c-4.8,8.2-7.1,17.5-7.8,26.8c-1.4,20.5,7.2,40.9,18.3,57.7c12.6,19.1,29.9,35.1,49.5,46.8c2.8,1.7,5.7,3.2,8.5,4.7&#10;&#9;&#9;C266,917,269.8,910.5,265.5,908.3L265.5,908.3z" style="fill: rgb(18, 74, 158);"/>
</g>
<g>
	<path class="st1" d="M245.3,727.4c-18.3-14.4-34.2-32.1-48.9-50c-15-18.3-30.6-38.3-40.3-60c-3.9-8.9-6.5-18.9-7-28.6&#10;&#9;&#9;c-0.3-6.4,0.5-16.2,8.6-16.9c7.4-0.6,13.1,6,17.3,11.2c4.8,6.1,8.6,12.9,13.4,19c4.7,6,12,10.7,18.9,5.1c7.5-6.1,7.5-15.4,5.1-24&#10;&#9;&#9;c-2.9-10.2-8.4-19.4-11.2-29.7c-3.2-11.5,0.2-20.8,10.5-27.2c4.1-2.5,0.3-9-3.8-6.5c-7.2,4.4-13,10.5-14.9,18.9&#10;&#9;&#9;c-1.7,7.4,0.2,15.1,2.7,22.1c2.6,7.4,6.2,14.4,8.8,21.9c1.8,5.3,3.8,12.2-0.1,17c-4.1,4.9-7.4,0.8-10.5-3c-4.8-6-8.6-12.9-13.4-19&#10;&#9;&#9;c-4.4-5.8-10.1-11.2-17.4-12.9c-7.2-1.7-14.4,1-18.2,7.4c-6.5,10.8-2.6,27,0.9,38.2c4.6,15.2,13.5,28.7,22.4,41.7&#10;&#9;&#9;c10.8,15.7,22.7,30.7,35.3,44.9c11.3,12.8,23.3,25.2,36.8,35.8C243.7,735.7,249.1,730.4,245.3,727.4L245.3,727.4z" style="fill: rgb(18, 74, 158);"/>
</g>
<g>
	<path class="st1" d="M160.4,566.2c-8.5-18.4-14.1-41.1-8.8-61.3c2.6-9.6,10.5-16.2,18.2-22c8.1-6,16.8-11.1,25.2-16.6&#10;&#9;&#9;c4-2.7,0.3-9.2-3.8-6.5c-16.6,11-39.8,21.6-46.5,41.9c-7.2,21.9-0.1,48.2,9.1,68.3C155.9,574.4,162.4,570.6,160.4,566.2&#10;&#9;&#9;L160.4,566.2z" style="fill: rgb(18, 74, 158);"/>
</g>
<g>
	<path class="st1" d="M162,479.4c-25-17.6-61.8-28.1-82.7,1c-5.3,7.3-7.4,16.2-11.9,23.9c-4,6.8-9.9,12.9-17.4,15.7&#10;&#9;&#9;c-18.7,6.9-36.6-10.4-47.3-23.5c-3.1-3.7-8.3,1.6-5.3,5.3c11.2,13.6,26.5,27.5,45.3,27.1c16.2-0.3,27.9-13.3,34.4-26.9&#10;&#9;&#9;c4.1-8.5,6.8-16.8,13.7-23.6c5.4-5.3,12.6-8.3,20.1-9c17-1.7,33.9,6.9,47.4,16.5C162.2,488.6,165.9,482.1,162,479.4L162,479.4z" style="fill: rgb(18, 74, 158);"/>
</g>
<g>
	<path class="st1" d="M75.5,487.6c-8,34.2-7.2,72.3,8.1,104.4c10.9,22.8,44.7,56.9,70.2,32.7c3.5-3.3-1.8-8.6-5.3-5.3&#10;&#9;&#9;c-10.9,10.3-25.3,4.7-35.9-2.9c-11.2-8-18.8-20-24.3-32.3c-12.8-29-12.7-64.2-5.5-94.6C83.8,484.9,76.6,482.9,75.5,487.6&#10;&#9;&#9;L75.5,487.6z" style="fill: rgb(18, 74, 158);"/>
</g>
<g>
	<path class="st1" d="M112.9,467.6c-0.1,26.8-8.2,73.5,30.7,75.7c4.8,0.3,4.8-7.2,0-7.5c-32.5-1.8-23.3-46.7-23.2-68.2&#10;&#9;&#9;C120.4,462.8,112.9,462.8,112.9,467.6L112.9,467.6z" style="fill: rgb(18, 74, 158);"/>
</g>
<g>
	<path class="st1" d="M0,436.8c46.8-1.2,42.3,56.9,35,88.2c-1.1,4.7,6.1,6.7,7.2,2c5.1-22.2,8.4-47.2,0.6-69.2&#10;&#9;&#9;c-6.7-18.9-23-29-42.8-28.5C-4.8,429.5-4.8,437,0,436.8L0,436.8z" style="fill: rgb(18, 74, 158);"/>
</g>
<g>
	<path class="st1" d="M1.1,373.8c50.6-3.9,93.3,47.3,93.7,95.2c0,4.8,7.5,4.8,7.5,0c-0.5-51.7-46.6-106.9-101.2-102.7&#10;&#9;&#9;C-3.7,366.7-3.7,374.2,1.1,373.8L1.1,373.8z" style="fill: rgb(18, 74, 158);"/>
</g>
<g>
	<path class="st1" d="M88.1,427.8c37.8,0,76.5-1.6,113,10.4c4.6,1.5,6.6-5.7,2-7.2c-37.1-12.1-76.5-10.7-115-10.6&#10;&#9;&#9;C83.3,420.3,83.3,427.8,88.1,427.8L88.1,427.8z" style="fill: rgb(18, 74, 158);"/>
</g>
<g>
	<path class="st1" d="M67.9,391.1c0.1-9.1,3-18.3,6.5-26.6c3.3-7.7,8.4-18.1,16.7-21.6c3-1.2,7.5-1.5,9.9,0.9c2.3,2.3,1.9,7,1.9,9.9&#10;&#9;&#9;c-0.1,8.3-1.9,16.6-0.4,24.9c1.7,9.7,8.3,21.1,19.1,21.8c8.8,0.5,13.2-7.1,15.2-14.3c5.3-19.1,2.6-40.2,13.1-57.7&#10;&#9;&#9;c2.3-3.8,5.5-8.1,9.7-9.8c5.2-2.2,10,3.2,11.8,7.6c3.4,8.3,1.4,18.8,1.6,27.6c0.2,7.5,1.5,16.3,7.7,21.3c4.2,3.4,8.9,2.9,12.9-0.3&#10;&#9;&#9;c4.4-3.6,6.7-9.9,8.7-15c2.4-6.1,4.2-12.5,5.9-18.9c2-7.4,5.3-13.8,8.9-20.6c5.4-10.2,11.7-19.7,20.7-27c3.8-3-1.6-8.3-5.3-5.3&#10;&#9;&#9;c-10.4,8.3-17.3,19.7-23.4,31.3c-2.3,4.4-5.1,8.9-6.5,13.6c-0.9,3-1.7,6.1-2.5,9.1c-2.1,7.6-4.3,15.3-8,22.2&#10;&#9;&#9;c-1,1.8-2.4,4.7-4.5,5.5c-2.6,1-4.9-4.2-5.5-5.9c-3.8-10.3-0.6-22.4-1.9-33.2c-1.2-9.6-7.7-20.2-18.4-20.3&#10;&#9;&#9;c-10.6-0.1-18,12.4-21.8,20.6c-4,8.5-5,18-6.3,27.2c-1.1,8.3-1.9,16.7-3.9,24.9c-0.6,2.5-1.3,5.6-3.1,7.6c-3.5,4-8.4,1.7-11.3-1.4&#10;&#9;&#9;c-12.3-13.1-1.1-31.2-6.3-46.1c-2.2-6.2-7.9-8.7-14.1-8.6c-7.6,0.1-13.7,5.1-18.2,10.8c-9.7,12.2-16.2,30-16.4,45.7&#10;&#9;&#9;C60.3,395.9,67.8,395.9,67.9,391.1L67.9,391.1z" style="fill: rgb(18, 74, 158);"/>
</g>
<g>
	<path class="st1" d="M160.7,314.1c4.8-28.6,23.4-52.5,45.5-70.3c3.8-3-1.6-8.3-5.3-5.3c-23,18.6-42.5,43.9-47.5,73.7&#10;&#9;&#9;C152.7,316.8,159.9,318.9,160.7,314.1L160.7,314.1z" style="fill: rgb(18, 74, 158);"/>
</g>
<g>
	<path class="st1" d="M175.5,266.4c-10.4-6.5-16.4-19.9-20.7-30.8c-5.6-14-9.2-29.1-10.3-44.2c-0.8-11.9-0.6-25.2,10.7-32&#10;&#9;&#9;c11.1-6.7,29.4-7.1,38.3,3.4c3.1,3.7,8.4-1.6,5.3-5.3c-10.2-12.1-29.8-12.5-43.5-6.5c-6.9,3-12.6,7.8-15.6,14.9&#10;&#9;&#9;c-2.6,6.2-2.9,13.4-2.9,20c0.1,17.1,4.3,34.6,10.3,50.5c5,13.2,12.1,28.7,24.6,36.4C175.8,275.4,179.6,268.9,175.5,266.4&#10;&#9;&#9;L175.5,266.4z" style="fill: rgb(18, 74, 158);"/>
</g>
<g>
	<path class="st1" d="M163.9,148.1c-2.3-53.3,59.7-65.2,101.2-65.2c4.8,0,4.8-7.5,0-7.5c-45.8,0.1-111.3,14.8-108.7,72.7&#10;&#9;&#9;C156.6,152.9,164.1,152.9,163.9,148.1L163.9,148.1z" style="fill: rgb(18, 74, 158);"/>
</g>
<g>
	<path class="st1" d="M243.4,80.6c-0.1-27.3-2.3-54.6,13-78.7c2.6-4.1-3.9-7.9-6.5-3.8c-16,25.3-14.1,53.8-14,82.5&#10;&#9;&#9;C235.9,85.4,243.4,85.4,243.4,80.6L243.4,80.6z" style="fill: rgb(18, 74, 158);"/>
</g>
<g>
	<path class="st1" d="M195.4,94.1c-0.1-17-4.4-34.4-0.8-51.3c0.7-3.4,2-6.8,4.4-9.4c2.6-2.8,7-2.7,10.5-2.6c8.8,0.1,17.5,2.5,26.1,4&#10;&#9;&#9;c4.7,0.8,6.8-6.4,2-7.2c-15.7-2.7-41.1-11.7-48.7,8.4c-7,18.3-1.1,39.3-1,58.2C187.9,98.9,195.4,98.9,195.4,94.1L195.4,94.1z" style="fill: rgb(18, 74, 158);"/>
</g>
<g>
	<path class="st1" d="M188.6,55.9c-34.6-0.5-59.8,30.3-70.8,60.1c-11,29.9-9.5,69,19.8,87.8c0.8,0.5,1.7,1,2.6,1.5&#10;&#9;&#9;c4.2,2.4,8-4.1,3.8-6.5c-28.1-15.9-28.8-51.5-19.6-78.9c9.2-27.5,32.6-57.1,64.2-56.6C193.5,63.4,193.4,55.9,188.6,55.9L188.6,55.9&#10;&#9;&#9;z" style="fill: rgb(18, 74, 158);"/>
</g>
<g>
	<path class="st1" d="M157.1,246.4c-18.4-0.3-34.6,6.8-48,19.2c-11.3,10.4-19.3,23.6-29.4,35c-3.6,4-7.7,8.1-12.9,9.8&#10;&#9;&#9;c-7.6,2.4-18.1-1.6-24.9-5c-7.1-3.6-12.7-9.1-17.7-15.2c-3.8-4.6-7.3-9.6-12.4-12.9c-3.5-2.2-7.7-3-11.8-2.5&#10;&#9;&#9;c-4.7,0.6-4.8,8.1,0,7.5c5.7-0.7,9.3,2,13,6.1c4.6,5.1,8.5,10.7,13.5,15.4c6.7,6.2,14.9,10.3,23.7,12.7c7.4,2,14.6,2.9,21.7-0.1&#10;&#9;&#9;c11.8-5,19.6-18.6,27.1-28.2c10.1-13,21.7-25.6,37.6-31.3c6.6-2.3,13.5-3.1,20.5-3C162,253.9,161.9,246.4,157.1,246.4L157.1,246.4z&#10;&#9;&#9;" style="fill: rgb(18, 74, 158);"/>
</g>
<g>
	<path class="st1" d="M-1.9,214.9c9.4,0,19.4-1.5,28.7,0.7c8.7,2.1,15,10.2,18.2,18.2c4.9,12.5,2.6,30.5,15.6,38.5&#10;&#9;&#9;c5.7,3.5,14.3,2.3,19.6-1.4c4.8-3.3,7.3-8.8,8.9-14.2c4.3-14.7,3.3-30.7,5.2-45.8c2.1-16.4,7.7-33.8,24.7-39.7&#10;&#9;&#9;c4.5-1.6,2.6-8.8-2-7.2c-34.2,11.9-29.4,53.3-33.4,82.1c-0.8,5.5-1.8,12-5.4,16.5c-3.6,4.4-11.1,6-15.5,2&#10;&#9;&#9;c-5.2-4.7-6.2-13.7-7.5-20.1c-1.5-7.7-3.2-14.2-7.3-21c-4.6-7.6-11.3-13.4-20.1-15.4c-9.6-2.3-20-0.8-29.8-0.8&#10;&#9;&#9;C-6.7,207.4-6.7,214.9-1.9,214.9L-1.9,214.9z" style="fill: rgb(18, 74, 158);"/>
</g>
<g>
	<path class="st1" d="M46.9,223.1c0-23.8,0.5-49.8,11.6-71.5c11.4-22.4,34.4-29.2,58.2-28.3c4.8,0.2,4.8-7.3,0-7.5&#10;&#9;&#9;c-25.8-1-50.4,6.8-63.7,30.2c-12.9,22.7-13.5,51.6-13.6,77C39.4,227.9,46.9,227.9,46.9,223.1L46.9,223.1z" style="fill: rgb(18, 74, 158);"/>
</g>
<g>
	<path class="st1" d="M47.1,159.5c-25.3-6.2-15.7-36.4-2.9-50.4c10-11,25.9-14.7,40.1-16.1c17.1-1.6,34.3-0.3,51.3-2.8&#10;&#9;&#9;c4.8-0.7,2.7-7.9-2-7.2c-32.7,4.9-75.6-5.3-98.5,25.3c-7.1,9.5-12.1,21.5-11.6,33.6c0.5,12.9,9.3,21.8,21.5,24.8&#10;&#9;&#9;C49.8,167.9,51.8,160.6,47.1,159.5L47.1,159.5z" style="fill: rgb(18, 74, 158);"/>
</g>
<g>
	<path class="st1" d="M84.4,88.1C87.1,44.3,37.6,15.5-1.4,29c-4.5,1.6-2.6,8.8,2,7.2c34.5-12,78.6,12.8,76.2,51.9&#10;&#9;&#9;C76.6,92.9,84.1,92.9,84.4,88.1L84.4,88.1z" style="fill: rgb(18, 74, 158);"/>
</g>
<g>
	<path class="st1" d="M64.5,47.9C83.9,34,109.9,31.5,133,30.3c24-1.3,48,0,72.1,0.1c4.8,0,4.8-7.5,0-7.5c-25,0-49.9-1.4-74.9,0.1&#10;&#9;&#9;c-23.4,1.4-49.8,4.4-69.5,18.4C56.8,44.2,60.6,50.7,64.5,47.9L64.5,47.9z" style="fill: rgb(18, 74, 158);"/>
</g>
<g>
	<path class="st1" d="M167.2,650.3c-10.9,7.9-19.9,18.9-28.2,29.4c-10.8,13.6-20.8,28.1-28,43.9c-4.7,10.3-10.3,25.2-3.2,35.7&#10;&#9;&#9;c8.3,12.2,24.5,8.3,34.6,1.1c12.9-9.1,22.7-22.3,32.3-34.6c8.8-11.4,17.2-24.5,28.6-33.6c3.8-3-1.6-8.3-5.3-5.3&#10;&#9;&#9;c-13.9,11.1-23.7,27.6-34.7,41.4c-6.1,7.7-12.5,15.2-19.8,21.7c-5.3,4.7-11.9,9.7-19.3,9.9c-13.7,0.3-12.9-14.2-10.1-23.4&#10;&#9;&#9;c4.8-15.9,14.7-30.5,24.4-43.8c9.2-12.6,19.8-26.6,32.6-35.9C174.9,654,171.1,647.5,167.2,650.3L167.2,650.3z" style="fill: rgb(18, 74, 158);"/>
</g>
<g>
	<path class="st1" d="M164.4,735c8.9,14.7,20.4,26,34.3,35.8c4,2.8,7.7-3.7,3.8-6.5c-12.9-9.1-23.4-19.6-31.7-33.2&#10;&#9;&#9;C168.3,727.1,161.9,730.8,164.4,735L164.4,735z" style="fill: rgb(18, 74, 158);"/>
</g>
<g>
	<path class="st1" d="M183.9,806.2c-12.7,26.4-28.3,51.5-39.7,78.5c-4.1,9.6-7.6,19.2-7.4,29.8c0.2,9.8,3.4,19.8,10.3,27&#10;&#9;&#9;c6.7,7,18.3,9.8,27.2,5.8c8.6-3.8,13.9-12.2,19.3-19.5c3-4,6.4-7.6,10.5-10.6c1.9-1.4,5-3.7,7.6-3.2c4,0.8,4.9,8.8,5.5,11.8&#10;&#9;&#9;c1,5.3,1.5,10.7,2.7,16c1.5,7,5.6,11.4,11.4,15.5c17.5,12.1,37.8-4,50-16.1c3.4-3.4-1.9-8.7-5.3-5.3c-7.8,7.8-16.7,15.7-27.9,17.8&#10;&#9;&#9;c-8.7,1.7-18.6-4.5-20.7-12.7c-2.6-10.1-1.1-25.6-10.2-32.6c-5-3.8-11.3-1.4-16,1.7c-8.5,5.6-13.6,13.8-19.8,21.6&#10;&#9;&#9;c-6.8,8.5-15.7,13.1-26,6.9c-9.1-5.5-11.4-18-11.1-27.7c0.2-7.2,3-14,5.6-20.6c3.4-8.6,7.6-16.9,11.8-25.1&#10;&#9;&#9;c9.5-18.5,19.7-36.5,28.7-55.2C192.4,805.6,186,801.8,183.9,806.2L183.9,806.2z" style="fill: rgb(18, 74, 158);"/>
</g>
<g>
	<path class="st1" d="M158.6,859.8c-8.8,0.8-16.6-1.8-19.8-10.7c-2.9-7.8-1.8-16.8,0.6-24.6c3.4-11.3,9.5-22.2,15.7-32.1&#10;&#9;&#9;c8-13.1,18-24.8,28.7-35.7c3.4-3.4-1.9-8.7-5.3-5.3c-12,12.1-22.8,25.4-31.6,40c-6.6,10.9-13.2,23.2-16,35.8&#10;&#9;&#9;c-2.1,9.3-1.9,19.5,2.4,28.2c4.8,9.6,15.3,12.8,25.3,12C163.4,866.9,163.4,859.4,158.6,859.8L158.6,859.8z" style="fill: rgb(18, 74, 158);"/>
</g>
<g>
	<path class="st1" d="M143.2,797.3c-16.1,9.2-35.6,9.4-52,0.9c-18.4-9.5-27.8-28.2-27.1-48.5c0.7-22.3,12.3-41,24.3-59&#10;&#9;&#9;c14.1-21,29.4-41.3,43.4-62.3c2.7-4-3.8-7.8-6.5-3.8c-15.8,23.6-33.1,46.3-48.6,70.1c-12.5,19.2-21.9,40.6-20,64&#10;&#9;&#9;c3.5,43.4,53.8,65.8,90.2,45C151.2,801.4,147.4,794.9,143.2,797.3L143.2,797.3z" style="fill: rgb(18, 74, 158);"/>
</g>
<g>
	<path class="st1" d="M90.4,803.6c0,37-0.6,94.2,46.3,102.6c4.7,0.8,6.7-6.4,2-7.2c-42.9-7.6-40.8-61.9-40.7-95.4&#10;&#9;&#9;C97.9,798.7,90.4,798.7,90.4,803.6L90.4,803.6z" style="fill: rgb(18, 74, 158);"/>
</g>
<g>
	<path class="st1" d="M98.6,856.8c-16.9,0.6-34,3.3-51,1.9c-17.9-1.5-32.5-10.9-45-23.3c-3.4-3.4-8.7,1.9-5.3,5.3&#10;&#9;&#9;c13.1,12.9,28.4,22.8,46.9,25.1c18,2.3,36.4-0.8,54.4-1.5C103.4,864.1,103.5,856.6,98.6,856.8L98.6,856.8z" style="fill: rgb(18, 74, 158);"/>
</g>
<g>
	<path class="st1" d="M57.4,863.6c-1.6,25.2,7.3,50.8,20.5,71.9c14.4,23,36.4,41.8,63.2,48.1c4.7,1.1,6.7-6.1,2-7.2&#10;&#9;&#9;c-25.5-6.1-45.7-24-59.4-45.8c-12.4-19.6-20.3-43.6-18.8-67C65.2,858.7,57.7,858.8,57.4,863.6L57.4,863.6z" style="fill: rgb(18, 74, 158);"/>
</g>
<g>
	<path class="st1" d="M183.4,932.6c-1.2,18.6,11.1,37.3,23.6,50.1c3.4,3.5,8.7-1.9,5.3-5.3c-11.2-11.4-22.5-28.1-21.4-44.8&#10;&#9;&#9;C191.2,927.7,183.7,927.8,183.4,932.6L183.4,932.6z" style="fill: rgb(18, 74, 158);"/>
</g>
<g>
	<path class="st1" d="M65.6,897.3c-15.2,0.1-51.4,7.7-46,29.8c2.9,11.7,15.4,16.9,26,18.7c13.1,2.2,26.3,1.1,39.5,1&#10;&#9;&#9;c4.8,0,4.8-7.5,0-7.5c-10.3,0-20.6,0.7-30.8,0c-10.3-0.7-21.5-2.7-26.8-12.5c-4.1-7.7,5.7-13.3,11.3-15.9c8.2-3.9,17.8-5.9,26.8-6&#10;&#9;&#9;C70.5,904.8,70.5,897.3,65.6,897.3L65.6,897.3z" style="fill: rgb(18, 74, 158);"/>
</g>
<g>
	<path class="st1" d="M67.1,909.3c4.8,0,4.8-7.5,0-7.5S62.3,909.3,67.1,909.3L67.1,909.3z" style="fill: rgb(18, 74, 158);"/>
</g>
<g>
	<path class="st1" d="M66.5,784.6c-4.5,16.2-32.5,19.8-38,2.4c-2.8-8.7-1.2-18.9-0.2-27.8c0.9-8.1,2-16,2.1-24.2&#10;&#9;&#9;c0.7-30,8.6-75.2-29.8-85c-4.7-1.2-6.7,6-2,7.2c8.8,2.2,15.8,7,20.1,15c4.1,7.6,5,16.7,5.4,25.2c0.4,9.2-0.3,18.5-0.8,27.7&#10;&#9;&#9;c-0.5,8.6-0.5,17-1.5,25.6c-2,15.9-7.3,39.8,8.4,50.5c15.2,10.3,38.5,3.3,43.5-14.7C75,781.9,67.8,779.9,66.5,784.6L66.5,784.6z" style="fill: rgb(18, 74, 158);"/>
</g>
<g>
	<path class="st1" d="M31.7,689.1c4.7-17.1,16.1-32.1,27.4-45.4c11.3-13.4,24-25.9,37.6-36.9c3.8-3-1.6-8.3-5.3-5.3&#10;&#9;&#9;c-14.5,11.7-27.7,25-39.6,39.2c-11.4,13.6-22.6,29.1-27.4,46.4C23.2,691.8,30.5,693.7,31.7,689.1L31.7,689.1z" style="fill: rgb(18, 74, 158);"/>
</g>
<g>
	<path class="st1" d="M63.2,636.1C54.4,606.8,34.1,573.7,1,569c-4.7-0.7-6.8,6.5-2,7.2c30.5,4.4,48.8,34.9,57,61.9&#10;&#9;&#9;C57.4,642.7,64.6,640.7,63.2,636.1L63.2,636.1z" style="fill: rgb(18, 74, 158);"/>
</g>
<g>
	<path class="st1" d="M105.4,25.1c0.2-9.3,4.1-16.5,11.6-21.9c3.9-2.8,0.2-9.3-3.8-6.5c-9.8,6.9-15.2,16.3-15.4,28.4&#10;&#9;&#9;C97.8,30,105.3,29.9,105.4,25.1L105.4,25.1z" style="fill: rgb(18, 74, 158);"/>
</g>
<g>
	<path class="st1" d="M150.4,25.1c0.2-9.3,4.1-16.5,11.6-21.9c3.9-2.8,0.2-9.3-3.8-6.5c-9.8,6.9-15.2,16.3-15.4,28.4&#10;&#9;&#9;C142.8,30,150.3,29.9,150.4,25.1L150.4,25.1z" style="fill: rgb(18, 74, 158);"/>
</g>
</svg>