<?xml version="1.0" encoding="utf-8"?>
<svg id="master-artboard" viewBox="0 0 1396.9091796875 153.19638061523438" version="1.1" xmlns="http://www.w3.org/2000/svg" x="0px" y="0px" style="enable-background:new 0 0 1400 980;" width="1396.9091796875px" height="153.19638061523438px"><rect id="ee-background" x="0" y="0" width="1396.9091796875" height="153.19638061523438" style="fill: white; fill-opacity: 0; pointer-events: none;"/>


<g transform="matrix(1.0965381860733034, 0, 0, 1.0965381860733034, 14.494370436096688, 16.972530364990234)">
			
			
			<path class="st2" d="M770.3,120.4c-5.8,0-11.5,0-17.4,0c0.3-0.6,0.7-1.2,1.2-2.1c-2.2,0.7-3.8,1.1-5.3,1.7&#10;&#9;&#9;&#9;&#9;c-2.6,1.1-3.2-0.4-4.3-0.9c-1.2,0-2.4,0-3.6,0.2c-0.9,0.1-1.7,0.6-2.5,0.9c-0.4,0.2-0.9,0.6-1.3,0.5c-3.6-0.5-7.2-1-11.5-1.6&#10;&#9;&#9;&#9;&#9;c-1.1,0.9-2.8,1.3-5.6,0.1c-2.4-1-5.8-0.6-8.8-0.9c-0.4,1.1-0.7,1.7-1.1,2.7c-0.5-0.7-0.8-1-1-1.4c-0.1-0.5-0.2-1.4-0.3-1.4&#10;&#9;&#9;&#9;&#9;c-2.5,0-5,0.2-7.5,0.3c-1.1,0-2.1,0-2.7,0c0.3-0.8,0.7-1.7,1-2.6c-0.3-0.1-0.6-0.1-0.9-0.2c-1.5,1.4-3.1,2.8-4.2,3.8&#10;&#9;&#9;&#9;&#9;c-1.9-0.5-3.3-0.9-4.7-1.3c0.2-0.2,0.8-0.7,1.5-1.2c-0.9-0.5-1.8-0.9-2.1-1c-3.1,1.6-5.9,3.1-8.7,4.5c-0.6,0.1-1.2,0.3-1.9,0.4&#10;&#9;&#9;&#9;&#9;c-2.2-0.5-4.4-1.2-6.7-1.3c-5.1-0.2-10.2-0.1-15.3-0.1c-1.3-0.5-2.9-0.9-4-1.6c-2.4-1.7-4.8-1.5-7.5-0.7c-1,0.3-2.1,0.3-3.7,0.5&#10;&#9;&#9;&#9;&#9;c0.6-0.8,0.8-1.1,0.9-1.4c0.2-0.5,0.2-1.1,0.3-1.7c-0.6,0.4-1.4,0.7-1.9,1.1c-0.5,0.4-0.8,1-1.4,1.3c-2,0.8-4.1,1.4-6.2,2.1&#10;&#9;&#9;&#9;&#9;c0.3-1.7,0.2-3.5,3.3-3.9c-0.8-0.8-1.5-1.4-2.3-2.2c-0.9,0.6-2.2,1-2.3,1.6c-0.3,1.5-0.4,3.1,0.9,4.5c0.2,0.4,0.4,0.7,0.6,1.1&#10;&#9;&#9;&#9;&#9;c-0.2,0.3-0.4,0.7-0.6,1c-3.1,0.1-6.3,0-9.3,0.3c-0.8,0.1-1.4,1.3-2.1,2c-1,0.3-2.1,0.6-2.2,0.7c-2.4-0.5-4.2-1.2-6-1.2&#10;&#9;&#9;&#9;&#9;c-1.9,0-3.9,0.6-6.1,1c-0.1-0.3-0.2-0.9-0.4-1.6c-4,1-8.2-1.2-12.4,0.2c-0.5,0-1.1-0.1-1.6,0c-2.2,0.5-5.6-0.5-5.8,2.4&#10;&#9;&#9;&#9;&#9;c-1.3,2-1.9-0.3-1.9-0.3c-0.4-2.1-2.3-1.3-4-0.9c0.6,0.3,1.2,0.7,1.8,1c-0.1,0.2-0.2,0.4-0.3,0.6c-3.2-0.7-6.4-1.4-10.1-2.3&#10;&#9;&#9;&#9;&#9;c0.4,1.9,0.8,3.1-2.1,2.7c-0.8-0.1-2,0.9-2.7,1.6c-4.5,0.8-9,1.6-13.8,2.5c-1-1.2-3.8-1.3-6.1,0.3c-0.4,0.3-1.4,0.1-2.1,0.1&#10;&#9;&#9;&#9;&#9;c0.2-0.3,0.5-0.6,1.1-1.4c-4.3,0.2-8.1,0.4-12,0.7c-0.2-0.6-0.5-1.2-0.8-2c-0.8,0.7-1.5,1.3-2.3,2.1c-0.4-0.9-0.6-1.4-0.8-1.9&#10;&#9;&#9;&#9;&#9;c-0.4,0.4-0.8,0.9-1.3,1.2c-0.4,0.3-1.5,0.7-1.5,0.6c-0.6-0.6-1-1.2-1.8-2.1c-2.1,3.8-6.9,1.4-10.3,2.4c-1.3,0.4-3.2-0.2-3.3,1.6&#10;&#9;&#9;&#9;&#9;c0,0.1-3.4,0.6-3.6,0.3c-1.7-2.3-4.4-0.8-6.5-1c-2.4-0.2-4.9,1-6.6-1.4c-0.7-1-3.2-1.4-4.8-2c-0.8,0.1-1.7,0.4-2.5,0.4&#10;&#9;&#9;&#9;&#9;c-2.5,0-5.1-0.3-7.5,0.1c-3.8,0.6-7.3,1-10.2-2.5c1,3.5-2.1,3.2-4.5,3.7c-1.1,0.2-1.8,1.1-2.8,1.7c-0.7,0.2-1.3,0.4-2,0.5&#10;&#9;&#9;&#9;&#9;c-0.9,0-1.7,0-2.6,0c-2.1-0.2-4.9,0.2-3.3-1.9c-2.1-0.1-4.4-0.2-6.8-0.2c-0.1-0.2-0.1-0.4-0.2-0.6c-0.6,0.5-1.2,1.1-1.8,1.6&#10;&#9;&#9;&#9;&#9;l-0.3,0l-0.3,0c-0.6-2.7-0.7-2.5-3.8-1.6c-1.6,0.5-3.8-0.2-5.7-0.4c-1-0.1-2.5-0.6-3-0.3c-1.6,0.9-2.8,2.2-4.2,3.3c-2,0-4,0-6,0&#10;&#9;&#9;&#9;&#9;c-1.1,0.1-2.1,0.2-3.2,0.1c-2.7,0-5.4-0.1-8.1-0.2c0.5-0.9,1-1.8,1.5-2.8c-1-0.1-2.1-0.5-3-0.3c-3.1,0.7-6.1,1.6-9.4,2.5&#10;&#9;&#9;&#9;&#9;c0.1,0.2,0.6,0.8,1,1.5c-2.4,0.4-4.8,0.7-7.3,1.1c-0.4-0.4-0.7-0.9-1.1-1.4c-1,1-2,2-3.1,3.1c-0.6-0.6-1.2-1.2-1.6-1.7&#10;&#9;&#9;&#9;&#9;c-1.7,0.2-3.3,0.3-4.9,0.5c-2-0.1-4-0.2-6-0.2c-1.1,0.2-2.2,0.4-3.3,0.6c-1.5,0.8-3,1.5-4.6,2.3c-0.2,0-0.4-0.1-0.6-0.1&#10;&#9;&#9;&#9;&#9;c-1.1-0.3-2.3-0.6-3.4-0.9c-0.3-0.6-0.3-1.5-0.8-1.7c-1.3-0.5-5.5,1.3-5.9,2.3c-2.6,1.2-1.9-1.8-3.9-1.4c0.6,2.2-0.4,2.7-3.5,1.9&#10;&#9;&#9;&#9;&#9;c-1.2-0.3-3,0.6-4.5,0.9c-3.4-0.4-6.8-1.1-10,0.5c-0.7-0.2-1.3-0.3-2-0.5c-3.1-2.4-7.8-0.2-11.2-2.4c-0.3,1.3-0.6,2.3-0.8,3.4&#10;&#9;&#9;&#9;&#9;c-0.4,0-0.8,0.1-1.1,0.1c-2.6,0-5.1,0.3-7.6-1.1c-1.8-1-2.9,0.3-2.6,1.9c-1,0.5-1.8,1.2-2.9,1.4c-1.1,0.3-2.5,0.1-3.7,0.1&#10;&#9;&#9;&#9;&#9;c-0.8-0.5-1.5-1.1-1.9-1.3c-2.3,0.3-4.2,0.5-6.1,0.8c-1.9-0.3-3.9-0.6-6-0.9c-1.5,2.2-7,2.6-9.7,0.6c-0.5-0.4-2.1,0-3-0.3&#10;&#9;&#9;&#9;&#9;c-3.9-1.1-6.5,0.3-8.8,2.3c-0.4,0.3-0.8,0.5-1.2,0.8c0-0.5-0.1-1-0.1-1.5c-0.5-0.3-1-0.6-1.5-0.9c-0.9,1-1.8,2-2.8,3.2&#10;&#9;&#9;&#9;&#9;c0.1-0.7,0.2-1.3,0.3-1.9c-1-0.7-6.3,0.8-7,2.1c-1.7-3.3-5.3-2.4-8.6-2c-2.7-0.1-5.4-0.2-8-0.3c0.2-0.7,0.5-1.9,0.9-3.3&#10;&#9;&#9;&#9;&#9;c-1.5-0.3-2.8-0.7-4.1-1c0.1,0,0.1-0.1,0.2-0.1c0.1,0,0.2,0,0.3,0c0.3-0.1,0.5-0.2,1.3-0.5c-1-0.1-1.6-0.4-1.9-0.2&#10;&#9;&#9;&#9;&#9;c-1.5,0.6-3,1.3-4.4,2.1c-0.6,0.3-1,0.9-1.5,1.4c-0.8-0.5-1.6-0.9-2.3-1.4c0.5-0.5,1-0.9,1.6-1.4c0.6-0.5,1.2-1,1.8-1.4&#10;&#9;&#9;&#9;&#9;c-0.7-0.2-1.5-0.5-2.2-0.7c-0.6-0.1-1.3-0.2-2.2-0.3c0.3-0.6,0.5-1.1,1-2.2c-2,0.5-3.7,0.8-6,1.4c0.9-0.8,1.7-1.4,1.6-1.4&#10;&#9;&#9;&#9;&#9;c-3.5-2.6,0.9-4.4,1.1-6.6c1.3-0.3,2.7-0.5,4.7-0.9c-1.1-0.7-1.9-1.1-2.6-1.5c0.7-0.9,1.4-1.8,2.4-2.9c-1.4-0.2-2.3-0.4-2.9-0.5&#10;&#9;&#9;&#9;&#9;c0.2-1.2,0.4-2.3,0.6-4c-2.8,0.5-5.2,0.6-7.1,1.2c-3.5,1.2-6.7,1.3-10.1-0.1c0.8-0.7,1.4-1.3,2.1-2c-2.9-0.5-3.4-0.3-3.7,1.5&#10;&#9;&#9;&#9;&#9;c-0.3,1.8-1.9,2.5-4.1,2.7c-1.5,0.1-2.9,0.2-4.4,0.3c-2.7,0.2-5.3,0.5-8,0.4c-0.8,0-1.5-1.1-2.2-1.7c0.1-0.3,0.3-0.7,0.4-1&#10;&#9;&#9;&#9;&#9;c-3.5,0.1-7,0.4-10.4,0.2c-2.1-0.1-4.2-1-6.2-1.5c-0.7-0.2-1.5-0.6-1.9-0.5c-2.8,0.8-3.8-0.4-3.4-1.9c0.7-2.2-1-2.6-3.2-3&#10;&#9;&#9;&#9;&#9;c-0.6-0.1-1.3-0.3-1.9-0.4c0.3-0.2,0.5-0.3,0.8-0.5c-1.3-1.1-2.5-2.2-4.2-3.8c1.9-1.9,4.3-4.1,6.6-6.4c0.4,0.1,0.8,0.1,1.2,0.2&#10;&#9;&#9;&#9;&#9;c-1-1.7,2.6-3.6-0.3-5.4c-0.2-0.1,0.6-0.9,0.5-1.3c-0.1-0.5-0.6-0.9-0.9-1.3c-0.6-2-2.9-4.3,1.9-5.3c0.5-1.4,1-2.8,1.5-4.2&#10;&#9;&#9;&#9;&#9;c1.2-0.3,2.5-0.5,3.5-1c1-0.6,1.6-1.5,2.4-2.3c-1.2-0.2-2.3-0.6-3.5-0.6c-0.6,0-1.4,0.4-2,0.6c0.3-3,0.6-3.1,4.9-2.9&#10;&#9;&#9;&#9;&#9;c1.3,0.1,2.7-0.3,4-0.5c-0.2,0.9-0.4,1.8-0.6,3c3.6-0.7,6.7-1.3,9.9-2c-1.8-2.2-1.9-2.4-4.1-1.4c-2.1,0.9-3,0.2-3.7-1&#10;&#9;&#9;&#9;&#9;c0.3-0.1,0.8-0.1,0.9-0.3c0.9-1.6,1.8-3.2,4.5-3.8c0.5-0.1,0.7-0.7,1.5-1.8c-1.9,0.2-3.1,0.3-5,0.5c0.6-0.6,1-1.4,1.3-1.4&#10;&#9;&#9;&#9;&#9;c3.4,0.3,6.6-1.5,10-0.4c0.7-1.7,4.5,0.2,4.8-2.1c0-0.1,2.7,0,4.4,0c-0.8,0.7-1.3,1.3-2.5,2.3c2.5-0.3,4.2-0.5,6.3-0.8&#10;&#9;&#9;&#9;&#9;c-0.7-0.7-1.2-1.2-1.7-1.7c0.4,0.1,0.6,0.1,0.9,0.1c4.1,0.4,6.9-1.3,9.8-2.9c0.9-0.5,1.9-0.9,3-1.1c3.1-0.7,6.2-1.2,9.3-1.8&#10;&#9;&#9;&#9;&#9;c3.1,1.1-1.4,2.7-0.2,3.5c2.5-0.3,4.4-0.4,6.3-0.8c1.7-0.3,3.2-0.9,4.8-1.3c2.6-0.3,5.1-0.6,7.7-1c5.6-0.8,11.2-1.8,16.8-2.6&#10;&#9;&#9;&#9;&#9;c3.3-0.5,6.5-1,9.8-1.4c5.2-0.7,10.4-1.3,15.5-1.9c0,0.6-0.1,1.2-0.1,1.7c0,0.6-0.1,1.1-0.1,1.7c0.7,0,1.5,0.1,2.2-0.1&#10;&#9;&#9;&#9;&#9;c1.7-0.3,3.3-0.8,4.9-1.2c3.2-0.2,6.4-0.4,9.6-0.7c0.1,0.3,0.1,0.6,0.2,0.9c-3.1,0.7-6.1,1.5-9.2,2.2c0.1,0.3,0.1,0.5,0.2,0.8&#10;&#9;&#9;&#9;&#9;c2,0,3.9,0,6.4,0c-0.6,1.2-0.9,1.9-1.3,2.7c2.9,0,5.7,0,8.6,0c0.2,2.3,3,1.4,4.6,1.9c-0.7,1.4-2.8,3.1,1.4,3.4&#10;&#9;&#9;&#9;&#9;c1.9,0.3,3.8,0.7,5.8,1c-0.9,0.3-1.7,0.5-2.5,0.8c1.7,0.4,3.3,0.8,4.8,1.2c-0.9,0.3-1.7,0.6-2.6,0.9c-2.9,0.1-5.7,0.3-9,0.4&#10;&#9;&#9;&#9;&#9;c0,0.3-0.4,1.4,0.1,1.8c0.5,0.4,2.1,0.2,3.2,0.1c1.9-0.3,3.8-0.7,5.7-1.1c1.5-0.1,3-0.2,4.4-0.3c2.2,0.6,4.4,1.3,6.8,1.9&#10;&#9;&#9;&#9;&#9;c0.1-2.9,3.5-1.7,5.3-2.5c0.9-0.4,1.7-1,2.7-1.2c1.9-0.4,3.9-0.5,5.9-0.7c2.5,0.3,5,0.7,7.6,0.8c0.5,0,1.4-0.7,1.5-1.2&#10;&#9;&#9;&#9;&#9;c0.1-0.6-0.3-1.9-0.5-1.9c-1.5,0-3,0.2-4.5,0.4c-1.6,0.1-3.3,0.2-4.9,0.3c-0.8,0-1.6-0.1-2.3-0.2c0.9-0.6,1.7-1.1,2.7-1.7&#10;&#9;&#9;&#9;&#9;c-0.4-0.4-1-0.9-1.5-1.3c0.3-0.1,0.7-0.3,0.8-0.3c2.8,1.5,5.3,1.8,8.1-0.3c0.8-0.6,3.6-1,4.2,1c4.4-1.6,8-4.5,13.6-3.8&#10;&#9;&#9;&#9;&#9;c0.8,0.5,1.6,1.3,2.5,1.4c1.5,0.1,3-0.2,4.6-0.4c-0.3-0.5-0.7-0.9-1-1.4c1.7,0.1,4.2-0.4,4.9,0.2c1.5,1.4,2.9,0.6,4.3,0.6&#10;&#9;&#9;&#9;&#9;c2.7-0.3,5.4-0.6,8.1-0.8c1.7,0,3.3,0,5-0.1c2.3-0.1,4.6-0.3,6.9-0.5c-0.7,0.6-1.6,1.9-2,1.8c-4.4-1-8,0.9-12,1.5&#10;&#9;&#9;&#9;&#9;c-3.2-0.1-6.4-0.1-9.3,1.3c1.1,0.3,2.1,0.2,3.1,0.2c2.1-0.2,4.2-0.3,6.3-0.5c4.3-0.3,8.6-0.5,13.1-0.8c0,0,0.2,0.4,0.1,0.2&#10;&#9;&#9;&#9;&#9;c1.8-0.3,3.2-0.5,4.6-0.8c1.8-0.3,3.6-0.7,5.5-1.1c-0.1-0.3-0.1-0.6-0.2-0.9c-3.2,0.1-6.5,0.6-9.3-0.9c1.8-0.9,3.5-2.1,6-1&#10;&#9;&#9;&#9;&#9;c0.2,0.1,0.8,0,0.9-0.1c2.7-3.6,7.4-2.7,11.7-2.9c1.6,0.3,3.1,0.7,4.7,1c0,0.2-0.1,0.5-0.1,0.7c4.7-0.8,10.8,1.4,13.6-3.5&#10;&#9;&#9;&#9;&#9;c1.8,0.8,3.5,1.6,5.3,2.4c4.6-0.1,9.2-0.2,13.5-0.3c0.5-1.1,0.8-1.8,1.1-2.5c4.1,0.8,7.9-0.8,11.7-0.7c2.9,0,5.6-0.7,8.4-0.7&#10;&#9;&#9;&#9;&#9;c3.1,0,6.1-0.2,9.2-0.5c2.5-0.2,5-0.7,7.6-0.8c0.9,0,1.8,0.7,2.8,1.2c1-0.7,1.6-1.7,4.2-1c1.8,0.5,4.5-0.7,6.8-1.2&#10;&#9;&#9;&#9;&#9;c1.3-0.2,3.3-0.9,3.9-0.5c2,1.3,4.1,0.5,6,0.5c0.9,0,1.7-0.9,2.8-1.6c0,0.5,0,0.8,0,1.1c2.7,0,5.2,0,7.9,0c-0.4,0.4-1,1-1.9,2&#10;&#9;&#9;&#9;&#9;c1.5-0.1,2.3-0.2,3.1-0.3c5.8-0.6,6.7-0.2,8.4,3.9c0.5,1.1,1,1.9,2.9,1.4c0.5,0.5,1,1,1.6,1.7c-0.8,0.2-1.4,0.3-3,0.7&#10;&#9;&#9;&#9;&#9;c1.7,1,2.9,1.8,4.2,2.4c1.2,0.5,2.6,0.8,3.9,1.1c0.6,0.1,1.3-0.1,2-0.1c1.8,0,3.5,0,4.2,1.6c0.2,0.5,1.7,0.8,2.6,0.9&#10;&#9;&#9;&#9;&#9;c1.4,0.2,2.9,0.2,4.3,0.3c0.1,0.2,0.1,0.5,0.2,0.7c-1.1,0.4-2.1,0.8-3.2,1.3c1.7,4.3,1.7,4.3-3.8,7.4c-0.8,0.4-1.1,1.2-1.6,1.9&#10;&#9;&#9;&#9;&#9;c-3.7,0-3.4,2.2-4,3.8c-1.3,1.7,1.3,1.1,1.9,1.5c0.7,0.5,1.9,0.8,2.9,1.1c-0.2,0.2-0.3,0.4-0.5,0.5c-3.2,0.5-6.4,1.1-9.5,1.6&#10;&#9;&#9;&#9;&#9;c-0.7,0.1-1.4,0.3-2.1,0.3c-1.8,0.1-3.7,0.1-5.5,0.2c-3.4-2.6-7-0.5-10.6-0.3c1.2,0.5,2.6,0.7,3.8,1c0.3,0.1,0.2,0.8,0.3,1.2&#10;&#9;&#9;&#9;&#9;c0.5,1.1,0.9,2.3,1.4,3.4c-1.2,0.5-2.4,1.1-3.6,1.6c0,0.2,0,0.4,0.1,0.7c2.8-0.2,5.5-0.3,8.2-0.6c1.8-0.2,4.3,0.6,5.2-1.4&#10;&#9;&#9;&#9;&#9;c1.3,0.3,2.7,0.6,4,0.9c-0.8,0.4-1.6,0.9-2.8,1.6c3.2,0.4,6,0.7,8.8,1c1,0.4,1.9,1,2.9,1.2c4.1,0.6,8.3,1.1,12.4,1.6&#10;&#9;&#9;&#9;&#9;c-2.8,0.5-5.5,0.9-8.3,1.4c0,0.2,0,0.5,0,0.7c5.3-0.2,10.6-0.4,16-0.6c0-0.3,0-0.5,0-0.8c-2.2-0.2-4.3-0.5-6.5-0.7&#10;&#9;&#9;&#9;&#9;c0.9-0.5,1.8-1,2.7-1.6c2-1.2,4-2.4,5.6-3.3c2.4,1.6,4.1,2.7,6.2,4.2c-1.6,0.5-3,0.9-4.5,1.4c0,0.2,0,0.4,0,0.6&#10;&#9;&#9;&#9;&#9;c5.5-0.7,10.9,1.1,16.4-0.7c-0.2,0.8-0.4,1.5-0.6,2.1c2.4,0.3,2.9-1.4,4.9-1.7c1.8-0.3,3.2-0.3,4.7,0.1c0.5,0.1,1.2,0.4,1.6,0.2&#10;&#9;&#9;&#9;&#9;c7.2-2.6,15.2-1.3,22.7-2.2c0.4-0.1,1-0.1,1.3,0c2.7,1.4,5.2,0.7,8.1,0c2.7-0.7,5.7-0.5,8.6-0.7c0-0.3,0-0.5,0-0.8&#10;&#9;&#9;&#9;&#9;c-2.6,0-5.1-0.1-7.7,0c-10.6,0.4-21.2,0.9-31.8,1.3c-1,0-2.1-0.3-3.1-0.4c0.9-0.5,1.8-1,2.6-1.6c0.5-0.2,1-0.5,1.5-0.5&#10;&#9;&#9;&#9;&#9;c1.3-0.1,2.6-0.2,3.9-0.2c0.7,0.3,1.4,0.6,2.1,0.8c1.3-0.3,2.7-0.6,4-1c-0.1,0.3-0.2,0.6-0.4,1.5c2.5-1.9,4.6-2.8,7.3-1&#10;&#9;&#9;&#9;&#9;c0.5,0.4,1.9,0.1,2.9,0c1.6-0.1,3.2-0.3,4.9-0.5c0.2-0.1,0.4-0.2,0.6-0.3c2,0,4-0.1,6-0.1c0.2,0.2,0.5,0.5,0.7,0.4&#10;&#9;&#9;&#9;&#9;c4.6-0.1,9.2-0.3,13.8-0.4c0.4,0,0.8-0.2,1.2-0.3c0.6-0.2,1.2-0.4,1.8-0.4c3.7,0.1,7.3,0.2,11,0.3c1.8,0.4,3.6,0.7,5.4,1.1&#10;&#9;&#9;&#9;&#9;c-4.1,0.3-8.1,0.5-12.2,0.8c0.5,0.6,1,0.8,1.5,0.8c5.6-0.1,11.1-0.2,16.7-0.2c0.9,0,1.7,0.7,2.6,1c1.1,1.6,2.3,2.5,5,1.4&#10;&#9;&#9;&#9;&#9;c1.3-0.5,3.2-0.4,4.8-0.6c0.2,0.3,0.4,0.5,0.6,0.8c0.5-1,1-2,1.6-3c2.6-0.3,5.2-0.6,7.8-0.9c0-0.2,0-0.4,0-0.7&#10;&#9;&#9;&#9;&#9;c-1.9-0.1-3.9-0.3-5.8-0.3c-4.4,0-8.9,0.1-13.3,0.1c0-0.2,0-0.5,0-0.7c1.1-0.3,2.3-0.5,3.6-0.9c0-0.6,0-1.3,0-2&#10;&#9;&#9;&#9;&#9;c0.2,0,0.5-0.1,0.7-0.1c0.4,0.7,0.9,1.5,1.6,2.7c0.7-0.9,1.1-1.5,1.6-2.1c0.5-0.5,1.1-0.9,1.6-1.3c0.4,0.5,0.8,1.1,1.2,1.7&#10;&#9;&#9;&#9;&#9;c1.7-0.6,1.8-3.9,5.3-2c0.9-1,1.6-1.8,2.8-3.1c1,2.6,1.8,3.8,5.3,2.3c1-0.4,3.7-0.3,5.6-0.8c1-0.3,2.5,0.1,3.8,0.2&#10;&#9;&#9;&#9;&#9;c1.6,1,3.2,2,5.3,0.5c0.2,0,0.4-0.1,0.6-0.1c2.5,1.1,5.2,1.5,8,0.5c0.9,0,1.8-0.1,2.6,0c2.9,0.4,5.8,2.5,8.8-0.5&#10;&#9;&#9;&#9;&#9;c0.3,0.9,0.4,1.3,0.5,1.6c0.2,0.4,0.5,0.8,0.8,1.2c0.5-0.3,0.8-0.7,1.4-1c0.5-0.2,1.2-0.3,1.8-0.4c0.9,0.4,1.7,1.2,2.6,1.2&#10;&#9;&#9;&#9;&#9;c2.7,0.1,5.4-0.3,8,0c2.8,0.3,5.2,0.1,6.8-1.8c0.3,0.6,0.5,1.1,0.7,1.6c0.2,0,0.3,0,0.5,0c0.2-0.7,0.3-1.4,0.6-2.4&#10;&#9;&#9;&#9;&#9;c1.5,0.7,2.8,1.3,4.1,1.8c1.5,2.5,3.9,0.4,5.9,0.5c1.9,0.1,3.4,0,4.2,1.5c-1.1,0.2-2.2,0.4-4.1,0.7c2.3,0.3,3.9,0.4,5.4,0.6&#10;&#9;&#9;&#9;&#9;c-0.4,0.7-0.8,1.4-1.4,2.4c6.4-0.3,12.3-0.6,18.7-0.9c-0.8-1-1.1-1.4-1.4-1.8c-1.1-0.4-2.2-0.7-3.3-1.1c0-0.4,0-0.8,0-1.2&#10;&#9;&#9;&#9;&#9;c0.2-0.1,0.4-0.1,0.6-0.2c1.8-0.1,3.6-0.2,5.4-0.3c5.1-0.3,10.2-0.7,15.2-0.8c3.4-0.1,6.8,0.3,10.1,0.7c2.7,0.3,2.4-0.7,2-2&#10;&#9;&#9;&#9;&#9;c1.8,0.2,3.6,0.4,5.3,0.5c0.9,0.5,1.7,1,2.6,1.4c0.5,0.2,0.9,0.3,1.4,0.5c-2.1,0.5-4.1,1-7.2,1.8c3.6,0.8,7.5-0.8,8.3,1.7&#10;&#9;&#9;&#9;&#9;c4.2-0.7,8-1.3,11.7-1.9c0-0.2,0-0.4,0-0.6c-1.7-0.1-3.4-0.2-5.1-0.2c-1.2,0-2.4,0-1.6-1.3c1.4,0,2.8,0.1,4.3,0&#10;&#9;&#9;&#9;&#9;c1.9,0,4.2,0.4,4.1-2.6c1,1.2,1.4,1.8,2,2.5c0.3-0.8,0.6-1.4,0.8-2c4-0.9,7.9-1.9,12.1-0.6c1.2,0.1,2.4,0.5,3.6,0.4&#10;&#9;&#9;&#9;&#9;c2.1-0.2,3.1,0.1,2.9,1.8c0,0.3,0.2,0.6,0.3,0.8c1.3-1,2.1-1.6,3-2.3c0.2,0.1,0.4,0.2,0.6,0.3c-0.2,0.5-0.4,1.1-0.6,1.6&#10;&#9;&#9;&#9;&#9;c3.3,0.1,6.3,0.3,10.1,0.4c-1.7,1.1-4.8,1.4-2.2,3.2c0.8-0.2,1.7-0.4,2.5-0.6c2,2.7,3.7,2.8,6.1,0.5c0.4-0.4,1.2-0.8,1.8-0.9&#10;&#9;&#9;&#9;&#9;c1.9-0.2,3.8-0.3,5.8-0.4c-0.3-0.4-0.9-0.9-0.8-1.2c1.4-2.4,3.2-2.9,7.5-2.4c0.6,0.1,1.3,0,2,0c1,0,2.1,0,3.3,0&#10;&#9;&#9;&#9;&#9;c-0.7,1.6-0.2,2.7,2.7,2c0.1-0.6,0.2-1.2,0.4-2c0.8,0.8,1.3,1.4,1.8,1.9c1.2-0.8,2.2-1.3,3.1-1.9c0,0.6,0,1.3,0,1.9&#10;&#9;&#9;&#9;&#9;c1.7,0.6,4.1,0.8,3.3,2.9c-3.2,2.1-7.3,0.7-11.2,1.2c2.5,1.3,16.6,1.6,18.4,0.8c-1.1-1.5-2.1-3-3.1-4.5c0-0.1,0-0.2-0.1-0.3&#10;&#9;&#9;&#9;&#9;c0.2-0.1,0.4-0.1,0.6-0.1c1,0.7,1.9,1.5,3.5,2.6c1.9-0.4,4.5-1,7-1.6c-0.4-0.8-0.8-1.6-1.1-2.4c0.8-0.1,1.6-0.3,2.4-0.4&#10;&#9;&#9;&#9;&#9;c1.7,0,3.5,0.2,5.2,0c1.7-0.1,3.3-0.5,3.9,1.1c1.2,1.5,2.4,3,3.7,4.7c-0.8,0.2-1.9,0.4-3,0.7c-0.1,0.3-0.1,0.5-0.2,0.8&#10;&#9;&#9;&#9;&#9;c1.3,0.2,2.7,0.5,4,0.7c2-0.1,4-0.2,6-0.4c3.5-0.2,7.2,1.4,10.6,0.1c0-0.3,0-0.7,0-1c-3.5-0.1-7-0.3-10.5-0.4&#10;&#9;&#9;&#9;&#9;c-0.8-0.1-1.6-0.2-2.3-0.3c0.1-0.9,0.1-1.6,0.2-2.3c0,0,0,0,0,0c1.1-0.2,2.3-0.4,3.3-0.8c0.7-0.3,0.9-1,1.4-1.6&#10;&#9;&#9;&#9;&#9;c0.7-0.2,1.3-0.4,2-0.6c0.1,1,0.1,2.1,0.2,3.3c1.9-0.9,3.5-1.9,5.3-2.3c2-0.4,4.3-0.2,6.5-0.4c1-0.1,1.9-0.5,2.8-0.7&#10;&#9;&#9;&#9;&#9;c3.5,0.2,7,0.4,10.6,0.6c0.7,0.5,1.4,1.4,2.1,1.4c3,0,4.8,1.3,6.9,2.6c1.7,1,5.5-0.3,5.7-1.9c2.1,0,4.3,0,6.4,0&#10;&#9;&#9;&#9;&#9;c0-0.2,0-0.3,0-0.5c-0.9,0-1.8-0.1-2.7-0.1c0-0.1,0-0.2,0-0.3c0.8-0.1,1.7-0.2,2.5-0.2c6.8-0.6,13.3,0.5,19.9,1&#10;&#9;&#9;&#9;&#9;c0,0.2,0,0.5,0,0.7c-0.5,0.1-1,0.2-1.9,0.4c1.6,0.6,2.8,1,4.1,1.5c-0.1,0.5-0.1,1.1-0.2,1.8c4.4-0.4,9.5,2.5,12.9-2.2&#10;&#9;&#9;&#9;&#9;c0.3,1.2,1.4,2.7,0.8,3.5c-0.8,1.1-2.8,1.8-5,3.1c4.9,1.4,9.8,1.2,14.7,1.4c0.7-2.8,3-4.2,6.7-4c-0.5-1-1.7-2.2-1.3-2.6&#10;&#9;&#9;&#9;&#9;c1.1-1.3,2.9-1.7,5.3-1.3c2.2,0.4,4.7-0.1,7.1-0.2c4.4,0.4,8.9,0.9,13.3,1.3c3.1,0.4,6.2,0.7,9.2,1.1c2.5,0.4,4.9,1.1,7.4,1.6&#10;&#9;&#9;&#9;&#9;c0.9,0.2,1.9-0.2,2.8-0.1c3.5,0.7,7,1.4,10.5,2.2c-3.4,2.1-3.4,2.1-0.7,3.4c2.9,0.2,5.8,0.3,8.9,0.5c-1.6-1-3.1-1.9-4.7-2.8&#10;&#9;&#9;&#9;&#9;c0-0.2,0-0.4,0.1-0.6c1.8,0,3.6,0,5.4,0c0.7-0.2,1.4-0.5,2.1-0.7c0.5,0.9,1,1.5,1.4,2.2c0.5,2.1,1.3,4,4.9,4.1&#10;&#9;&#9;&#9;&#9;c1.1,0,2.2,0,3.3,0.2c1.9,0.3,3.7,0.6,3.3,2.5c-0.1,0.5,0.3,1,0.4,1.3c1.8,0,3.2,0,4.6,0c0.7-0.7,1.5-1.3,2.2-2&#10;&#9;&#9;&#9;&#9;c3.1,0.5,6.1,1,9.2,1.6c0.4,0.4,0.7,0.7,1.1,1.2c-2.5,0.1-4.7,0.3-8,0.5c1.5,0.8,2.4,1.3,2.8,1.5c2.9,0,6.2-0.7,7.8,0.2&#10;&#9;&#9;&#9;&#9;c2.8,1.6,5.5,1,8.3,1c1.9,1.1,3.7,2.2,5.7,3.3c0.4,0.2,1.2,0.4,1.6,0.2c2.9-1.2,4.7-0.2,6.2,1.7c-0.4,0.1-1.1,0.3-1.8,0.6&#10;&#9;&#9;&#9;&#9;c-1.2,0.5-3.1,0.8-3.4,1.5c-0.7,1.7,1.5,1.7,3.1,1.9c1.3,0.4,2.6,0.7,3.9,1.1c0,0.1,0,0.2,0,0.2c-1.4-0.1-2.7-0.3-4.1-0.4&#10;&#9;&#9;&#9;&#9;c-2-0.1-4.1-0.2-6.4-0.3c-0.2,1.6-0.4,3.3-0.6,5c-1.6-1.3-2.8-3.3-6.1-2.4c1.2,1.4,2.3,2.7,3.4,4c-2.3,0.2-4.6,0.4-6.9,0.5&#10;&#9;&#9;&#9;&#9;c0,0.2,0,0.5,0,0.7c2.5,0.6,5.1,1.2,7.6,1.8c0,0.1,0,0.2-0.1,0.3c-5-0.3-9.9-0.5-14.9-0.8c-5.2-0.3-10.4-0.9-15.6-1.1&#10;&#9;&#9;&#9;&#9;c-1.5-0.1-3,0.8-4.6,1.3c0.2-0.4,0.5-0.9,0.7-1.4c-1.9,1.2-3.8-1.4-5.6,0c-1.3-0.3-2.6-0.7-4-1c-2.2-0.2-4.5-0.4-6.7-0.5&#10;&#9;&#9;&#9;&#9;c-2.2-0.1-4.4-0.4-6.6-0.2c-0.8,0-1.4,1.1-2.1,1.7c-1.2,0.1-2.4,0.3-3.6,0.4c0-0.1,0.1-0.2,0.1-0.2c-1.5-0.1-3-0.1-4.5-0.2&#10;&#9;&#9;&#9;&#9;c-1.2-2.3-3.9-1.1-6-1.4c-3.3-0.4-6.7-0.8-10-1.1c-0.9-0.1-1.9,0-2.8,0c0.3,0.7,0.6,1.4,0.9,2.1c-0.6-0.4-1.4-0.6-1.8-1.1&#10;&#9;&#9;&#9;&#9;c-1.6-2-2.8-2.1-5-0.3c0.4-2.9-2.9-1.2-4.4-1.8c-1-0.4-2.3-0.4-3.9-0.6c-1.7,0-4,0-6.3,0c0.1-0.9,0.2-1.5,0.4-2.8&#10;&#9;&#9;&#9;&#9;c-1.3,1.2-2.1,1.9-3.3,3c-0.1-1.2-0.2-1.9-0.2-2.6c-0.2-0.1-0.5-0.2-0.7-0.4c-0.8,1-1.6,2-2.4,3c-3.6-1.3-7-1-10.3,0.4&#10;&#9;&#9;&#9;&#9;c-0.6-0.7-1.2-1.4-1.9-2.1c-1.1,0-2.3,0.1-3.5,0.1c-2.9,0.2-3.3,0-3.3-2.3c-4.3-0.4-8.6-0.8-13.3-1.3c-0.1,0.9-0.1,1.4-0.2,2.1&#10;&#9;&#9;&#9;&#9;c-0.7-0.1-1.8-0.1-1.9-0.2c-0.7-3.8-5.3-2.3-7.8-2.4c-10.6-0.7-21.2-0.9-31.9-1.3c-3.9-0.2-7.8-0.6-11.7-0.9&#10;&#9;&#9;&#9;&#9;c-1.3,0.3-2.6,0.6-3.9,1c-0.4-0.3-0.7-0.9-1.2-0.9c-5.1-0.3-10.1-0.6-15.2-0.9c-4.1-0.2-8.2-0.4-12.3-0.5c-2-0.1-4-0.1-6-0.2&#10;&#9;&#9;&#9;&#9;c0.3-0.4,0.9-0.8,1-1.3c0.2-0.8,0.1-1.6,0.2-2.5c-1.1,0.1-2.3,0.1-3.4,0.2c0.2,0.7,0.2,1.5,0.5,2.2c0.2,0.5,0.7,1,1.1,1.5&#10;&#9;&#9;&#9;&#9;c-3.1,0-6.2,0-9.3,0c-1.1-0.4-2.3-0.9-2.7-1.1c-1.6,0.6-2.8,1-3.9,1.5c-1.9-0.8-3.2-0.9-3.7,1c-0.2,0.5-1.3,0.9-2,1.4&#10;&#9;&#9;&#9;&#9;c-0.2-0.2-0.4-0.4-0.6-0.6c0.7-0.5,1.4-1,2.1-1.4c-1.5-0.3-2.9-0.6-4.3-0.8c-0.7,0-1.5,0-2.2-0.1c-1.1,0-2.3-0.1-3.3,0.1&#10;&#9;&#9;&#9;&#9;c-0.6,0.1-0.9,0.8-1.4,1.2c0.2,0.1,0.4,0.3,0.6,0.4c-1.4,0.2-2.7,0.4-4.6,0.7c0.4-0.8,0.6-1.3,0.9-2c-2.7-0.9-5.3-1.7-8.7-1&#10;&#9;&#9;&#9;&#9;c-3.6,0.6-7.5,0.5-11.3,0.7c-1.7-0.5-3.4-1-5.1-1.5c-2.8-1.1-4.2,1-6.4,1.5c-3,0-5.9,0-8.9,0c-4.9,0.6-9.7-1.8-14.7-0.5&#10;&#9;&#9;&#9;&#9;c-0.8,0.2-2.1-0.3-3.1-0.5c0.1-0.6,0.1-1.2,0.2-1.8c0.1-1,0.2-1.9,0.3-2.9c-0.4-0.1-0.8-0.1-1.1-0.2c-0.7,0.7-1.3,1.4-2,2.1&#10;&#9;&#9;&#9;&#9;c-3.5-3.2-4.2-3.3-5.7-0.6c-0.5-0.3-0.9-0.6-1.4-0.9c-0.7,0.6-1.4,1.1-2.6,2.2c2,0.5,3.5,0.8,5,1.1c-0.4,0.1-0.8,0.3-1.2,0.3&#10;&#9;&#9;&#9;&#9;c-3.4,0.2-6.7,0.4-10.1,0.7c-0.6,0.1-1.2,0.7-1.7,1c-0.8,0.6-1.6,1.2-2.3,1.8c-4.1,0.1-8.2,0.4-12.4,0.4c-4.2,0-8.4-0.3-12.7-0.4&#10;&#9;&#9;&#9;&#9;c0-0.2-0.1-0.5-0.1-0.7c1.7-0.1,3.4-0.2,5.2-0.4c0-0.3,0-0.6,0-0.9c-2.9,0-5.7,0-8.6,0c0.8-1.5,0.8-2.5-2.2-2.2&#10;&#9;&#9;&#9;&#9;c-5.5,0.5-10.8,2.9-16.7,1.4c-0.1,0-0.3,0.2-0.5,0.3c-0.4,0.4-0.9,1-1.2,1C771.1,117.7,770.7,119,770.3,120.4z M875.5,114.2&#10;&#9;&#9;&#9;&#9;c3.1,0.7,5.2,0.2,6.6-1.9c-1.8,0.1-3.5,0.3-5.2,0.4c-2.8-1.3-4.1,0.3-5.7,1.2c0.1,0.3,0.2,0.7,0.4,1&#10;&#9;&#9;&#9;&#9;C872.9,114.7,874.2,114.4,875.5,114.2z M473.6,98.7c-0.5-0.2-1.1-0.6-1.4-0.5c-1.8,0.6-3.5,1.3-5.4,2.1c1.3,0.1,2.5,0.2,3.7,0.4&#10;&#9;&#9;&#9;&#9;c1.1,0.2,2.1,0.7,3.1,1.1c0.5,0.3,0.9,0.6,1.4,0.9c-1.1,0.3-2.3,0.5-3.4,0.8c0,0.3,0.1,0.6,0.1,1c1.7,0,3.5,0,5.2,0&#10;&#9;&#9;&#9;&#9;c1.5,0,3.3-0.4,4.4,0.1c2.2,0.9,3.8,0.2,5.7-0.5c0.3,0.6,0.5,1.2,0.8,1.9c2-1.9,5.3-2.4,7.3-1.1c0.9-2.2,2.2-1.6,4.4-0.8&#10;&#9;&#9;&#9;&#9;c1.7,0.7,4.4,0.7,6.3,0.3c2.6-0.6,4.9-1.8,7.2-2.7c-0.9-0.8-1.9-1.6-3-2.4l0,0.1c5.1-0.2,6.3-3.2,8.1-6.2c-1.1-0.1-2.2-0.4-3-0.2&#10;&#9;&#9;&#9;&#9;c-2.3,0.7-4.3,1.8-7,1.4c0.1-0.9,0.4-1.9,0.4-2.8c-0.1-1.5-0.5-2.9-3.2-2.9c-0.4-0.1-0.7-0.3-0.3-0.1c-2,1.3-3.8,2.4-5.5,3.5&#10;&#9;&#9;&#9;&#9;l0.1,0c-0.9-0.2-1.9-0.3-2.9-0.5c-0.3,0.7-0.5,1.2-0.9,2.2c-0.4-1.2-0.7-1.9-0.8-2.2c-1.5-0.3-2.6-0.4-3.8-0.6&#10;&#9;&#9;&#9;&#9;c-0.2,0.9-0.4,2-0.6,2.7c-1.3,0.3-2.3,0.6-3.2,0.8c-0.1,0.8-0.3,1.7-0.4,2.5c0.4,0.8,0.8,1.6,1.2,2.4l0.1,0c-0.9,1-1.8,2-2.6,2.9&#10;&#9;&#9;&#9;&#9;c-1.7-2-4-3.4-7.5-3.4c-0.6-0.4-1.2-0.8-1.6-1.1C475.4,98.1,474.5,98.4,473.6,98.7z M369.2,65.5c-2.3,0-4.6-0.2-6.9,0&#10;&#9;&#9;&#9;&#9;c-0.4,0-0.6,1.5-0.8,2.4c0.9,0,1.9,0.1,2.8,0c1.6-0.2,3.3-0.6,4.9-0.9c2.6-0.4,5.1-0.7,7.7-1.2c0.6-0.1,1.2-0.7,1.6-1.2&#10;&#9;&#9;&#9;&#9;c0.1-0.1-0.7-0.8-0.9-0.7C374.7,64.4,371.9,65,369.2,65.5z M998.8,96c0.1,0.3,0.2,0.5,0.3,0.8c7.4,0.6,14.8,1.3,22.2,1.9&#10;&#9;&#9;&#9;&#9;c0-1.7-2.1-2.7-5.1-2.3c-1.2,0.2-2.5,0.3-3.7,0.2c-1.6-0.1-3.1-0.7-4.7-0.9c-1.9-0.2-3.7-0.4-5.6-0.4&#10;&#9;&#9;&#9;&#9;C1001,95.4,999.9,95.8,998.8,96z M450.1,59.6c-0.1-0.4-0.1-0.7-0.2-1.1c-6.4,0.5-12.8,1-19.2,1.4c0.1,0.4,0.1,0.8,0.2,1.2&#10;&#9;&#9;&#9;&#9;C437.3,60.7,443.7,60.1,450.1,59.6z M1037.9,96.9c-0.3,0.3-1.1,0.9-1.9,1.6c6.4,2.8,7.5,1.8,8.1-0.3&#10;&#9;&#9;&#9;&#9;C1042.1,97.8,1040.2,97.4,1037.9,96.9z M1146.7,128.2c0,0.3,0,0.7,0,1c2.7,0.2,5.3,0.5,9.1,0.8c-1.2-1.2-1.8-2.2-2.4-2.2&#10;&#9;&#9;&#9;&#9;C1151.2,127.8,1148.9,128.1,1146.7,128.2z M410.9,125.8c2.2,0,4.3,0,7.2,0c-2-1.3-3.5-2.2-5.1-3.1&#10;&#9;&#9;&#9;&#9;C412.2,123.9,411.5,124.8,410.9,125.8z M1151,122.8c-2.4-0.1-4.8-0.2-8-0.3C1146.1,125.2,1148.6,124,1151,122.8z M664.6,95.5&#10;&#9;&#9;&#9;&#9;c0-0.3,0-0.7,0.1-1c-3.1-0.6-6.2-0.1-9.3,1C658.4,95.5,661.5,95.5,664.6,95.5z M1013.3,118.5c0.2-0.6,0.5-1.3,0.8-2.2&#10;&#9;&#9;&#9;&#9;c-2.3,0.4-5-0.4-5.5,2.2C1010.1,118.5,1011.6,118.5,1013.3,118.5z M1146.2,128.2c-0.1-0.3-0.2-0.6-0.2-0.8&#10;&#9;&#9;&#9;&#9;c-3.8-0.6-3.8-0.6-4.5,1.2C1143.2,128.4,1144.7,128.3,1146.2,128.2z" style="fill: rgb(6, 6, 6);" transform="matrix(1.2023898284185666, 0, 0, 1.2023898284185666, -184.12031055042917, -67.38303458403429)"/>
			
			
			
			
			
			
			
			
			
			
			
			
			
			
			
			
			
			
			
			
			
			
			
			
			
			
			
			
			
			
			
			
			
			
			
			
			
			
			
			
			
			
			
			
			
			
			
			
			
			
			
			
			
			
			
			
			
			
			
			
			
			
			
			
			
			
			
			
			
			
			
			
			
			
			
			
			
			
			
			
			
			
			
			
			
			
			
			
			
			
			
			
			
			
			
			
			
			
			
			
			
			
			
			
			
			
			
			
			
			
			
			
			
			
			
			
			
			
			
			
			
			
			
			
			
			
			
			
			
			
			
			
			
			
			
			
			
			
			
			
			
			
			
			
			
			
			
			
			
			
			
			
			<path class="st54" d="M913.4,87.7c-0.7,0-1.3,0.1-2,0c-4.3-0.5-6.1,0-7.5,2.4c-0.2,0.3,0.5,0.8,0.8,1.2c-2,0.1-3.9,0.2-5.8,0.4&#10;&#9;&#9;&#9;&#9;c-0.7,0.1-1.4,0.5-1.8,0.9c-2.3,2.3-4.1,2.2-6.1-0.5c-0.8,0.2-1.7,0.4-2.5,0.6c-2.6-1.8,0.5-2.1,2.2-3.2&#10;&#9;&#9;&#9;&#9;c-3.8-0.2-6.8-0.3-10.1-0.4c0.2-0.5,0.4-1,0.6-1.6c-0.2-0.1-0.4-0.2-0.6-0.3c-0.8,0.6-1.7,1.3-3,2.3c-0.1-0.2-0.4-0.5-0.3-0.8&#10;&#9;&#9;&#9;&#9;c0.3-1.7-0.8-2-2.9-1.8c-1.1,0.1-2.4-0.2-3.6-0.4c4.5-1.9,8.9-0.4,13.4,0.2c1.2,0.2,2.7,0.7,3.6,0.4c3-1,4.7,0.5,6.7,1.4&#10;&#9;&#9;&#9;&#9;c1.7-0.6,3.2-1.1,4-1.4c1.8,0.1,3.2,0.5,3.8,0.2c2.9-1.7,6-1.1,9.1-0.7C912.1,87,912.7,87.3,913.4,87.7z" style="fill: rgb(6, 6, 6);" transform="matrix(1.2023898284185666, 0, 0, 1.2023898284185666, -184.12031055042917, -67.38303458403429)"/>
			
			
			
			
			
			
			
			
			
			
			
			
			
			
			
			
			
			
			
			
			
			
			
			
			
			
			
			
			
			
			
			
			<path class="st88" d="M1152.4,107.4c-0.7,0.7-1.5,1.3-2.2,2c-1.4,0-2.9,0-4.6,0c-0.1-0.3-0.5-0.9-0.4-1.3&#10;&#9;&#9;&#9;&#9;c0.4-1.9-1.4-2.3-3.3-2.5c-1.1-0.1-2.2-0.1-3.3-0.2c-3.6-0.1-4.5-2-4.9-4.1c0.7-0.1,1.3-0.3,2-0.4c2.1,0.2,4.1,0.4,6.2,0.5&#10;&#9;&#9;&#9;&#9;c0-0.2,0-0.4,0-0.5c1.5,0.7,3,1.4,4.9,2.3c0.4-0.5,0.9-1,1.4-1.5c-0.4,0.3-0.8,0.6-1.2,0.8c1.8,0.8,3.5,1.7,5.3,2.5&#10;&#9;&#9;&#9;&#9;c0,0.1-0.1,0.3-0.1,0.4c-1.7-0.2-3.4-0.4-5.5-0.6c0.8,1.8,1.7,2.8,4.2,2c0.4-0.1,1-0.3,1.2-0.1&#10;&#9;&#9;&#9;&#9;C1152.3,106.7,1152.3,107.1,1152.4,107.4z" style="fill: rgb(6, 6, 6);" transform="matrix(1.2023898284185666, 0, 0, 1.2023898284185666, -184.12031055042917, -67.38303458403429)"/>
			
			
			<path class="st78" d="M463.6,130.6c0.9-0.6,1.7-1.5,2.8-1.7c2.4-0.5,5.5-0.2,4.5-3.7c2.9,3.5,6.4,3.1,10.2,2.5&#10;&#9;&#9;&#9;&#9;c2.4-0.4,5,0,7.5-0.1c0.8,0,1.7-0.3,2.5-0.4c-0.5,1.2-0.9,2.4-3.2,2.6c-1,0.1-1.8,1-2.6,1.4c-0.6-0.5-1.4-1.4-1.7-1.4&#10;&#9;&#9;&#9;&#9;c-1.3,0.3-2.4,1-3.6,1.4c-1,0.3-2,0.6-3,0.7c-0.2,0-0.5-0.9-0.8-1.4c-1.4,0-3-0.1-4.6,0c-1.9,0.1-4.4-0.5-4.9,1.8&#10;&#9;&#9;&#9;&#9;c0,0.1-0.9,0.1-1.4,0.1C464.6,131.8,464.1,131.2,463.6,130.6z" style="fill: rgb(6, 6, 6);" transform="matrix(1.2023898284185666, 0, 0, 1.2023898284185666, -184.12031055042917, -67.38303458403429)"/>
			
			
			
			
			
			
			
			
			
			<path class="st96" d="M633.3,120.1c-0.2-0.4-0.4-0.7-0.6-1.1c0.1,0,0.3,0,0.4,0c2.1-0.7,4.2-1.3,6.2-2.1c0.6-0.2,0.8-0.9,1.4-1.3&#10;&#9;&#9;&#9;&#9;c0.6-0.4,1.3-0.7,1.9-1.1c-0.1,0.6-0.2,1.1-0.3,1.7c-0.1,0.3-0.4,0.5-0.9,1.4c1.6-0.2,2.7-0.2,3.7-0.5c2.7-0.8,5.2-0.9,7.5,0.7&#10;&#9;&#9;&#9;&#9;c1.1,0.7,2.6,1.1,4,1.6c-0.2,0.2-0.5,0.3-0.7,0.5c-1-0.1-2-0.1-2.9-0.3c-2-0.3-3.2,0-3,2c-0.5-0.6-0.7-1.2-1-1.3&#10;&#9;&#9;&#9;&#9;c-3.8-0.3-7.6-0.6-11.4-0.9c-0.5,0-1.1,0.6-1.6,0.6C635.1,120.4,634.2,120.2,633.3,120.1z" style="fill: rgb(6, 6, 6);" transform="matrix(1.2023898284185666, 0, 0, 1.2023898284185666, -184.12031055042917, -67.38303458403429)"/>
			<path class="st97" d="M673.9,92.5c-3.7-0.1-7.3-0.3-11-0.3c-0.6,0-1.2,0.3-1.8,0.4c-0.4,0.1-0.8,0.3-1.2,0.3&#10;&#9;&#9;&#9;&#9;c-4.6,0.2-9.2,0.3-13.8,0.4c-0.2,0-0.5-0.3-0.7-0.4c1.3-0.5,2.6-0.9,3.9-1.4c2.6-0.4,5.2-1.1,7.9-1.2c5.2-0.2,10.3-1.3,15.5-0.4&#10;&#9;&#9;&#9;&#9;C673,90.8,673.4,91.7,673.9,92.5z" style="fill: rgb(6, 6, 6);" transform="matrix(1.2023898284185666, 0, 0, 1.2023898284185666, -184.12031055042917, -67.38303458403429)"/>
			<path class="st80" d="M832.2,87.2c0.4,1.2,0.7,2.3-2,2c-3.3-0.4-6.7-0.8-10.1-0.7c-5.1,0.1-10.2,0.5-15.2,0.8&#10;&#9;&#9;&#9;&#9;c0.5-0.5,0.9-1,1.4-1.5c2.1-0.3,4.1-0.8,6.2-0.9c5.4-0.3,10.9-0.4,16.3-0.5C829.9,86.4,831.1,86.9,832.2,87.2z" style="fill: rgb(6, 6, 6);" transform="matrix(1.2023898284185666, 0, 0, 1.2023898284185666, -184.12031055042917, -67.38303458403429)"/>
			
			
			
			
			<path class="st87" d="M612.6,94.3c-0.9,0.5-1.8,1-2.6,1.6c-6,0.6-11.9,1.7-18.1,0.4c2.6-0.2,5.2-0.5,8.3-0.8&#10;&#9;&#9;&#9;&#9;c-1.1-1.5-1.9-2.6-2.8-3.8c0.7,0,1.3-0.1,1.5,0c1.9,1.6,3.4,1.1,5.5-0.1C606.4,90.5,611,92.2,612.6,94.3z" style="fill: rgb(6, 6, 6);" transform="matrix(1.2023898284185666, 0, 0, 1.2023898284185666, -184.12031055042917, -67.38303458403429)"/>
			
			
			<path class="st101" d="M538.2,90.6c-0.5-1.1-0.9-2.3-1.4-3.4c2.4-0.3,5.5,1,6.5-1.8c1.8-0.1,3.7-0.1,5.5-0.2&#10;&#9;&#9;&#9;&#9;c0.7,0,1.4-0.2,2.1-0.3c0.6,0.8,1.2,1.6,1.8,2.6c-1.9,0.8-5.7-0.1-5.1,2.9c-0.8,0.1-1.5,0.2-2.3,0.3&#10;&#9;&#9;&#9;&#9;C542.9,90.8,540.6,92.5,538.2,90.6z" style="fill: rgb(6, 6, 6);" transform="matrix(1.2023898284185666, 0, 0, 1.2023898284185666, -184.12031055042917, -67.38303458403429)"/>
			<path class="st102" d="M775,89.2c-1.3-0.6-2.5-1.1-4.1-1.8c-0.2,1-0.4,1.7-0.6,2.4c-0.2,0-0.3,0-0.5,0c-0.2-0.5-0.5-0.9-0.7-1.6&#10;&#9;&#9;&#9;&#9;c-1.7,1.9-4,2.1-6.8,1.8c-2.6-0.3-5.3,0.1-8,0c-0.9,0-1.7-0.8-2.6-1.2c0.1-0.4,0.3-0.7,0.4-1c1.4,0,2.8,0.1,4.2,0&#10;&#9;&#9;&#9;&#9;c5.4-0.4,10.7-1,16.1-1.3c1.5-0.1,3.1,0.8,4.7,1.3C776.4,88.2,775.7,88.7,775,89.2z" style="fill: rgb(6, 6, 6);" transform="matrix(1.2023898284185666, 0, 0, 1.2023898284185666, -184.12031055042917, -67.38303458403429)"/>
			
			<path class="st78" d="M680.4,120.6c2.8-1.4,5.5-2.9,8.7-4.5c0.2,0.1,1.1,0.6,2.1,1c-0.6,0.5-1.2,1-1.5,1.2&#10;&#9;&#9;&#9;&#9;c1.4,0.4,2.8,0.7,4.7,1.3c1.1-1,2.6-2.4,4.2-3.8c0.3,0.1,0.6,0.1,0.9,0.2c-0.3,0.9-0.7,1.8-1,2.6c0.6,0,1.7,0,2.7,0&#10;&#9;&#9;&#9;&#9;c0.4,0.5,0.9,1.1,1.3,1.6c-3.1,0.4-6.1,0.8-8.1,1.1c-3.4-0.2-5.8-0.3-8.2-0.4C684.2,120.7,682.3,120.7,680.4,120.6z" style="fill: rgb(6, 6, 6);" transform="matrix(1.2023898284185666, 0, 0, 1.2023898284185666, -184.12031055042917, -67.38303458403429)"/>
			
			<path class="st4" d="M655.9,120c0.2-0.2,0.5-0.3,0.7-0.5c5.1,0,10.2-0.1,15.3,0.1c2.3,0.1,4.5,0.9,6.7,1.3c0.1,1,0.3,1.9-1.8,1.8&#10;&#9;&#9;&#9;&#9;c-3-0.1-6.4,0.6-9.1-0.1c-3.5-0.9-6.8-1.2-10.4-1.3C656.8,121.4,656.3,120.5,655.9,120z" style="fill: rgb(6, 6, 6);" transform="matrix(1.2023898284185666, 0, 0, 1.2023898284185666, -184.12031055042917, -67.38303458403429)"/>
			<path class="st32" d="M1173.5,113.3c-2.8,0-5.5,0.6-8.3-1c-1.6-0.9-4.9-0.2-7.8-0.2c-0.4-0.2-1.2-0.7-2.8-1.5&#10;&#9;&#9;&#9;&#9;c3.3-0.2,5.6-0.3,8-0.5c-0.4-0.4-0.8-0.8-1.1-1.2c2.7-0.5,5.3-1,7.4,1.3c0.8,0.9,2.4,0.6,2.6-0.8l0,0c1.7,1.2,3.4,2.4,5.4,3.8&#10;&#9;&#9;&#9;&#9;C1175.9,113.3,1174.7,113.3,1173.5,113.3z" style="fill: rgb(6, 6, 6);" transform="matrix(1.2023898284185666, 0, 0, 1.2023898284185666, -184.12031055042917, -67.38303458403429)"/>
			<path class="st103" d="M913.4,87.7c-0.7-0.4-1.3-0.7-2-1.1c6,0.1,12,0.1,17.4,0.2c1.4,1.3,2.4,2.1,3.3,2.9c0,0.1,0.1,0.2,0.1,0.3&#10;&#9;&#9;&#9;&#9;c-1.4,0.8-2.8,1.7-4.2,2.5c0.8-2.1-1.6-2.3-3.3-2.9c0-0.7,0-1.3,0-1.9c-0.9,0.6-1.8,1.1-3.1,1.9c-0.5-0.5-1-1.1-1.8-1.9&#10;&#9;&#9;&#9;&#9;c-0.1,0.8-0.2,1.4-0.4,2c-2.9,0.7-3.3-0.4-2.7-2C915.5,87.7,914.4,87.7,913.4,87.7z" style="fill: rgb(6, 6, 6);" transform="matrix(1.2023898284185666, 0, 0, 1.2023898284185666, -184.12031055042917, -67.38303458403429)"/>
			<path class="st97" d="M326,69.5c-1.6-0.4-3.1-0.8-4.8-1.2c0.8-0.2,1.6-0.5,2.5-0.8c-2-0.4-3.9-0.7-5.8-1&#10;&#9;&#9;&#9;&#9;c3.5-0.4,7.1-0.8,10.6-1.1c1,2,3.3,1.6,5.4,1.5c2.6-0.4,5.3-0.8,7.9-1.1c0.3,0,0.7,0.8,1.1,1.3c-2.2,0.5-4.4,1.4-6.6,1.5&#10;&#9;&#9;&#9;&#9;c-2.5,0.1-4.8,0.4-6.5,1.8l0.1,0C328.6,70.1,327.3,69.8,326,69.5z" style="fill: rgb(6, 6, 6);" transform="matrix(1.2023898284185666, 0, 0, 1.2023898284185666, -184.12031055042917, -67.38303458403429)"/>
			<path class="st104" d="M274,49.5c-1.9,0.8-3.6,2-5.7,2.4c-6.7,1.5-13.5,2.7-20.7,4.1c-0.1-0.1-0.5-0.7-1.3-1.7&#10;&#9;&#9;&#9;&#9;c4.2-0.9,8.1-1.8,12.1-2.6c4.7-0.9,9.4-1.7,14.1-2.6C272.9,49.1,273.5,49.4,274,49.5L274,49.5z" style="fill: rgb(6, 6, 6);" transform="matrix(1.2023898284185666, 0, 0, 1.2023898284185666, -184.12031055042917, -67.38303458403429)"/>
			
			
			
			<path class="st105" d="M240.8,60c-1.6,0.5-3.2,1-4.8,1.3c-1.9,0.4-3.9,0.5-6.3,0.8c-1.2-0.9,3.3-2.4,0.2-3.5&#10;&#9;&#9;&#9;&#9;c0-0.8-0.2-1.7,1.8-1.1c1.2,0.4,2.7,0.4,4.4,0.6c-1.9-3.4,2.3-2,2.7-3.4c0.2,0.1,0.5,0.2,0.7,0.4c-0.1,0.3-0.2,0.6-0.4,1&#10;&#9;&#9;&#9;&#9;c1.1-0.2,2.2-0.3,3.3-0.5c0.2,0.2,0.4,0.3,0.6,0.5c-1.3,1.2-2.6,2.5-3.9,3.7C239.6,59.8,240.2,59.9,240.8,60z" style="fill: rgb(6, 6, 6);" transform="matrix(1.2023898284185666, 0, 0, 1.2023898284185666, -184.12031055042917, -67.38303458403429)"/>
			
			<path class="st63" d="M1091.1,94.4c-4.4-0.4-8.9-0.9-13.3-1.3c-1.4-0.6-2.8-1.2-4.2-1.7c0-0.2,0-0.4,0-0.7&#10;&#9;&#9;&#9;&#9;c6.9-0.9,13.6,0.8,21.4,1.4C1093.2,93.1,1092.2,93.8,1091.1,94.4z" style="fill: rgb(6, 6, 6);" transform="matrix(1.2023898284185666, 0, 0, 1.2023898284185666, -184.12031055042917, -67.38303458403429)"/>
			
			
			
			
			<path class="st96" d="M1062.5,95.4c-0.6,0.6-1.1,1.4-1.9,1.9c-1.4,0.8-3,2-4.4,2c-1.7,0-3.8-1-5-2c-0.9-0.8,0.1-1.6,1.9-1.3&#10;&#9;&#9;&#9;&#9;c2.1,0.3,4.2,0.4,6.5,0.1c-1.3-0.3-2.7-0.6-4-0.7c-3.7-0.5-3.7-0.5-1.6-2.7c0.3-0.3,0.6-0.6,1.6-0.8c-0.1,1-0.2,1.9-0.3,2.9&#10;&#9;&#9;&#9;&#9;c0.1,0,0.3,0.1,0.4,0.1c0.6-0.7,1.1-1.5,1.7-2.3C1059.6,93.5,1063.8,92.2,1062.5,95.4z" style="fill: rgb(6, 6, 6);" transform="matrix(1.2023898284185666, 0, 0, 1.2023898284185666, -184.12031055042917, -67.38303458403429)"/>
			
			<path class="st107" d="M775,89.2c0.7-0.5,1.3-0.9,2-1.4c1.9-0.3,3.9-0.8,5.8-0.9c1.1-0.1,2.3,0.5,3.4,0.9c0,0.4-0.2,0.9,0.1,1.1&#10;&#9;&#9;&#9;&#9;c2.4,1.5,6.6,0.9,8.1-1.1c1.5,0.7,3,1.3,4.6,2c0,0.4,0,0.8,0,1.2c-4.6,0.1-9.3,0.1-13.9,0.2c-0.7-1.5-2.3-1.4-4.2-1.5&#10;&#9;&#9;&#9;&#9;C778.9,89.6,776.5,91.6,775,89.2z" style="fill: rgb(6, 6, 6);" transform="matrix(1.2023898284185666, 0, 0, 1.2023898284185666, -184.12031055042917, -67.38303458403429)"/>
			
			
			<path class="st97" d="M1014.8,90c-0.8,0.1-1.7,0.2-2.5,0.2c0,0.1,0,0.2,0,0.3c0.9,0,1.8,0.1,2.7,0.1c0,0.2,0,0.3,0,0.5&#10;&#9;&#9;&#9;&#9;c-2.1,0-4.3,0-6.4,0c-0.2,1.6-4,2.9-5.7,1.9c-2.1-1.2-3.9-2.6-6.9-2.6c-0.7,0-1.4-0.9-2.1-1.4C1000.8,89.4,1007.8,89.7,1014.8,90&#10;&#9;&#9;&#9;&#9;z" style="fill: rgb(6, 6, 6);" transform="matrix(1.2023898284185666, 0, 0, 1.2023898284185666, -184.12031055042917, -67.38303458403429)"/>
			
			
			
			
			<path class="st88" d="M838.2,115.7c-1.5-0.3-3-0.7-5-1.1c1.3-1,1.9-1.6,2.6-2.2c0.5,0.3,0.9,0.6,1.4,0.9c1.5-2.6,2.3-2.6,5.7,0.6&#10;&#9;&#9;&#9;&#9;c0.7-0.7,1.3-1.4,2-2.1c0.4,0.1,0.8,0.1,1.1,0.2c-0.1,1-0.2,1.9-0.3,2.9c-0.1,0.6-0.1,1.2-0.2,1.8c-2.2-0.1-4.5-0.1-6.7-0.2&#10;&#9;&#9;&#9;&#9;C838.7,116.2,838.5,116,838.2,115.7z" style="fill: rgb(6, 6, 6);" transform="matrix(1.2023898284185666, 0, 0, 1.2023898284185666, -184.12031055042917, -67.38303458403429)"/>
			
			
			
			<path class="st108" d="M329.9,70.3c1.8-1.4,4-1.6,6.5-1.8c2.2-0.1,4.4-1,6.6-1.5c0.3,0.1,0.6,0.3,0.9,0.4c0.5-0.1,1-0.3,1.4-0.4&#10;&#9;&#9;&#9;&#9;c0.8,0.1,1.6,0.2,2.3,0.2c1.6,0,3.3-0.2,4.9-0.3c-0.8,0.4-1.6,0.8-2.4,1.2c-0.5,0.2-1.1,0.4-1.6,0.7c-2,0.2-4,0.4-5.9,0.7&#10;&#9;&#9;&#9;&#9;c-1,0.2-1.8,0.8-2.7,1.2c-0.9-0.2-1.7-0.5-2.6-0.5C334.9,70.2,332.4,70.3,329.9,70.3z" style="fill: rgb(6, 6, 6);" transform="matrix(1.2023898284185666, 0, 0, 1.2023898284185666, -184.12031055042917, -67.38303458403429)"/>
			
			
			
			<path class="st64" d="M775,117.1c0.2-0.1,0.4-0.3,0.5-0.3c5.9,1.6,11.1-0.9,16.7-1.4c3-0.3,3,0.6,2.2,2.2c-1.6,0.1-3.2,0-4.7,0.3&#10;&#9;&#9;&#9;&#9;c-1.3,0.2-2.5,0.8-3.8,1.2c0.1,0.2,0.3,0.4,0.4,0.6c-0.8-0.5-1.6-1-1.8-1.1c-2.1,0.2-3.6,0.4-5.2,0.6&#10;&#9;&#9;&#9;&#9;C777.8,118.4,776.4,117.8,775,117.1z" style="fill: rgb(6, 6, 6);" transform="matrix(1.2023898284185666, 0, 0, 1.2023898284185666, -184.12031055042917, -67.38303458403429)"/>
			<path class="st35" d="M847.6,89.2c-0.8,1.3,0.4,1.3,1.6,1.3c1.7,0,3.4,0.1,5.1,0.2c0,0.2,0,0.4,0,0.6c-3.7,0.6-7.5,1.2-11.7,1.9&#10;&#9;&#9;&#9;&#9;c-0.8-2.5-4.7-0.9-8.3-1.7c3.1-0.8,5.2-1.3,7.2-1.8c1.8-0.2,3.5-0.4,5.3-0.6C847.1,89.1,847.3,89.2,847.6,89.2z" style="fill: rgb(6, 6, 6);" transform="matrix(1.2023898284185666, 0, 0, 1.2023898284185666, -184.12031055042917, -67.38303458403429)"/>
			
			
			<path class="st104" d="M577.4,95.8c-0.9,0.5-1.8,1-2.7,1.6c-0.4,0-0.9-0.1-1.3-0.1c-4.1-0.5-8.3-1-12.4-1.6&#10;&#9;&#9;&#9;&#9;c-1-0.2-1.9-0.8-2.9-1.2c0.9-0.2,1.9-0.6,2.7-0.5c2.2,0.3,4.3,0.8,6.5-0.3c0.5-0.3,2.3,0.3,3.1,0.8c1.5,1.1,1.8,1.1,2.8-0.4&#10;&#9;&#9;&#9;&#9;c0.5,0.5,0.9,0.9,1.4,1.4c0.6-0.6,1-1.1,1.5-1.5C576.6,94.7,577,95.3,577.4,95.8z" style="fill: rgb(6, 6, 6);" transform="matrix(1.2023898284185666, 0, 0, 1.2023898284185666, -184.12031055042917, -67.38303458403429)"/>
			
			
			
			<path class="st109" d="M429.7,131.1c1.4-1.1,2.6-2.4,4.2-3.3c0.5-0.3,2,0.2,3,0.3c1.9,0.2,4.1,0.9,5.7,0.4&#10;&#9;&#9;&#9;&#9;c3.1-0.9,3.2-1.1,3.8,1.6c-2.1-0.1-4.3-0.4-6.4-0.1c-0.9,0.1-1.6,1.3-2.6,2.1c0,0-0.2-0.5-0.5-0.8c-1-1-3.3-0.7-4.3,0.3&#10;&#9;&#9;&#9;&#9;c-0.5,0.5-1.6,0.6-2.4,0.9C430.1,132,429.9,131.6,429.7,131.1z" style="fill: rgb(6, 6, 6);" transform="matrix(1.2023898284185666, 0, 0, 1.2023898284185666, -184.12031055042917, -67.38303458403429)"/>
			<path class="st110" d="M673.9,92.5c-0.4-0.8-0.9-1.7-1.3-2.5c2.7-0.2,5.3-0.4,8-0.4c0.9,0,2.5,0.4,2.6,0.7&#10;&#9;&#9;&#9;&#9;c0.5,2.8,3.1,2.1,5.5,1.9c0,0.2,0,0.5,0,0.7c-3.1,0.2-6.2,0.5-9.3,0.7C677.5,93.2,675.7,92.9,673.9,92.5z" style="fill: rgb(6, 6, 6);" transform="matrix(1.2023898284185666, 0, 0, 1.2023898284185666, -184.12031055042917, -67.38303458403429)"/>
			<path class="st111" d="M412.5,131.1c2.7,0.1,5.4,0.1,8.1,0.2c1.1,0,2.1-0.1,3.2-0.1c0.2,0.4,0.4,0.9,0.7,1.5&#10;&#9;&#9;&#9;&#9;c-2.5,0.6-4.9,1.5-7.3,1.6c-2.4,0.1-4.9-0.6-7.3-1c-1.4-0.2-2.7-0.6-4-0.9C408,132,410.2,131.5,412.5,131.1z" style="fill: rgb(6, 6, 6);" transform="matrix(1.2023898284185666, 0, 0, 1.2023898284185666, -184.12031055042917, -67.38303458403429)"/>
			
			
			
			
			
			<path class="st90" d="M838.2,115.7c0.2,0.3,0.4,0.6,0.6,0.8c-2.1,0.5-4.2,0.9-6.7,1.5c0.5,0.3,1.1,0.6,2.2,1.3&#10;&#9;&#9;&#9;&#9;c-4,0.6-7.7,0.9-11.5,0.3c0.8-0.6,1.5-1.2,2.3-1.8c0.5-0.4,1.1-1,1.7-1c3.4-0.3,6.7-0.5,10.1-0.7&#10;&#9;&#9;&#9;&#9;C837.4,116,837.8,115.8,838.2,115.7z" style="fill: rgb(6, 6, 6);" transform="matrix(1.2023898284185666, 0, 0, 1.2023898284185666, -184.12031055042917, -67.38303458403429)"/>
			<path class="st67" d="M465,53.5c-0.3,0.7-0.6,1.4-1.1,2.5c-4.3,0.1-8.9,0.2-13.5,0.3c-0.2-0.8-0.4-1.5-0.7-2.8&#10;&#9;&#9;&#9;&#9;c4.1,1.4,8.8-2,11.7,1.1C462.7,54.2,463.8,53.8,465,53.5z" style="fill: rgb(6, 6, 6);" transform="matrix(1.2023898284185666, 0, 0, 1.2023898284185666, -184.12031055042917, -67.38303458403429)"/>
			<path class="st48" d="M412.5,131.1c-2.2,0.4-4.5,0.8-6.7,1.3c-1.1-0.1-2.2-0.2-3.3-0.3c-0.4-0.7-0.9-1.3-1-1.5&#10;&#9;&#9;&#9;&#9;c3.4-0.9,6.4-1.8,9.4-2.5c0.9-0.2,2,0.2,3,0.3C413.4,129.3,413,130.2,412.5,131.1z" style="fill: rgb(6, 6, 6);" transform="matrix(1.2023898284185666, 0, 0, 1.2023898284185666, -184.12031055042917, -67.38303458403429)"/>
			<path class="st67" d="M445,54c-2.7,4.9-8.9,2.7-13.6,3.5c0-0.2,0.1-0.5,0.1-0.7c-1.6-0.3-3.1-0.7-4.7-1c3.7-0.3,7.3-0.6,11-1&#10;&#9;&#9;&#9;&#9;C440.3,54.5,442.7,54.2,445,54z" style="fill: rgb(6, 6, 6);" transform="matrix(1.2023898284185666, 0, 0, 1.2023898284185666, -184.12031055042917, -67.38303458403429)"/>
			<path class="st76" d="M297.4,55.3c-1.6,0.4-3.3,0.8-4.9,1.2c-0.7,0.1-1.4,0.1-2.2,0.1c0-0.6,0.1-1.1,0.1-1.7&#10;&#9;&#9;&#9;&#9;c0-0.6,0.1-1.2,0.1-1.7c1.8,0.9,3.2-0.3,4.7-0.5c2.3-0.4,4.6-1,6.8-1.6c0.2,0.2,0.4,0.4,0.6,0.5C301,52.8,299.2,54,297.4,55.3z" style="fill: rgb(6, 6, 6);" transform="matrix(1.2023898284185666, 0, 0, 1.2023898284185666, -184.12031055042917, -67.38303458403429)"/>
			<path class="st105" d="M829.6,122.2c-8.2,0.2-16.3,1.3-24.4,0.1c0-0.3,0-0.5,0-0.8c8.2,0,16.4,0,24.6,0&#10;&#9;&#9;&#9;&#9;C829.7,121.8,829.6,122,829.6,122.2z" style="fill: rgb(6, 6, 6);" transform="matrix(1.2023898284185666, 0, 0, 1.2023898284185666, -184.12031055042917, -67.38303458403429)"/>
			
			
			<path class="st109" d="M942,88.2c0.4,0.8,0.7,1.5,1.1,2.4c-2.5,0.6-5.1,1.2-7,1.6c-1.5-1.2-2.5-1.9-3.5-2.6&#10;&#9;&#9;&#9;&#9;c0.1-0.6,0.2-1.2,0.2-1.4C936.1,88.2,939,88.2,942,88.2z" style="fill: rgb(6, 6, 6);" transform="matrix(1.2023898284185666, 0, 0, 1.2023898284185666, -184.12031055042917, -67.38303458403429)"/>
			<path class="st83" d="M863.5,117.7c3,0,5.9,0,8.9,0c2.2,0.5,4.3,0.9,6.5,1.4l0,0c-3.4,0.3-6.7,0.6-10.1,0.9&#10;&#9;&#9;&#9;&#9;c-1.1,0.1-2.2-0.1-3.2-0.1C863.6,119.7,862.6,119.2,863.5,117.7z" style="fill: rgb(6, 6, 6);" transform="matrix(1.2023898284185666, 0, 0, 1.2023898284185666, -184.12031055042917, -67.38303458403429)"/>
			
			<path class="st32" d="M312.6,139.2c-0.3-1.5,0.8-2.9,2.6-1.9c2.5,1.4,5,1.1,7.6,1.1c-0.1,0.6-0.1,1.2-0.2,1.9&#10;&#9;&#9;&#9;&#9;c-1.8,0.4-3.6,0.8-5.4,1.2C314.3,142.2,313.5,140.6,312.6,139.2z" style="fill: rgb(6, 6, 6);" transform="matrix(1.2023898284185666, 0, 0, 1.2023898284185666, -184.12031055042917, -67.38303458403429)"/>
			
			
			
			
			<path class="st103" d="M557.5,62.1c-0.7,0-1.4,0.2-2,0.1c-1.3-0.3-2.7-0.6-3.9-1.1c-1.3-0.6-2.5-1.4-4.2-2.4&#10;&#9;&#9;&#9;&#9;c1.6-0.4,2.3-0.5,3-0.7c-0.6-0.6-1.1-1.1-1.6-1.7c1.7,0.2,3.4,0.5,5,0.7c-0.3,0.9-0.7,1.7-1.1,2.9c1.8-0.4,3.2-0.6,5.1-1&#10;&#9;&#9;&#9;&#9;C557.7,60.1,557.6,61.1,557.5,62.1z" style="fill: rgb(6, 6, 6);" transform="matrix(1.2023898284185666, 0, 0, 1.2023898284185666, -184.12031055042917, -67.38303458403429)"/>
			<path class="st113" d="M958,95.9c-1.3-0.2-2.7-0.5-4-0.7c0.1-0.3,0.1-0.5,0.2-0.8c1.1-0.2,2.2-0.5,3-0.7&#10;&#9;&#9;&#9;&#9;c-1.3-1.7-2.5-3.2-3.7-4.7c1.9,0,3.8,0,5.7,0c-0.2,0.2-0.5,0.4-0.7,0.6c0.7,0.7,1.5,1.4,2.2,2.1c-0.3,1.3,0.4,3-2.7,2.8&#10;&#9;&#9;&#9;&#9;C957.9,95.1,957.9,95.5,958,95.9z" style="fill: rgb(6, 6, 6);" transform="matrix(1.2023898284185666, 0, 0, 1.2023898284185666, -184.12031055042917, -67.38303458403429)"/>
			
			
			<path class="st103" d="M323.9,138.3c0.2-1,0.5-2,0.8-3.4c3.4,2.2,8.1,0,11.2,2.4c-0.2,0.6-0.3,1.6-0.8,1.7&#10;&#9;&#9;&#9;&#9;c-0.7,0.2-1.7-0.4-2.6-0.4c-2-0.1-3.9-0.2-5.9-0.3C325.8,138.4,324.8,138.4,323.9,138.3z" style="fill: rgb(6, 6, 6);" transform="matrix(1.2023898284185666, 0, 0, 1.2023898284185666, -184.12031055042917, -67.38303458403429)"/>
			<path class="st114" d="M228.7,123.4c0.8,0.4,1.5,0.9,2.6,1.5c-2,0.4-3.3,0.7-4.7,0.9c-1.9,0-3.9,0-5.4,0&#10;&#9;&#9;&#9;&#9;c-0.9-1.8-1.6-3.4-2.4-4.9c-0.4,0-0.7,0.1-1.1,0.1c0.7-0.3,1.4-0.8,2.1-0.9c0.7-0.1,1.5,0.2,2.3,0.4c-0.2,0.4-0.6,0.8-0.5,1.1&#10;&#9;&#9;&#9;&#9;c0.2,1,0.6,2.1,1,3.1c0.1,0.2,0.9,0.3,1.2,0.3C225.6,124.4,227.1,123.9,228.7,123.4z" style="fill: rgb(6, 6, 6);" transform="matrix(1.2023898284185666, 0, 0, 1.2023898284185666, -184.12031055042917, -67.38303458403429)"/>
			<path class="st83" d="M1116.3,131.1c0.7-0.6,1.3-1.7,2.1-1.7c2.2-0.1,4.4,0.1,6.6,0.2c2.2,0.1,4.5,0.3,6.7,0.5&#10;&#9;&#9;&#9;&#9;c-0.2,0.2-0.5,0.3-0.7,0.5c-2.2,2-5.2,1.4-8,1.3C1120.7,131.9,1118.5,131.4,1116.3,131.1z" style="fill: rgb(6, 6, 6);" transform="matrix(1.2023898284185666, 0, 0, 1.2023898284185666, -184.12031055042917, -67.38303458403429)"/>
			
			<path class="st111" d="M369.9,136.4c0.2,0,0.4,0,0.6,0.1c2.4-0.3,4.8-0.6,7.2-1c1.3-0.2,2.6-0.4,3.9-0.5&#10;&#9;&#9;&#9;&#9;c-0.1-0.2-0.1-0.3-0.2-0.5c-1-0.3-2.1-0.6-3.1-1c2,0.1,4,0.2,6,0.2c-0.5,0.6-1,1.3-1.5,2c1,0.2,2.4,0.4,3.9,0.6&#10;&#9;&#9;&#9;&#9;c0,0.1,0,0.2,0,0.4c-4.9,0.2-9.8,0.5-14.6,0.6C371.4,137.3,370.7,136.7,369.9,136.4z" style="fill: rgb(6, 6, 6);" transform="matrix(1.2023898284185666, 0, 0, 1.2023898284185666, -184.12031055042917, -67.38303458403429)"/>
			<path class="st69" d="M447,130.1c0.6-0.5,1.2-1.1,1.8-1.6c0.1,0.2,0.1,0.4,0.2,0.6c2.3,0.1,4.6,0.2,6.8,0.2&#10;&#9;&#9;&#9;&#9;c-1.6,2.1,1.3,1.7,3.3,1.9c-0.5,0.4-1,0.7-1.6,1.1c-2.2-1.5-4-0.7-5.7,1c-0.9-0.9-1.5-1.7-2.3-2.5c-0.6,0.3-1.2,0.5-1.9,0.9&#10;&#9;&#9;&#9;&#9;C447.3,131,447.1,130.5,447,130.1z" style="fill: rgb(6, 6, 6);" transform="matrix(1.2023898284185666, 0, 0, 1.2023898284185666, -184.12031055042917, -67.38303458403429)"/>
			<path class="st32" d="M1171.5,109.4c-1.4-0.7-2.8-1.4-4.3-2c-0.9-0.4-1.9-0.5-3.5-0.9c4.9-1.9,8.6-0.1,12.4,0.4&#10;&#9;&#9;&#9;&#9;c0.5,0.1,0.7,1.1,1,1.7c-0.4,0.2-0.8,0.4-1.3,0.6c-0.5-0.8-1-1.5-1.8-2.7C1172.8,107.9,1172.1,108.7,1171.5,109.4&#10;&#9;&#9;&#9;&#9;C1171.5,109.4,1171.5,109.4,1171.5,109.4z" style="fill: rgb(6, 6, 6);" transform="matrix(1.2023898284185666, 0, 0, 1.2023898284185666, -184.12031055042917, -67.38303458403429)"/>
			<path class="st103" d="M182.3,73.8c0.7,1.3,1.6,2,3.7,1c2.2-1,2.3-0.8,4.1,1.4c-3.2,0.6-6.3,1.3-9.9,2c0.3-1.2,0.4-2.1,0.6-3&#10;&#9;&#9;&#9;&#9;C181.3,74.7,181.8,74.3,182.3,73.8z" style="fill: rgb(6, 6, 6);" transform="matrix(1.2023898284185666, 0, 0, 1.2023898284185666, -184.12031055042917, -67.38303458403429)"/>
			
			
			
			
			<path class="st61" d="M983.3,88.6c-0.9,0.2-1.8,0.6-2.8,0.7c-2.2,0.2-4.4-0.1-6.5,0.4c-1.8,0.4-3.4,1.5-5.3,2.3&#10;&#9;&#9;&#9;&#9;c-0.1-1.3-0.2-2.3-0.2-3.3c0.6-0.2,1.1-0.7,1.7-0.7C974.6,88.1,979,88.4,983.3,88.6z" style="fill: rgb(6, 6, 6);" transform="matrix(1.2023898284185666, 0, 0, 1.2023898284185666, -184.12031055042917, -67.38303458403429)"/>
			<path class="st64" d="M168.2,91.5c0.3,0.4,0.8,0.9,0.9,1.3c0.1,0.4-0.7,1.2-0.5,1.3c3,1.7-0.6,3.6,0.3,5.4&#10;&#9;&#9;&#9;&#9;c-0.4-0.1-0.8-0.1-1.2-0.2c-1.2-0.2-2.4-0.4-4.7-0.9c2.4-0.9,4-1.5,5.4-2c-1-1.1-2.2-2-2.5-3C165.7,92.9,167.4,92.2,168.2,91.5z" style="fill: rgb(6, 6, 6);" transform="matrix(1.2023898284185666, 0, 0, 1.2023898284185666, -184.12031055042917, -67.38303458403429)"/>
			<path class="st83" d="M621.3,123.3c0.7-0.7,1.3-1.9,2.1-2c3.1-0.3,6.2-0.2,9.3-0.3c-0.9,0.8-1.1,2.4-3.4,2c-0.2,0-0.6,0.8-1.1,1&#10;&#9;&#9;&#9;&#9;c-0.6,0.3-1.4,0.4-2,0.6C625.6,122.2,623,123.6,621.3,123.3z" style="fill: rgb(6, 6, 6);" transform="matrix(1.2023898284185666, 0, 0, 1.2023898284185666, -184.12031055042917, -67.38303458403429)"/>
			
			
			
			
			
			
			
			<path class="st83" d="M986.3,122.3c2.2-2.1,9-1.4,14.1-0.5C995.4,124,990.8,121.5,986.3,122.3z" style="fill: rgb(6, 6, 6);" transform="matrix(1.2023898284185666, 0, 0, 1.2023898284185666, -184.12031055042917, -67.38303458403429)"/>
			<path class="st76" d="M702.5,120.1c-0.4-0.5-0.9-1.1-1.3-1.6c2.5-0.1,5-0.3,7.5-0.3c0.1,0,0.2,0.9,0.3,1.4c-2,0.9-4,1.7-6,2.6&#10;&#9;&#9;&#9;&#9;c-0.2-0.2-0.5-0.4-0.7-0.6C702.4,121.1,702.4,120.6,702.5,120.1z" style="fill: rgb(6, 6, 6);" transform="matrix(1.2023898284185666, 0, 0, 1.2023898284185666, -184.12031055042917, -67.38303458403429)"/>
			
			<path class="st115" d="M1083.6,129.2c2.2-1.8,3.3-1.7,5,0.3c0.4,0.5,1.2,0.7,1.8,1.1c0.9,0.2,1.8,0.3,2.7,0.5&#10;&#9;&#9;&#9;&#9;c0,0.3-0.1,0.7-0.1,1c-3,0.3-5.8,0.2-7.8-1.8c-0.4-0.4-1.4-0.5-2.1-0.7c0,0-0.1-0.2,0-0.2&#10;&#9;&#9;&#9;&#9;C1083.2,129.3,1083.4,129.3,1083.6,129.2z" style="fill: rgb(6, 6, 6);" transform="matrix(1.2023898284185666, 0, 0, 1.2023898284185666, -184.12031055042917, -67.38303458403429)"/>
			
			<path class="st83" d="M847.6,89.2c-0.3,0-0.5-0.1-0.8-0.1c1-0.6,2.3-1.9,2.9-1.7c3.2,0.8,6-2.4,9.1-0.2c-0.2,0.6-0.5,1.2-0.8,2&#10;&#9;&#9;&#9;&#9;c-0.6-0.7-1-1.3-2-2.5c0.1,3-2.2,2.5-4.1,2.6C850.4,89.2,849,89.2,847.6,89.2z" style="fill: rgb(6, 6, 6);" transform="matrix(1.2023898284185666, 0, 0, 1.2023898284185666, -184.12031055042917, -67.38303458403429)"/>
			
			<path class="st110" d="M1184.6,123.5c1.4,0.1,2.7,0.3,4.1,0.4c0-0.1,0-0.2,0-0.2c-1.3-0.4-2.6-0.7-3.9-1.1c2.1-0.6,3.7-0.7,6,0.3&#10;&#9;&#9;&#9;&#9;c2.6,1.2,6,1.6,9.1,2.3c-0.1,0.2-0.1,0.4-0.2,0.7C1194.7,125,1189.7,124.2,1184.6,123.5z" style="fill: rgb(6, 6, 6);" transform="matrix(1.2023898284185666, 0, 0, 1.2023898284185666, -184.12031055042917, -67.38303458403429)"/>
			<path class="st58" d="M649.2,91.6c-1.3,0.5-2.6,0.9-3.9,1.4c-2,0-4,0.1-6,0.1c0.6-2.7,4.1-2.3,6.5-2.9&#10;&#9;&#9;&#9;&#9;C646.6,89.9,648.1,91.1,649.2,91.6z" style="fill: rgb(6, 6, 6);" transform="matrix(1.2023898284185666, 0, 0, 1.2023898284185666, -184.12031055042917, -67.38303458403429)"/>
			<path class="st20" d="M638.7,93.3c-1.6,0.2-3.2,0.4-4.9,0.5c-1,0.1-2.4,0.3-2.9,0c-2.7-1.8-4.8-0.9-7.3,1&#10;&#9;&#9;&#9;&#9;c0.3-0.9,0.3-1.2,0.4-1.5c2.5-1.2,4.9-2.1,8.2-1.1c1.6,0.4,3.9-0.5,5.6-0.8C638.1,92,638.4,92.7,638.7,93.3z" style="fill: rgb(6, 6, 6);" transform="matrix(1.2023898284185666, 0, 0, 1.2023898284185666, -184.12031055042917, -67.38303458403429)"/>
			<path class="st83" d="M878.7,116.2c1.7,0.5,3.4,1,5.1,1.5c1,0.4,2,0.8,3.1,1.2c-2.3,1.4-6,1.4-8.1,0.1l0,0&#10;&#9;&#9;&#9;&#9;C878.8,118.1,878.7,117.2,878.7,116.2z" style="fill: rgb(6, 6, 6);" transform="matrix(1.2023898284185666, 0, 0, 1.2023898284185666, -184.12031055042917, -67.38303458403429)"/>
			
			
			
			<path class="st112" d="M337.9,137.9c3.2-1.6,6.6-0.9,10-0.5c-0.1,0.4-0.1,1.1-0.4,1.3C345,139.7,340.2,139.3,337.9,137.9z" style="fill: rgb(6, 6, 6);" transform="matrix(1.2023898284185666, 0, 0, 1.2023898284185666, -184.12031055042917, -67.38303458403429)"/>
			
			<path class="st104" d="M1030.2,87.8c-4.9,0-9.1,0-14,0C1018.8,86.2,1026.9,86.3,1030.2,87.8z" style="fill: rgb(6, 6, 6);" transform="matrix(1.2023898284185666, 0, 0, 1.2023898284185666, -184.12031055042917, -67.38303458403429)"/>
			<path class="st61" d="M888.6,122.3c-6.3,0-12.5,0-18.8,0c0-0.2,0-0.3,0-0.5c6.3,0,12.6,0,18.8,0&#10;&#9;&#9;&#9;&#9;C888.6,121.9,888.6,122.1,888.6,122.3z" style="fill: rgb(6, 6, 6);" transform="matrix(1.2023898284185666, 0, 0, 1.2023898284185666, -184.12031055042917, -67.38303458403429)"/>
			<path class="st116" d="M538.2,90.6c2.4,1.9,4.7,0.2,7.1-0.1c0.8-0.1,1.6-0.2,2.3-0.3c0.2,0.2,0.3,0.4,0.5,0.7&#10;&#9;&#9;&#9;&#9;c-0.9,2-3.4,1.2-5.2,1.4c-2.7,0.3-5.5,0.4-8.2,0.6c0-0.2,0-0.4-0.1-0.7C535.8,91.7,537,91.2,538.2,90.6z" style="fill: rgb(6, 6, 6);" transform="matrix(1.2023898284185666, 0, 0, 1.2023898284185666, -184.12031055042917, -67.38303458403429)"/>
			
			
			<path class="st64" d="M1047.2,125.3c1.2,0,2.4-0.1,3.5-0.1c0.7,0.8,1.3,1.4,1.9,2.1c0.7,0.4,1.3,0.8,2,1.3&#10;&#9;&#9;&#9;&#9;c-0.1,0.1-0.2,0.2-0.3,0.3c-2.1-0.1-4.3-0.2-6.9-0.3c0.7-0.9,1.1-1.3,1.3-1.6C1048.2,126.4,1047.7,125.8,1047.2,125.3z" style="fill: rgb(6, 6, 6);" transform="matrix(1.2023898284185666, 0, 0, 1.2023898284185666, -184.12031055042917, -67.38303458403429)"/>
			
			<path class="st33" d="M316.5,63.1c-1.6-0.6-4.4,0.3-4.6-1.9c1.9-0.6,3.8-1.2,5.8-1.7c0.3,0.2,0.7,0.5,1,0.7&#10;&#9;&#9;&#9;&#9;C318,61.2,317.2,62.2,316.5,63.1z" style="fill: rgb(6, 6, 6);" transform="matrix(1.2023898284185666, 0, 0, 1.2023898284185666, -184.12031055042917, -67.38303458403429)"/>
			<path class="st9" d="M249.5,141.7c3.3-0.4,6.9-1.3,8.6,2c-1,0.3-2.2,0.9-2.8,0.7C253.2,143.7,251.4,142.6,249.5,141.7z" style="fill: rgb(6, 6, 6);" transform="matrix(1.2023898284185666, 0, 0, 1.2023898284185666, -184.12031055042917, -67.38303458403429)"/>
			<path class="st9" d="M973.3,120c1.3-0.3,2.6-0.6,3.9-1c0.8,0.3,1.6,0.6,2.3,1c0.6,0.3,1.1,0.8,1.7,1.1c-0.6,0.3-1.1,0.8-1.7,0.9&#10;&#9;&#9;&#9;&#9;C976.3,122.5,973.9,121.6,973.3,120z" style="fill: rgb(6, 6, 6);" transform="matrix(1.2023898284185666, 0, 0, 1.2023898284185666, -184.12031055042917, -67.38303458403429)"/>
			<path class="st77" d="M1174.9,129.7c-1.1-1.3-2.2-2.6-3.4-4c3.3-0.9,4.5,1.1,6.1,2.4c0.2,0.4,0.3,0.9,0.6,1.5&#10;&#9;&#9;&#9;&#9;C1177,129.7,1176,129.7,1174.9,129.7z" style="fill: rgb(6, 6, 6);" transform="matrix(1.2023898284185666, 0, 0, 1.2023898284185666, -184.12031055042917, -67.38303458403429)"/>
			
			
			
			<path class="st113" d="M586.7,124.9c0.2-3,3.6-2,5.8-2.4c0.5-0.1,1.1,0,1.6,0c0.2,0.5,0.3,1,0.5,1.8&#10;&#9;&#9;&#9;&#9;C591.9,124.5,589.3,124.7,586.7,124.9z" style="fill: rgb(6, 6, 6);" transform="matrix(1.2023898284185666, 0, 0, 1.2023898284185666, -184.12031055042917, -67.38303458403429)"/>
			<path class="st104" d="M171.6,82c-0.5,1.4-1,2.8-1.5,4.2c0-0.5,0-1,0-1.7c-1.3,0.3-2.2,0.5-3.2,0.7c-0.1-0.1-0.2-0.3-0.3-0.4&#10;&#9;&#9;&#9;&#9;c0.8-0.4,1.6-0.8,2.8-1.4c-1.5-0.6-2.6-1.1-3.7-1.6c0-0.2,0.1-0.3,0.1-0.5C167.8,81.5,169.7,81.7,171.6,82z" style="fill: rgb(6, 6, 6);" transform="matrix(1.2023898284185666, 0, 0, 1.2023898284185666, -184.12031055042917, -67.38303458403429)"/>
			
			<path class="st117" d="M966.6,89.2c-0.5,0.5-0.7,1.3-1.4,1.6c-1,0.4-2.2,0.5-3.3,0.8c0.4-0.5,0.9-1,1.3-1.5&#10;&#9;&#9;&#9;&#9;c-0.8-0.6-1.5-1.2-2.9-2.3C963,88.3,965.4,87.1,966.6,89.2z" style="fill: rgb(6, 6, 6);" transform="matrix(1.2023898284185666, 0, 0, 1.2023898284185666, -184.12031055042917, -67.38303458403429)"/>
			
			<path class="st104" d="M938,117.6c-0.4-0.5-0.8-0.9-1.1-1.5c-0.3-0.7-0.4-1.4-0.5-2.2c1.1-0.1,2.3-0.1,3.4-0.2&#10;&#9;&#9;&#9;&#9;c0,0.8,0,1.7-0.2,2.5c-0.1,0.4-0.6,0.8-1,1.3C938.5,117.6,938.3,117.6,938,117.6z" style="fill: rgb(6, 6, 6);" transform="matrix(1.2023898284185666, 0, 0, 1.2023898284185666, -184.12031055042917, -67.38303458403429)"/>
			
			
			<path class="st63" d="M775,117.1c1.4,0.7,2.8,1.3,4.2,2c-1.2,0.3-2.3,0.7-3.5,0.8c-1.8,0.2-3.6,0.3-5.5,0.4&#10;&#9;&#9;&#9;&#9;c0.4-1.4,0.8-2.7,3.5-2.3C774.1,118.2,774.6,117.5,775,117.1z" style="fill: rgb(6, 6, 6);" transform="matrix(1.2023898284185666, 0, 0, 1.2023898284185666, -184.12031055042917, -67.38303458403429)"/>
			<path class="st118" d="M298,140.2c1.9-0.2,3.8-0.5,6.1-0.8c0.4,0.2,1.1,0.8,1.9,1.3c-1.2,0.3-2.3,0.7-3.5,0.9&#10;&#9;&#9;&#9;&#9;c-1.2,0.2-2.5,0.2-4.1,0.4C298.3,141.5,298.1,140.9,298,140.2z" style="fill: rgb(6, 6, 6);" transform="matrix(1.2023898284185666, 0, 0, 1.2023898284185666, -184.12031055042917, -67.38303458403429)"/>
			<path class="st64" d="M1054.6,128.6c2.4-1.1,4.5-1.1,6.8,0.3c0.8,0.5,2.6,0.2,3.6,0.2c-1.9,1.1-5.3,1.1-10.8-0.2&#10;&#9;&#9;&#9;&#9;C1054.4,128.7,1054.5,128.6,1054.6,128.6z" style="fill: rgb(6, 6, 6);" transform="matrix(1.2023898284185666, 0, 0, 1.2023898284185666, -184.12031055042917, -67.38303458403429)"/>
			
			<path class="st102" d="M1092.9,132.2c0-0.3,0.1-0.7,0.1-1c0.7,0.1,1.4,0.3,2.1,0.4c2.8,0.2,5.7,0.4,8.5,0.6&#10;&#9;&#9;&#9;&#9;c0.2,0.3,0.5,0.6,1.3,1.7C1100.4,133.2,1096.6,132.7,1092.9,132.2z" style="fill: rgb(6, 6, 6);" transform="matrix(1.2023898284185666, 0, 0, 1.2023898284185666, -184.12031055042917, -67.38303458403429)"/>
			<path class="st77" d="M359.9,135.9c0.4-1,4.6-2.7,5.9-2.3c0.5,0.2,0.6,1.1,0.8,1.7C364.3,135.6,362.1,135.8,359.9,135.9z" style="fill: rgb(6, 6, 6);" transform="matrix(1.2023898284185666, 0, 0, 1.2023898284185666, -184.12031055042917, -67.38303458403429)"/>
			
			<path class="st35" d="M922.1,118c1.2-0.4,2.3-0.9,3.9-1.5c0.4,0.2,1.5,0.6,2.7,1.1c-1.3,0.7-2.5,1.4-3.9,2&#10;&#9;&#9;&#9;&#9;c-0.8,0.3-1.7,0.5-2.5,0.7C922.3,119.6,922.2,118.8,922.1,118z" style="fill: rgb(6, 6, 6);" transform="matrix(1.2023898284185666, 0, 0, 1.2023898284185666, -184.12031055042917, -67.38303458403429)"/>
			
			<path class="st58" d="M379.2,60.3c0.3,0.5,0.7,0.9,1,1.4c-1.5,0.2-3.1,0.5-4.6,0.4c-0.9-0.1-1.7-0.9-2.5-1.4&#10;&#9;&#9;&#9;&#9;C375.2,60.5,377.2,60.4,379.2,60.3z" style="fill: rgb(6, 6, 6);" transform="matrix(1.2023898284185666, 0, 0, 1.2023898284185666, -184.12031055042917, -67.38303458403429)"/>
			<path class="st3" d="M794.4,87.7c-1.5,2.1-5.7,2.7-8.1,1.1c-0.3-0.2,0-0.7-0.1-1.1c0.5,0.2,1.2,0.6,1.4,0.5&#10;&#9;&#9;&#9;&#9;C789.7,86.9,792.2,88.3,794.4,87.7z" style="fill: rgb(6, 6, 6);" transform="matrix(1.2023898284185666, 0, 0, 1.2023898284185666, -184.12031055042917, -67.38303458403429)"/>
			
			
			
			<path class="st120" d="M714.1,83.9c4.1-0.3,8.2-0.7,12.3-1c0,0.4,0.1,0.7,0.1,1.1c-4.1,0.2-8.2,0.3-12.3,0.5&#10;&#9;&#9;&#9;&#9;C714.1,84.3,714.1,84.1,714.1,83.9z" style="fill: rgb(6, 6, 6);" transform="matrix(1.2023898284185666, 0, 0, 1.2023898284185666, -184.12031055042917, -67.38303458403429)"/>
			<path class="st86" d="M806.3,87.8c-0.5,0.5-0.9,1-1.4,1.5c-1.8,0.1-3.6,0.2-5.4,0.3c-0.2-0.6-0.5-1.2-0.7-1.8c0.9,0,1.7,0,2.6,0&#10;&#9;&#9;&#9;&#9;C803,87.7,804.7,87.8,806.3,87.8z" style="fill: rgb(6, 6, 6);" transform="matrix(1.2023898284185666, 0, 0, 1.2023898284185666, -184.12031055042917, -67.38303458403429)"/>
			
			<path class="st18" d="M735.8,87.8c-2.8,0.9-5.4,0.6-8-0.5c0.3-0.7,0.7-1.3,0.8-1.6C731.3,86.4,733.5,87.1,735.8,87.8z" style="fill: rgb(6, 6, 6);" transform="matrix(1.2023898284185666, 0, 0, 1.2023898284185666, -184.12031055042917, -67.38303458403429)"/>
			
			
			<path class="st13" d="M958,95.9c0-0.4-0.1-0.8-0.1-1.2c3.1,0.2,2.5-1.6,2.7-2.8c0.4-0.1,0.9-0.2,1.3-0.3&#10;&#9;&#9;&#9;&#9;c-0.1,0.7-0.1,1.4-0.2,2.3c0.7,0.1,1.5,0.2,2.3,0.3c0,0.4-0.1,0.9-0.1,1.3C962,95.6,960,95.8,958,95.9z" style="fill: rgb(6, 6, 6);" transform="matrix(1.2023898284185666, 0, 0, 1.2023898284185666, -184.12031055042917, -67.38303458403429)"/>
			
			<path class="st102" d="M1102.3,129.7c2.1,0.3,4.8-0.9,6,1.4c-1.5,0.2-3.1,0.4-4.6,0.6c-0.4-0.4-0.9-0.7-1.3-1.1&#10;&#9;&#9;&#9;&#9;C1102.3,130.3,1102.3,130,1102.3,129.7z" style="fill: rgb(6, 6, 6);" transform="matrix(1.2023898284185666, 0, 0, 1.2023898284185666, -184.12031055042917, -67.38303458403429)"/>
			
			<path class="st62" d="M396.5,60.3c-2.7,0.3-5.4,0.6-8.1,0.8c0-0.6,0-1.3,0-2.4C391.3,59.3,393.9,59.8,396.5,60.3z" style="fill: rgb(6, 6, 6);" transform="matrix(1.2023898284185666, 0, 0, 1.2023898284185666, -184.12031055042917, -67.38303458403429)"/>
			<path class="st121" d="M840.1,89.2c-0.9-0.5-1.7-1-2.6-1.4c2.7-0.2,5.3-0.4,8-0.6c0.1,0.2,0.2,0.4,0.2,0.7&#10;&#9;&#9;&#9;&#9;C843.9,88.2,842,88.7,840.1,89.2z" style="fill: rgb(6, 6, 6);" transform="matrix(1.2023898284185666, 0, 0, 1.2023898284185666, -184.12031055042917, -67.38303458403429)"/>
			<path class="st28" d="M991.3,86.2c-2.8-0.1-5.5-0.3-8.3-0.4c0-0.2,0.1-0.5,0.1-0.7c2.8,0,5.5,0,8.3,0&#10;&#9;&#9;&#9;&#9;C991.3,85.5,991.3,85.9,991.3,86.2z" style="fill: rgb(6, 6, 6);" transform="matrix(1.2023898284185666, 0, 0, 1.2023898284185666, -184.12031055042917, -67.38303458403429)"/>
			
			
			
			
			<path class="st94" d="M556.1,79.9c0.7-1.6,0.4-3.8,4-3.8c0.4,0.5,0.7,0.9,1.2,1.5C559.5,78.4,557.8,79.2,556.1,79.9z" style="fill: rgb(6, 6, 6);" transform="matrix(1.2023898284185666, 0, 0, 1.2023898284185666, -184.12031055042917, -67.38303458403429)"/>
			<path class="st23" d="M323.9,138.3c0.9,0,1.9,0.1,2.8,0.1c0.7,0.4,1.5,0.8,3.1,1.5c-3,0.1-5.1,0.2-7.2,0.3&#10;&#9;&#9;&#9;&#9;c0.1-0.6,0.1-1.2,0.2-1.9C323.1,138.4,323.5,138.4,323.9,138.3z" style="fill: rgb(6, 6, 6);" transform="matrix(1.2023898284185666, 0, 0, 1.2023898284185666, -184.12031055042917, -67.38303458403429)"/>
			
			<path class="st69" d="M274,49.6c2.6-0.5,5.3-1.1,7.9-1.6c0.1,0.3,0.2,0.6,0.2,0.9C279.7,50.1,277,50.3,274,49.6&#10;&#9;&#9;&#9;&#9;C274,49.5,274,49.6,274,49.6z" style="fill: rgb(6, 6, 6);" transform="matrix(1.2023898284185666, 0, 0, 1.2023898284185666, -184.12031055042917, -67.38303458403429)"/>
			<path class="st115" d="M1120.4,102.6c-2.8-1.3-2.8-1.3,0.7-3.4c0.9,0.4,1.8,0.7,2.6,1.1c-0.5-0.1-1-0.2-1.5-0.3&#10;&#9;&#9;&#9;&#9;C1121.6,100.9,1121,101.7,1120.4,102.6z" style="fill: rgb(6, 6, 6);" transform="matrix(1.2023898284185666, 0, 0, 1.2023898284185666, -184.12031055042917, -67.38303458403429)"/>
			<path class="st115" d="M1135.6,100.7c-0.7,0.1-1.3,0.3-2,0.4c-0.4-0.7-0.9-1.4-1.4-2.2c-0.7,0.3-1.4,0.5-2.1,0.7&#10;&#9;&#9;&#9;&#9;c0.2-1.1,0.5-2.2,0.7-3.2c0.3-0.1,0.7-0.2,1-0.2c0.7,1,1.4,2.1,2.2,3.1C1134.4,99.8,1135.1,100.2,1135.6,100.7z" style="fill: rgb(6, 6, 6);" transform="matrix(1.2023898284185666, 0, 0, 1.2023898284185666, -184.12031055042917, -67.38303458403429)"/>
			<path class="st73" d="M345.3,67.1c-0.5,0.1-1,0.3-1.4,0.4c0-1.4,0-2.9,0-4.5c0.9,0.3,1.8,0.7,2.6,1c0.5,0.5,1.1,0.9,1.5,1.3&#10;&#9;&#9;&#9;&#9;C347,66,346.1,66.5,345.3,67.1z" style="fill: rgb(6, 6, 6);" transform="matrix(1.2023898284185666, 0, 0, 1.2023898284185666, -184.12031055042917, -67.38303458403429)"/>
			
			<path class="st41" d="M911.4,117.6c0.7,0,1.5,0,2.2,0.1c0.2,0.7,0.4,1.5,0.6,2.2c-1.6-0.1-3.2-0.2-5.1-0.3&#10;&#9;&#9;&#9;&#9;C910.1,118.7,910.7,118.2,911.4,117.6z" style="fill: rgb(6, 6, 6);" transform="matrix(1.2023898284185666, 0, 0, 1.2023898284185666, -184.12031055042917, -67.38303458403429)"/>
			<path class="st18" d="M727.1,87.3c-2.1,1.4-3.7,0.4-5.3-0.5c0.1-0.5,0.2-0.9,0.3-1.4c1,0.3,2,0.5,2.9,0.8&#10;&#9;&#9;&#9;&#9;C725.8,86.5,726.5,86.9,727.1,87.3z" style="fill: rgb(6, 6, 6);" transform="matrix(1.2023898284185666, 0, 0, 1.2023898284185666, -184.12031055042917, -67.38303458403429)"/>
			
			<path class="st71" d="M557.7,89.5c-1.3,1.7-1.3,1.7-7.1,0C552.9,89.5,555.2,89.5,557.7,89.5z" style="fill: rgb(6, 6, 6);" transform="matrix(1.2023898284185666, 0, 0, 1.2023898284185666, -184.12031055042917, -67.38303458403429)"/>
			<path class="st86" d="M333.9,66.9c-2.1,0.1-4.4,0.5-5.4-1.5C330.6,65.4,333.8,63.3,333.9,66.9z" style="fill: rgb(6, 6, 6);" transform="matrix(1.2023898284185666, 0, 0, 1.2023898284185666, -184.12031055042917, -67.38303458403429)"/>
			<path class="st113" d="M620.1,94.4c-0.7-0.3-1.4-0.6-2.1-0.8c0-0.5-0.3-1.3,0-1.6c0.5-0.5,1.5-0.7,2.3-1c0.1,0.5,0.4,1,0.4,1.5&#10;&#9;&#9;&#9;&#9;C620.6,93.1,620.3,93.7,620.1,94.4z" style="fill: rgb(6, 6, 6);" transform="matrix(1.2023898284185666, 0, 0, 1.2023898284185666, -184.12031055042917, -67.38303458403429)"/>
			
			<path class="st62" d="M1012.2,87c-2.3-0.1-4.6-0.2-6.9-0.4c0-0.2,0-0.4,0-0.7c2.3,0,4.5,0,6.8,0&#10;&#9;&#9;&#9;&#9;C1012.1,86.3,1012.1,86.7,1012.2,87z" style="fill: rgb(6, 6, 6);" transform="matrix(1.2023898284185666, 0, 0, 1.2023898284185666, -184.12031055042917, -67.38303458403429)"/>
			
			<path class="st20" d="M1130.9,130.6c0.2-0.2,0.5-0.3,0.7-0.5c1.3,0.3,2.6,0.7,4,1C1133.1,132.7,1131.9,132.6,1130.9,130.6z" style="fill: rgb(6, 6, 6);" transform="matrix(1.2023898284185666, 0, 0, 1.2023898284185666, -184.12031055042917, -67.38303458403429)"/>
			
			<path class="st31" d="M463.6,130.6c0.5,0.6,1,1.2,1.5,1.8c-1.4,0.3-2.8,0.6-4.8,1c0.6-1.1,0.9-1.7,1.3-2.3&#10;&#9;&#9;&#9;&#9;C462.3,131,463,130.8,463.6,130.6z" style="fill: rgb(6, 6, 6);" transform="matrix(1.2023898284185666, 0, 0, 1.2023898284185666, -184.12031055042917, -67.38303458403429)"/>
			<path class="st78" d="M1095.8,93.8c0.1-2.9,1.8-2.3,4.6-1.2C1098.4,93.2,1097.1,93.5,1095.8,93.8z" style="fill: rgb(6, 6, 6);" transform="matrix(1.2023898284185666, 0, 0, 1.2023898284185666, -184.12031055042917, -67.38303458403429)"/>
			
			
			
			<path class="st122" d="M1102.4,130.6c0.4,0.4,0.9,0.7,1.3,1.1c0,0.2,0,0.3-0.1,0.5c-2.8-0.2-5.7-0.4-8.5-0.6&#10;&#9;&#9;&#9;&#9;C1097.5,131.3,1099.9,130.9,1102.4,130.6z" style="fill: rgb(6, 6, 6);" transform="matrix(1.2023898284185666, 0, 0, 1.2023898284185666, -184.12031055042917, -67.38303458403429)"/>
			
			
			
			
			
			
			
			
			
			
			
			
			
			
			
			
			
			
			
			
			
			
			
			
			
			
			
			
			
			
			
			
			<path class="st123" d="M487.4,94.4c1-0.2,1.9-0.5,3.2-0.8c0.2-0.8,0.4-1.8,0.6-2.7c1.2,0.2,2.3,0.4,3.8,0.6&#10;&#9;&#9;&#9;&#9;c0.1,0.3,0.4,1,0.8,2.2c0.4-1,0.7-1.6,0.9-2.2c1,0.2,2,0.4,2.9,0.5c-1.6,2.1-3.3,4.3-4.7,6.5c-0.5,0.7-0.3,1.7-0.4,2.5&#10;&#9;&#9;&#9;&#9;c1.4,0,2.7,0.1,4.1,0.1c0-0.2,0-0.5,0-0.7c-0.6-0.2-1.2-0.4-1.9-0.7c1-0.7,1.9-1.2,2.7-1.8c0.5-0.4,1-0.8,1.2-1.2&#10;&#9;&#9;&#9;&#9;c0.5-1.4,0.9-2.8,1.4-4.4c-0.3,0-1.4-0.1-2.4-0.2c1.8-1.1,3.5-2.2,5.5-3.5c-0.4-0.2-0.1,0,0.3,0.1c0.4,0.7,0.7,1.3,0.8,1.6&#10;&#9;&#9;&#9;&#9;c-1.1,1.8-1.9,3.2-2.8,4.8c2.1-0.3,3.5-0.5,4.8-0.7c2.7,0.4,4.7-0.8,7-1.4c0.8-0.2,1.9,0.1,3,0.2c-1.7,3-3,5.9-8.1,6.2&#10;&#9;&#9;&#9;&#9;c0.9-1,1.7-1.9,2.9-3.2c-3.5,0.1-7.1,0.3-11,0.4c3.4,4.2,5,4.7,8.1,2.8c1,0.8,2,1.7,3,2.4c-2.3,0.9-4.6,2.2-7.2,2.7&#10;&#9;&#9;&#9;&#9;c-2,0.4-4.6,0.4-6.3-0.3c-2.2-0.9-3.5-1.5-4.4,0.8c-2.1-1.4-5.3-0.8-7.3,1.1c-0.3-0.7-0.6-1.3-0.8-1.9c-2,0.8-3.5,1.4-5.7,0.5&#10;&#9;&#9;&#9;&#9;c-1.1-0.5-2.9-0.1-4.4-0.1c-1.7,0-3.5,0-5.2,0c0-0.3-0.1-0.6-0.1-1c1.1-0.3,2.3-0.5,3.4-0.8c1.3-0.3,2.6-0.8,4-0.8&#10;&#9;&#9;&#9;&#9;c2.2,0,4.5,0.2,6.7,0.3c0.9-1,1.8-2,2.6-2.9c-0.3,0.6-0.6,1.2-1.1,2c1.8-0.4,3.5,2.2,5.1-0.5c-1.3-0.5-2.7-1-4.1-1.5&#10;&#9;&#9;&#9;&#9;c-0.4-0.8-0.8-1.6-1.2-2.4c1.2-0.1,2.5-0.2,4.2-0.4c0.8-0.3,2.1-0.8,3.6-1.3C492.2,95,489.8,94.7,487.4,94.4z" style="fill: rgb(6, 6, 6);" transform="matrix(1.2023898284185666, 0, 0, 1.2023898284185666, -184.12031055042917, -67.38303458403429)"/>
			<path class="st124" d="M679.3,93.6c3.1-0.2,6.2-0.5,9.3-0.7c4.4-0.1,8.9-0.1,13.3-0.1c1.9,0,3.9,0.2,5.8,0.3c0,0.2,0,0.4,0,0.7&#10;&#9;&#9;&#9;&#9;c-2.6,0.3-5.2,0.6-7.8,0.9c-1.2,0-2.5-0.1-3.7,0c-0.9,0.1-2.2,0.6-2.7,0.4c-2.5-1.2-4,0-5.6,1c-0.9-0.3-1.7-1-2.6-1&#10;&#9;&#9;&#9;&#9;c-5.6,0-11.1,0.1-16.7,0.2c-0.5,0-1-0.1-1.5-0.8C671.1,94.1,675.2,93.8,679.3,93.6z" style="fill: rgb(6, 6, 6);" transform="matrix(1.2023898284185666, 0, 0, 1.2023898284185666, -184.12031055042917, -67.38303458403429)"/>
			<path class="st125" d="M394.4,63c4-0.6,7.6-2.5,12-1.5c0.4,0.1,1.3-1.2,2-1.8c0,0-0.1,0-0.1,0c2.8,1.5,6.1,1.1,9.3,0.9&#10;&#9;&#9;&#9;&#9;c0.1,0.3,0.1,0.6,0.2,0.9c-1.8,0.4-3.6,0.7-5.5,1.1c-1.4,0.3-2.8,0.5-4.6,0.8c0.1,0.2-0.1-0.2-0.1-0.2c-4.5,0.3-8.8,0.5-13.1,0.8&#10;&#9;&#9;&#9;&#9;C394.4,63.7,394.4,63.3,394.4,63z" style="fill: rgb(6, 6, 6);" transform="matrix(1.2023898284185666, 0, 0, 1.2023898284185666, -184.12031055042917, -67.38303458403429)"/>
			<path class="st105" d="M802.3,92c0.3,0.4,0.6,0.8,1.4,1.8c-6.4,0.3-12.3,0.6-18.7,0.9c0.6-1,1-1.7,1.4-2.4&#10;&#9;&#9;&#9;&#9;C791.7,92.3,797,92.2,802.3,92z" style="fill: rgb(6, 6, 6);" transform="matrix(1.2023898284185666, 0, 0, 1.2023898284185666, -184.12031055042917, -67.38303458403429)"/>
			<path class="st88" d="M998.8,96c1.1-0.2,2.2-0.6,3.3-0.6c1.9,0,3.8,0.2,5.6,0.4c1.6,0.2,3.1,0.7,4.7,0.9c1.2,0.1,2.5-0.1,3.7-0.2&#10;&#9;&#9;&#9;&#9;c3-0.4,5.1,0.5,5.1,2.3c-7.4-0.6-14.8-1.3-22.2-1.9C999,96.5,998.9,96.3,998.8,96z" style="fill: rgb(6, 6, 6);" transform="matrix(1.2023898284185666, 0, 0, 1.2023898284185666, -184.12031055042917, -67.38303458403429)"/>
			<path class="st109" d="M928,92.5c1.4-0.8,2.8-1.7,4.2-2.5c1,1.5,2,2.9,3.1,4.5c-1.8,0.8-15.9,0.5-18.4-0.8&#10;&#9;&#9;&#9;&#9;C920.7,93.3,924.8,94.6,928,92.5z" style="fill: rgb(6, 6, 6);" transform="matrix(1.2023898284185666, 0, 0, 1.2023898284185666, -184.12031055042917, -67.38303458403429)"/>
			<path class="st126" d="M687.8,95.9c1.6-1,3.1-2.2,5.6-1c0.5,0.3,1.8-0.3,2.7-0.4c1.2-0.1,2.5,0,3.7,0c-0.5,1-1,2-1.6,3&#10;&#9;&#9;&#9;&#9;c-0.2-0.3-0.4-0.5-0.6-0.8c-1.6,0.2-3.4,0.1-4.8,0.6C690.2,98.4,688.9,97.6,687.8,95.9z" style="fill: rgb(6, 6, 6);" transform="matrix(1.2023898284185666, 0, 0, 1.2023898284185666, -184.12031055042917, -67.38303458403429)"/>
			<path class="st103" d="M348.5,68.9c0.5-0.2,1.1-0.4,1.6-0.7c0.8-0.4,1.6-0.8,2.4-1.2c1.5-0.2,3-0.4,4.5-0.4&#10;&#9;&#9;&#9;&#9;c0.2,0,0.7,1.3,0.5,1.9c-0.1,0.5-1,1.2-1.5,1.2C353.5,69.5,351,69.2,348.5,68.9z" style="fill: rgb(6, 6, 6);" transform="matrix(1.2023898284185666, 0, 0, 1.2023898284185666, -184.12031055042917, -67.38303458403429)"/>
			<path class="st118" d="M1102.4,130.6c-2.4,0.3-4.8,0.6-7.2,1c-0.7-0.1-1.4-0.3-2.1-0.4c-0.9-0.2-1.8-0.3-2.7-0.5&#10;&#9;&#9;&#9;&#9;c-0.3-0.7-0.6-1.4-0.9-2.1c0.9,0,1.9,0,2.8,0c3.3,0.3,6.7,0.7,10,1.1C1102.3,130,1102.3,130.3,1102.4,130.6z" style="fill: rgb(6, 6, 6);" transform="matrix(1.2023898284185666, 0, 0, 1.2023898284185666, -184.12031055042917, -67.38303458403429)"/>
			<path class="st127" d="M543.3,85.3c-1,2.8-4.1,1.6-6.5,1.8c-0.1-0.4,0-1.1-0.3-1.2c-1.2-0.4-2.5-0.6-3.8-1&#10;&#9;&#9;&#9;&#9;C536.3,84.8,539.9,82.7,543.3,85.3z" style="fill: rgb(6, 6, 6);" transform="matrix(1.2023898284185666, 0, 0, 1.2023898284185666, -184.12031055042917, -67.38303458403429)"/>
			<path class="st128" d="M450.1,59.6c-6.4,0.5-12.8,1.1-19.2,1.6c-0.1-0.4-0.1-0.8-0.2-1.2c6.4-0.5,12.8-1,19.2-1.4&#10;&#9;&#9;&#9;&#9;C450,58.9,450.1,59.3,450.1,59.6z" style="fill: rgb(6, 6, 6);" transform="matrix(1.2023898284185666, 0, 0, 1.2023898284185666, -184.12031055042917, -67.38303458403429)"/>
			<path class="st105" d="M485.6,102.2c-2.2-0.1-4.5-0.4-6.7-0.3c-1.3,0-2.7,0.5-4,0.8c-0.5-0.3-0.9-0.6-1.4-0.9&#10;&#9;&#9;&#9;&#9;c0.2-0.2,0.5-0.4,0.7-0.5c1.5,0,2.9,0,4.8,0c-0.4-1.1-0.7-1.7-0.9-2.4C481.6,98.8,483.9,100.2,485.6,102.2z" style="fill: rgb(6, 6, 6);" transform="matrix(1.2023898284185666, 0, 0, 1.2023898284185666, -184.12031055042917, -67.38303458403429)"/>
			<path class="st129" d="M802.3,92c-5.3,0.1-10.6,0.3-15.9,0.4c-1.6-0.2-3.1-0.3-5.4-0.6c1.9-0.3,3-0.5,4.1-0.7&#10;&#9;&#9;&#9;&#9;c4.6-0.1,9.3-0.1,13.9-0.2C800.1,91.3,801.2,91.7,802.3,92z" style="fill: rgb(6, 6, 6);" transform="matrix(1.2023898284185666, 0, 0, 1.2023898284185666, -184.12031055042917, -67.38303458403429)"/>
			<path class="st109" d="M369.2,67c-1.6,0.3-3.2,0.7-4.9,0.9c-0.9,0.1-1.9,0-2.8,0c0.3-0.8,0.4-2.3,0.8-2.4c2.3-0.2,4.6-0.1,6.9,0&#10;&#9;&#9;&#9;&#9;C369.2,66,369.2,66.5,369.2,67z" style="fill: rgb(6, 6, 6);" transform="matrix(1.2023898284185666, 0, 0, 1.2023898284185666, -184.12031055042917, -67.38303458403429)"/>
			<path class="st130" d="M573.4,97.3c0.4,0,0.9,0.1,1.3,0.1c2.2,0.2,4.3,0.5,6.5,0.7c0,0.3,0,0.5,0,0.8c-5.3,0.2-10.6,0.4-16,0.6&#10;&#9;&#9;&#9;&#9;c0-0.2,0-0.5,0-0.7C567.9,98.2,570.7,97.8,573.4,97.3z" style="fill: rgb(6, 6, 6);" transform="matrix(1.2023898284185666, 0, 0, 1.2023898284185666, -184.12031055042917, -67.38303458403429)"/>
			<path class="st88" d="M508.3,94.4c-1.3,0.2-2.7,0.4-4.8,0.7c0.9-1.5,1.8-3,2.8-4.8c-0.1-0.2-0.5-0.9-0.8-1.6&#10;&#9;&#9;&#9;&#9;c2.7,0,3.1,1.4,3.2,2.9C508.7,92.5,508.4,93.4,508.3,94.4z" style="fill: rgb(6, 6, 6);" transform="matrix(1.2023898284185666, 0, 0, 1.2023898284185666, -184.12031055042917, -67.38303458403429)"/>
			<path class="st113" d="M323.4,71.6c-1.9,0.4-3.7,0.8-5.7,1.1c-1.1,0.2-2.7,0.3-3.2-0.1c-0.6-0.4-0.1-1.5-0.1-1.8&#10;&#9;&#9;&#9;&#9;c3.2-0.2,6.1-0.3,9-0.4C323.4,70.8,323.4,71.2,323.4,71.6z" style="fill: rgb(6, 6, 6);" transform="matrix(1.2023898284185666, 0, 0, 1.2023898284185666, -184.12031055042917, -67.38303458403429)"/>
			<path class="st118" d="M369.2,67c0-0.5,0-1,0-1.5c2.8-0.6,5.5-1.2,8.3-1.7c0.2,0,1,0.7,0.9,0.7c-0.4,0.5-0.9,1.1-1.6,1.2&#10;&#9;&#9;&#9;&#9;C374.3,66.3,371.7,66.6,369.2,67z" style="fill: rgb(6, 6, 6);" transform="matrix(1.2023898284185666, 0, 0, 1.2023898284185666, -184.12031055042917, -67.38303458403429)"/>
			<path class="st0" d="M1037.9,96.9c2.4,0.5,4.2,0.9,6.2,1.3c-0.6,2.1-1.7,3.1-8.1,0.3C1036.8,97.8,1037.6,97.1,1037.9,96.9z" style="fill: rgb(6, 6, 6);" transform="matrix(1.2023898284185666, 0, 0, 1.2023898284185666, -184.12031055042917, -67.38303458403429)"/>
			<path class="st97" d="M329.9,70.3c2.5,0,5-0.1,7.5-0.1c0.9,0,1.7,0.3,2.6,0.5c-1.8,0.8-5.1-0.4-5.3,2.5c-2.4-0.7-4.6-1.3-6.8-1.9&#10;&#9;&#9;&#9;&#9;C328.6,71,329.3,70.7,329.9,70.3L329.9,70.3z" style="fill: rgb(6, 6, 6);" transform="matrix(1.2023898284185666, 0, 0, 1.2023898284185666, -184.12031055042917, -67.38303458403429)"/>
			<path class="st120" d="M964,95.5c0-0.4,0.1-0.9,0.1-1.3c3.5,0.1,7,0.3,10.5,0.4c0,0.3,0,0.7,0,1C971.2,96.9,967.5,95.3,964,95.5z&#10;&#9;&#9;&#9;&#9;" style="fill: rgb(6, 6, 6);" transform="matrix(1.2023898284185666, 0, 0, 1.2023898284185666, -184.12031055042917, -67.38303458403429)"/>
			<path class="st131" d="M633.1,119c-0.1,0-0.3,0-0.4,0c-1.3-1.4-1.3-3-0.9-4.5c0.1-0.6,1.4-1,2.3-1.6c0.8,0.8,1.5,1.4,2.3,2.2&#10;&#9;&#9;&#9;&#9;C633.3,115.5,633.4,117.4,633.1,119z" style="fill: rgb(6, 6, 6);" transform="matrix(1.2023898284185666, 0, 0, 1.2023898284185666, -184.12031055042917, -67.38303458403429)"/>
			<path class="st44" d="M1146.7,128.2c2.2-0.2,4.5-0.4,6.7-0.4c0.6,0,1.2,1,2.4,2.2c-3.8-0.3-6.4-0.6-9.1-0.8&#10;&#9;&#9;&#9;&#9;C1146.7,128.9,1146.7,128.6,1146.7,128.2z" style="fill: rgb(6, 6, 6);" transform="matrix(1.2023898284185666, 0, 0, 1.2023898284185666, -184.12031055042917, -67.38303458403429)"/>
			<path class="st29" d="M474.3,101.2c-0.2,0.2-0.5,0.4-0.7,0.5c-1-0.4-2-0.8-3.1-1.1c-1.1-0.2-2.4-0.3-3.7-0.4&#10;&#9;&#9;&#9;&#9;c1.9-0.7,3.6-1.5,5.4-2.1c0.3-0.1,0.9,0.3,1.4,0.5C473.8,99.5,474.1,100.4,474.3,101.2z" style="fill: rgb(6, 6, 6);" transform="matrix(1.2023898284185666, 0, 0, 1.2023898284185666, -184.12031055042917, -67.38303458403429)"/>
			<path class="st69" d="M410.9,125.8c0.7-1,1.3-1.9,2.1-3.1c1.6,1,3,1.9,5.1,3.1C415.2,125.8,413,125.8,410.9,125.8z" style="fill: rgb(6, 6, 6);" transform="matrix(1.2023898284185666, 0, 0, 1.2023898284185666, -184.12031055042917, -67.38303458403429)"/>
			<path class="st0" d="M474.3,101.2c-0.2-0.8-0.4-1.7-0.7-2.5c0.9-0.3,1.8-0.5,2.9-0.9c0.4,0.3,1,0.7,1.6,1.1&#10;&#9;&#9;&#9;&#9;c0.3,0.7,0.5,1.3,0.9,2.4C477.2,101.2,475.8,101.2,474.3,101.2z" style="fill: rgb(6, 6, 6);" transform="matrix(1.2023898284185666, 0, 0, 1.2023898284185666, -184.12031055042917, -67.38303458403429)"/>
			<path class="st132" d="M878.7,116.2c0,0.9,0.1,1.9,0.1,2.8c-2.2-0.5-4.3-0.9-6.5-1.4C874.4,117.2,875.8,115.1,878.7,116.2z" style="fill: rgb(6, 6, 6);" transform="matrix(1.2023898284185666, 0, 0, 1.2023898284185666, -184.12031055042917, -67.38303458403429)"/>
			<path class="st69" d="M1151,122.8c-2.4,1.2-4.9,2.5-8-0.3C1146.2,122.6,1148.6,122.7,1151,122.8z" style="fill: rgb(6, 6, 6);" transform="matrix(1.2023898284185666, 0, 0, 1.2023898284185666, -184.12031055042917, -67.38303458403429)"/>
			<path class="st125" d="M876.9,112.7c1.7-0.1,3.4-0.3,5.2-0.4c-1.4,2.1-3.4,2.6-6.6,1.9C876,113.7,876.4,113.2,876.9,112.7z" style="fill: rgb(6, 6, 6);" transform="matrix(1.2023898284185666, 0, 0, 1.2023898284185666, -184.12031055042917, -67.38303458403429)"/>
			<path class="st43" d="M394.4,63c0,0.3,0.1,0.7,0.1,1c-2.1,0.2-4.2,0.3-6.3,0.5c-1,0.1-2,0.2-3.1-0.2&#10;&#9;&#9;&#9;&#9;C388,62.9,391.1,62.8,394.4,63z" style="fill: rgb(6, 6, 6);" transform="matrix(1.2023898284185666, 0, 0, 1.2023898284185666, -184.12031055042917, -67.38303458403429)"/>
			<path class="st17" d="M329.9,70.3c-0.7,0.3-1.4,0.7-2,1c-1.5,0.1-3,0.2-4.4,0.3c0-0.4,0-0.8,0-1.2c0.9-0.3,1.7-0.6,2.6-0.9&#10;&#9;&#9;&#9;&#9;C327.3,69.8,328.6,70.1,329.9,70.3z" style="fill: rgb(6, 6, 6);" transform="matrix(1.2023898284185666, 0, 0, 1.2023898284185666, -184.12031055042917, -67.38303458403429)"/>
			<path class="st78" d="M487.4,94.4c2.4,0.3,4.8,0.5,7.3,0.8c-1.5,0.5-2.8,1-3.6,1.3c-1.7,0.2-2.9,0.3-4.2,0.4&#10;&#9;&#9;&#9;&#9;C487.2,96.1,487.3,95.3,487.4,94.4z" style="fill: rgb(6, 6, 6);" transform="matrix(1.2023898284185666, 0, 0, 1.2023898284185666, -184.12031055042917, -67.38303458403429)"/>
			<path class="st99" d="M378.4,133.5c1,0.3,2.1,0.6,3.1,1c0.1,0.2,0.1,0.3,0.2,0.5c-1.3,0.2-2.6,0.4-3.9,0.5&#10;&#9;&#9;&#9;&#9;c-0.9-0.5-1.8-0.9-2.7-1.4C376.2,133.9,377.3,133.7,378.4,133.5z" style="fill: rgb(6, 6, 6);" transform="matrix(1.2023898284185666, 0, 0, 1.2023898284185666, -184.12031055042917, -67.38303458403429)"/>
			<path class="st133" d="M664.6,95.5c-3.1,0-6.1,0-9.2,0c3.1-1.1,6.1-1.6,9.3-1C664.6,94.8,664.6,95.2,664.6,95.5z" style="fill: rgb(6, 6, 6);" transform="matrix(1.2023898284185666, 0, 0, 1.2023898284185666, -184.12031055042917, -67.38303458403429)"/>
			<path class="st61" d="M1013.3,118.5c-1.7,0-3.2,0-4.7,0c0.5-2.6,3.2-1.8,5.5-2.2C1013.8,117.2,1013.5,117.9,1013.3,118.5z" style="fill: rgb(6, 6, 6);" transform="matrix(1.2023898284185666, 0, 0, 1.2023898284185666, -184.12031055042917, -67.38303458403429)"/>
			<path class="st4" d="M876.9,112.7c-0.5,0.5-0.9,1-1.4,1.5c-1.3,0.2-2.7,0.5-4,0.7c-0.1-0.3-0.2-0.7-0.4-1&#10;&#9;&#9;&#9;&#9;C872.8,113,874.1,111.4,876.9,112.7z" style="fill: rgb(6, 6, 6);" transform="matrix(1.2023898284185666, 0, 0, 1.2023898284185666, -184.12031055042917, -67.38303458403429)"/>
			<path class="st0" d="M375.1,134.1c0.9,0.5,1.8,0.9,2.7,1.4c-2.4,0.3-4.8,0.6-7.2,1C372.1,135.7,373.6,134.9,375.1,134.1z" style="fill: rgb(6, 6, 6);" transform="matrix(1.2023898284185666, 0, 0, 1.2023898284185666, -184.12031055042917, -67.38303458403429)"/>
			<path class="st73" d="M1146.2,128.2c-1.5,0.1-3.1,0.3-4.7,0.4c0.7-1.9,0.7-1.9,4.5-1.2C1146.1,127.6,1146.2,127.9,1146.2,128.2z" style="fill: rgb(6, 6, 6);" transform="matrix(1.2023898284185666, 0, 0, 1.2023898284185666, -184.12031055042917, -67.38303458403429)"/>
			
			
			
			
			
			
			
			
			
			
			
			
			
			
			
			
			
			
			
			
			
			
			
			
			
			
			
			
			
			
			
			
			
			
			
			
			
			
			
			
			
			
			
			
			
			
			
			
			
			
			
			
			
			
			
			
			
			
			
			
			
			
			
			
			
			
			
			
			
			
			
			
			
			
			
			
			
			
			
			
			
			
			
			
			
			
			
			
			
			
			
			
			
			
			
			
			
			
			
			
			
			
			
			
			
			
			
			
			
			
			
			
			
			
			
			
			
			
			
			
			
			
			
			
			
			
			
			
			
			
			
			
			
			
			<path class="st139" d="M499.6,92.1c1,0.1,2.1,0.2,2.4,0.2c-0.5,1.6-0.8,3-1.4,4.4c-0.2,0.5-0.7,0.9-1.2,1.2&#10;&#9;&#9;&#9;&#9;c-0.8,0.6-1.7,1.1-2.7,1.8c0.7,0.3,1.3,0.5,1.9,0.7c0,0.2,0,0.5,0,0.7c-1.4,0-2.7-0.1-4.1-0.1c0.1-0.8,0-1.8,0.4-2.5&#10;&#9;&#9;&#9;&#9;C496.4,96.3,498.1,94.2,499.6,92.1C499.7,92,499.6,92.1,499.6,92.1z" style="fill: rgb(6, 6, 6);" transform="matrix(1.2023898284185666, 0, 0, 1.2023898284185666, -184.12031055042917, -67.38303458403429)"/>
			<path class="st131" d="M510.2,99.2c-3.1,1.9-4.7,1.5-8.1-2.8c3.9-0.1,7.4-0.3,11-0.4C511.9,97.3,511,98.3,510.2,99.2&#10;&#9;&#9;&#9;&#9;C510.2,99.3,510.2,99.2,510.2,99.2z" style="fill: rgb(6, 6, 6);" transform="matrix(1.2023898284185666, 0, 0, 1.2023898284185666, -184.12031055042917, -67.38303458403429)"/>
			<path class="st113" d="M488.2,99.3c1.4,0.5,2.7,1,4.1,1.5c-1.6,2.7-3.3,0.1-5.1,0.5C487.6,100.4,488,99.8,488.2,99.3&#10;&#9;&#9;&#9;&#9;C488.3,99.3,488.2,99.3,488.2,99.3z" style="fill: rgb(6, 6, 6);" transform="matrix(1.2023898284185666, 0, 0, 1.2023898284185666, -184.12031055042917, -67.38303458403429)"/>
			
			
			
			
			
			
			
			
			
			
			
			
			
			
			
			
			
			
			
			
			
			
			
			
			
		</g>

</svg>